<?xml version="1.0" encoding="utf-8" standalone="no"?>
<!DOCTYPE svg PUBLIC "-//W3C//DTD SVG 1.1//EN"
  "http://www.w3.org/Graphics/SVG/1.1/DTD/svg11.dtd">
<!-- Created with matplotlib (https://matplotlib.org/) -->
<svg height="345.6pt" version="1.1" viewBox="0 0 460.8 345.6" width="460.8pt" xmlns="http://www.w3.org/2000/svg" xmlns:xlink="http://www.w3.org/1999/xlink">
 <defs>
  <style type="text/css">
*{stroke-linecap:butt;stroke-linejoin:round;}
  </style>
 </defs>
 <g id="figure_1">
  <g id="patch_1">
   <path d="M 0 345.6 
L 460.8 345.6 
L 460.8 0 
L 0 0 
z
" style="fill:#ffffff;"/>
  </g>
  <g id="axes_1">
   <g id="patch_2">
    <path d="M 57.6 307.584 
L 414.72 307.584 
L 414.72 41.472 
L 57.6 41.472 
z
" style="fill:#ffffff;"/>
   </g>
   <g id="matplotlib.axis_1">
    <g id="xtick_1">
     <g id="line2d_1">
      <defs>
       <path d="M 0 0 
L 0 3.5 
" id="mf8973518aa" style="stroke:#000000;stroke-width:0.8;"/>
      </defs>
      <g>
       <use style="stroke:#000000;stroke-width:0.8;" x="72.451031" xlink:href="#mf8973518aa" y="307.584"/>
      </g>
     </g>
     <g id="text_1">
      <!-- $\mathdefault{10^{2}}$ -->
      <defs>
       <path d="M 12.40625 8.296875 
L 28.515625 8.296875 
L 28.515625 63.921875 
L 10.984375 60.40625 
L 10.984375 69.390625 
L 28.421875 72.90625 
L 38.28125 72.90625 
L 38.28125 8.296875 
L 54.390625 8.296875 
L 54.390625 0 
L 12.40625 0 
z
" id="DejaVuSans-49"/>
       <path d="M 31.78125 66.40625 
Q 24.171875 66.40625 20.328125 58.90625 
Q 16.5 51.421875 16.5 36.375 
Q 16.5 21.390625 20.328125 13.890625 
Q 24.171875 6.390625 31.78125 6.390625 
Q 39.453125 6.390625 43.28125 13.890625 
Q 47.125 21.390625 47.125 36.375 
Q 47.125 51.421875 43.28125 58.90625 
Q 39.453125 66.40625 31.78125 66.40625 
z
M 31.78125 74.21875 
Q 44.046875 74.21875 50.515625 64.515625 
Q 56.984375 54.828125 56.984375 36.375 
Q 56.984375 17.96875 50.515625 8.265625 
Q 44.046875 -1.421875 31.78125 -1.421875 
Q 19.53125 -1.421875 13.0625 8.265625 
Q 6.59375 17.96875 6.59375 36.375 
Q 6.59375 54.828125 13.0625 64.515625 
Q 19.53125 74.21875 31.78125 74.21875 
z
" id="DejaVuSans-48"/>
       <path d="M 19.1875 8.296875 
L 53.609375 8.296875 
L 53.609375 0 
L 7.328125 0 
L 7.328125 8.296875 
Q 12.9375 14.109375 22.625 23.890625 
Q 32.328125 33.6875 34.8125 36.53125 
Q 39.546875 41.84375 41.421875 45.53125 
Q 43.3125 49.21875 43.3125 52.78125 
Q 43.3125 58.59375 39.234375 62.25 
Q 35.15625 65.921875 28.609375 65.921875 
Q 23.96875 65.921875 18.8125 64.3125 
Q 13.671875 62.703125 7.8125 59.421875 
L 7.8125 69.390625 
Q 13.765625 71.78125 18.9375 73 
Q 24.125 74.21875 28.421875 74.21875 
Q 39.75 74.21875 46.484375 68.546875 
Q 53.21875 62.890625 53.21875 53.421875 
Q 53.21875 48.921875 51.53125 44.890625 
Q 49.859375 40.875 45.40625 35.40625 
Q 44.1875 33.984375 37.640625 27.21875 
Q 31.109375 20.453125 19.1875 8.296875 
z
" id="DejaVuSans-50"/>
      </defs>
      <g transform="translate(63.651031 322.182437)scale(0.1 -0.1)">
       <use transform="translate(0 0.765625)" xlink:href="#DejaVuSans-49"/>
       <use transform="translate(63.623047 0.765625)" xlink:href="#DejaVuSans-48"/>
       <use transform="translate(128.203125 39.046875)scale(0.7)" xlink:href="#DejaVuSans-50"/>
      </g>
     </g>
    </g>
    <g id="xtick_2">
     <g id="line2d_2">
      <g>
       <use style="stroke:#000000;stroke-width:0.8;" x="137.65828" xlink:href="#mf8973518aa" y="307.584"/>
      </g>
     </g>
     <g id="text_2">
      <!-- $\mathdefault{10^{3}}$ -->
      <defs>
       <path d="M 40.578125 39.3125 
Q 47.65625 37.796875 51.625 33 
Q 55.609375 28.21875 55.609375 21.1875 
Q 55.609375 10.40625 48.1875 4.484375 
Q 40.765625 -1.421875 27.09375 -1.421875 
Q 22.515625 -1.421875 17.65625 -0.515625 
Q 12.796875 0.390625 7.625 2.203125 
L 7.625 11.71875 
Q 11.71875 9.328125 16.59375 8.109375 
Q 21.484375 6.890625 26.8125 6.890625 
Q 36.078125 6.890625 40.9375 10.546875 
Q 45.796875 14.203125 45.796875 21.1875 
Q 45.796875 27.640625 41.28125 31.265625 
Q 36.765625 34.90625 28.71875 34.90625 
L 20.21875 34.90625 
L 20.21875 43.015625 
L 29.109375 43.015625 
Q 36.375 43.015625 40.234375 45.921875 
Q 44.09375 48.828125 44.09375 54.296875 
Q 44.09375 59.90625 40.109375 62.90625 
Q 36.140625 65.921875 28.71875 65.921875 
Q 24.65625 65.921875 20.015625 65.03125 
Q 15.375 64.15625 9.8125 62.3125 
L 9.8125 71.09375 
Q 15.4375 72.65625 20.34375 73.4375 
Q 25.25 74.21875 29.59375 74.21875 
Q 40.828125 74.21875 47.359375 69.109375 
Q 53.90625 64.015625 53.90625 55.328125 
Q 53.90625 49.265625 50.4375 45.09375 
Q 46.96875 40.921875 40.578125 39.3125 
z
" id="DejaVuSans-51"/>
      </defs>
      <g transform="translate(128.85828 322.182437)scale(0.1 -0.1)">
       <use transform="translate(0 0.765625)" xlink:href="#DejaVuSans-49"/>
       <use transform="translate(63.623047 0.765625)" xlink:href="#DejaVuSans-48"/>
       <use transform="translate(128.203125 39.046875)scale(0.7)" xlink:href="#DejaVuSans-51"/>
      </g>
     </g>
    </g>
    <g id="xtick_3">
     <g id="line2d_3">
      <g>
       <use style="stroke:#000000;stroke-width:0.8;" x="202.865528" xlink:href="#mf8973518aa" y="307.584"/>
      </g>
     </g>
     <g id="text_3">
      <!-- $\mathdefault{10^{4}}$ -->
      <defs>
       <path d="M 37.796875 64.3125 
L 12.890625 25.390625 
L 37.796875 25.390625 
z
M 35.203125 72.90625 
L 47.609375 72.90625 
L 47.609375 25.390625 
L 58.015625 25.390625 
L 58.015625 17.1875 
L 47.609375 17.1875 
L 47.609375 0 
L 37.796875 0 
L 37.796875 17.1875 
L 4.890625 17.1875 
L 4.890625 26.703125 
z
" id="DejaVuSans-52"/>
      </defs>
      <g transform="translate(194.065528 322.182437)scale(0.1 -0.1)">
       <use transform="translate(0 0.684375)" xlink:href="#DejaVuSans-49"/>
       <use transform="translate(63.623047 0.684375)" xlink:href="#DejaVuSans-48"/>
       <use transform="translate(128.203125 38.965625)scale(0.7)" xlink:href="#DejaVuSans-52"/>
      </g>
     </g>
    </g>
    <g id="xtick_4">
     <g id="line2d_4">
      <g>
       <use style="stroke:#000000;stroke-width:0.8;" x="268.072776" xlink:href="#mf8973518aa" y="307.584"/>
      </g>
     </g>
     <g id="text_4">
      <!-- $\mathdefault{10^{5}}$ -->
      <defs>
       <path d="M 10.796875 72.90625 
L 49.515625 72.90625 
L 49.515625 64.59375 
L 19.828125 64.59375 
L 19.828125 46.734375 
Q 21.96875 47.46875 24.109375 47.828125 
Q 26.265625 48.1875 28.421875 48.1875 
Q 40.625 48.1875 47.75 41.5 
Q 54.890625 34.8125 54.890625 23.390625 
Q 54.890625 11.625 47.5625 5.09375 
Q 40.234375 -1.421875 26.90625 -1.421875 
Q 22.3125 -1.421875 17.546875 -0.640625 
Q 12.796875 0.140625 7.71875 1.703125 
L 7.71875 11.625 
Q 12.109375 9.234375 16.796875 8.0625 
Q 21.484375 6.890625 26.703125 6.890625 
Q 35.15625 6.890625 40.078125 11.328125 
Q 45.015625 15.765625 45.015625 23.390625 
Q 45.015625 31 40.078125 35.4375 
Q 35.15625 39.890625 26.703125 39.890625 
Q 22.75 39.890625 18.8125 39.015625 
Q 14.890625 38.140625 10.796875 36.28125 
z
" id="DejaVuSans-53"/>
      </defs>
      <g transform="translate(259.272776 322.182437)scale(0.1 -0.1)">
       <use transform="translate(0 0.684375)" xlink:href="#DejaVuSans-49"/>
       <use transform="translate(63.623047 0.684375)" xlink:href="#DejaVuSans-48"/>
       <use transform="translate(128.203125 38.965625)scale(0.7)" xlink:href="#DejaVuSans-53"/>
      </g>
     </g>
    </g>
    <g id="xtick_5">
     <g id="line2d_5">
      <g>
       <use style="stroke:#000000;stroke-width:0.8;" x="333.280024" xlink:href="#mf8973518aa" y="307.584"/>
      </g>
     </g>
     <g id="text_5">
      <!-- $\mathdefault{10^{6}}$ -->
      <defs>
       <path d="M 33.015625 40.375 
Q 26.375 40.375 22.484375 35.828125 
Q 18.609375 31.296875 18.609375 23.390625 
Q 18.609375 15.53125 22.484375 10.953125 
Q 26.375 6.390625 33.015625 6.390625 
Q 39.65625 6.390625 43.53125 10.953125 
Q 47.40625 15.53125 47.40625 23.390625 
Q 47.40625 31.296875 43.53125 35.828125 
Q 39.65625 40.375 33.015625 40.375 
z
M 52.59375 71.296875 
L 52.59375 62.3125 
Q 48.875 64.0625 45.09375 64.984375 
Q 41.3125 65.921875 37.59375 65.921875 
Q 27.828125 65.921875 22.671875 59.328125 
Q 17.53125 52.734375 16.796875 39.40625 
Q 19.671875 43.65625 24.015625 45.921875 
Q 28.375 48.1875 33.59375 48.1875 
Q 44.578125 48.1875 50.953125 41.515625 
Q 57.328125 34.859375 57.328125 23.390625 
Q 57.328125 12.15625 50.6875 5.359375 
Q 44.046875 -1.421875 33.015625 -1.421875 
Q 20.359375 -1.421875 13.671875 8.265625 
Q 6.984375 17.96875 6.984375 36.375 
Q 6.984375 53.65625 15.1875 63.9375 
Q 23.390625 74.21875 37.203125 74.21875 
Q 40.921875 74.21875 44.703125 73.484375 
Q 48.484375 72.75 52.59375 71.296875 
z
" id="DejaVuSans-54"/>
      </defs>
      <g transform="translate(324.480024 322.182437)scale(0.1 -0.1)">
       <use transform="translate(0 0.765625)" xlink:href="#DejaVuSans-49"/>
       <use transform="translate(63.623047 0.765625)" xlink:href="#DejaVuSans-48"/>
       <use transform="translate(128.203125 39.046875)scale(0.7)" xlink:href="#DejaVuSans-54"/>
      </g>
     </g>
    </g>
    <g id="xtick_6">
     <g id="line2d_6">
      <g>
       <use style="stroke:#000000;stroke-width:0.8;" x="398.487273" xlink:href="#mf8973518aa" y="307.584"/>
      </g>
     </g>
     <g id="text_6">
      <!-- $\mathdefault{10^{7}}$ -->
      <defs>
       <path d="M 8.203125 72.90625 
L 55.078125 72.90625 
L 55.078125 68.703125 
L 28.609375 0 
L 18.3125 0 
L 43.21875 64.59375 
L 8.203125 64.59375 
z
" id="DejaVuSans-55"/>
      </defs>
      <g transform="translate(389.687273 322.182437)scale(0.1 -0.1)">
       <use transform="translate(0 0.684375)" xlink:href="#DejaVuSans-49"/>
       <use transform="translate(63.623047 0.684375)" xlink:href="#DejaVuSans-48"/>
       <use transform="translate(128.203125 38.965625)scale(0.7)" xlink:href="#DejaVuSans-55"/>
      </g>
     </g>
    </g>
    <g id="xtick_7">
     <g id="line2d_7">
      <defs>
       <path d="M 0 0 
L 0 2 
" id="m157647a549" style="stroke:#000000;stroke-width:0.6;"/>
      </defs>
      <g>
       <use style="stroke:#000000;stroke-width:0.6;" x="57.984885" xlink:href="#m157647a549" y="307.584"/>
      </g>
     </g>
    </g>
    <g id="xtick_8">
     <g id="line2d_8">
      <g>
       <use style="stroke:#000000;stroke-width:0.6;" x="62.350301" xlink:href="#m157647a549" y="307.584"/>
      </g>
     </g>
    </g>
    <g id="xtick_9">
     <g id="line2d_9">
      <g>
       <use style="stroke:#000000;stroke-width:0.6;" x="66.131796" xlink:href="#m157647a549" y="307.584"/>
      </g>
     </g>
    </g>
    <g id="xtick_10">
     <g id="line2d_10">
      <g>
       <use style="stroke:#000000;stroke-width:0.6;" x="69.467311" xlink:href="#m157647a549" y="307.584"/>
      </g>
     </g>
    </g>
    <g id="xtick_11">
     <g id="line2d_11">
      <g>
       <use style="stroke:#000000;stroke-width:0.6;" x="92.080369" xlink:href="#m157647a549" y="307.584"/>
      </g>
     </g>
    </g>
    <g id="xtick_12">
     <g id="line2d_12">
      <g>
       <use style="stroke:#000000;stroke-width:0.6;" x="103.562795" xlink:href="#m157647a549" y="307.584"/>
      </g>
     </g>
    </g>
    <g id="xtick_13">
     <g id="line2d_13">
      <g>
       <use style="stroke:#000000;stroke-width:0.6;" x="111.709707" xlink:href="#m157647a549" y="307.584"/>
      </g>
     </g>
    </g>
    <g id="xtick_14">
     <g id="line2d_14">
      <g>
       <use style="stroke:#000000;stroke-width:0.6;" x="118.028942" xlink:href="#m157647a549" y="307.584"/>
      </g>
     </g>
    </g>
    <g id="xtick_15">
     <g id="line2d_15">
      <g>
       <use style="stroke:#000000;stroke-width:0.6;" x="123.192133" xlink:href="#m157647a549" y="307.584"/>
      </g>
     </g>
    </g>
    <g id="xtick_16">
     <g id="line2d_16">
      <g>
       <use style="stroke:#000000;stroke-width:0.6;" x="127.557549" xlink:href="#m157647a549" y="307.584"/>
      </g>
     </g>
    </g>
    <g id="xtick_17">
     <g id="line2d_17">
      <g>
       <use style="stroke:#000000;stroke-width:0.6;" x="131.339044" xlink:href="#m157647a549" y="307.584"/>
      </g>
     </g>
    </g>
    <g id="xtick_18">
     <g id="line2d_18">
      <g>
       <use style="stroke:#000000;stroke-width:0.6;" x="134.67456" xlink:href="#m157647a549" y="307.584"/>
      </g>
     </g>
    </g>
    <g id="xtick_19">
     <g id="line2d_19">
      <g>
       <use style="stroke:#000000;stroke-width:0.6;" x="157.287617" xlink:href="#m157647a549" y="307.584"/>
      </g>
     </g>
    </g>
    <g id="xtick_20">
     <g id="line2d_20">
      <g>
       <use style="stroke:#000000;stroke-width:0.6;" x="168.770044" xlink:href="#m157647a549" y="307.584"/>
      </g>
     </g>
    </g>
    <g id="xtick_21">
     <g id="line2d_21">
      <g>
       <use style="stroke:#000000;stroke-width:0.6;" x="176.916955" xlink:href="#m157647a549" y="307.584"/>
      </g>
     </g>
    </g>
    <g id="xtick_22">
     <g id="line2d_22">
      <g>
       <use style="stroke:#000000;stroke-width:0.6;" x="183.23619" xlink:href="#m157647a549" y="307.584"/>
      </g>
     </g>
    </g>
    <g id="xtick_23">
     <g id="line2d_23">
      <g>
       <use style="stroke:#000000;stroke-width:0.6;" x="188.399381" xlink:href="#m157647a549" y="307.584"/>
      </g>
     </g>
    </g>
    <g id="xtick_24">
     <g id="line2d_24">
      <g>
       <use style="stroke:#000000;stroke-width:0.6;" x="192.764797" xlink:href="#m157647a549" y="307.584"/>
      </g>
     </g>
    </g>
    <g id="xtick_25">
     <g id="line2d_25">
      <g>
       <use style="stroke:#000000;stroke-width:0.6;" x="196.546293" xlink:href="#m157647a549" y="307.584"/>
      </g>
     </g>
    </g>
    <g id="xtick_26">
     <g id="line2d_26">
      <g>
       <use style="stroke:#000000;stroke-width:0.6;" x="199.881808" xlink:href="#m157647a549" y="307.584"/>
      </g>
     </g>
    </g>
    <g id="xtick_27">
     <g id="line2d_27">
      <g>
       <use style="stroke:#000000;stroke-width:0.6;" x="222.494866" xlink:href="#m157647a549" y="307.584"/>
      </g>
     </g>
    </g>
    <g id="xtick_28">
     <g id="line2d_28">
      <g>
       <use style="stroke:#000000;stroke-width:0.6;" x="233.977292" xlink:href="#m157647a549" y="307.584"/>
      </g>
     </g>
    </g>
    <g id="xtick_29">
     <g id="line2d_29">
      <g>
       <use style="stroke:#000000;stroke-width:0.6;" x="242.124203" xlink:href="#m157647a549" y="307.584"/>
      </g>
     </g>
    </g>
    <g id="xtick_30">
     <g id="line2d_30">
      <g>
       <use style="stroke:#000000;stroke-width:0.6;" x="248.443439" xlink:href="#m157647a549" y="307.584"/>
      </g>
     </g>
    </g>
    <g id="xtick_31">
     <g id="line2d_31">
      <g>
       <use style="stroke:#000000;stroke-width:0.6;" x="253.60663" xlink:href="#m157647a549" y="307.584"/>
      </g>
     </g>
    </g>
    <g id="xtick_32">
     <g id="line2d_32">
      <g>
       <use style="stroke:#000000;stroke-width:0.6;" x="257.972046" xlink:href="#m157647a549" y="307.584"/>
      </g>
     </g>
    </g>
    <g id="xtick_33">
     <g id="line2d_33">
      <g>
       <use style="stroke:#000000;stroke-width:0.6;" x="261.753541" xlink:href="#m157647a549" y="307.584"/>
      </g>
     </g>
    </g>
    <g id="xtick_34">
     <g id="line2d_34">
      <g>
       <use style="stroke:#000000;stroke-width:0.6;" x="265.089056" xlink:href="#m157647a549" y="307.584"/>
      </g>
     </g>
    </g>
    <g id="xtick_35">
     <g id="line2d_35">
      <g>
       <use style="stroke:#000000;stroke-width:0.6;" x="287.702114" xlink:href="#m157647a549" y="307.584"/>
      </g>
     </g>
    </g>
    <g id="xtick_36">
     <g id="line2d_36">
      <g>
       <use style="stroke:#000000;stroke-width:0.6;" x="299.18454" xlink:href="#m157647a549" y="307.584"/>
      </g>
     </g>
    </g>
    <g id="xtick_37">
     <g id="line2d_37">
      <g>
       <use style="stroke:#000000;stroke-width:0.6;" x="307.331452" xlink:href="#m157647a549" y="307.584"/>
      </g>
     </g>
    </g>
    <g id="xtick_38">
     <g id="line2d_38">
      <g>
       <use style="stroke:#000000;stroke-width:0.6;" x="313.650687" xlink:href="#m157647a549" y="307.584"/>
      </g>
     </g>
    </g>
    <g id="xtick_39">
     <g id="line2d_39">
      <g>
       <use style="stroke:#000000;stroke-width:0.6;" x="318.813878" xlink:href="#m157647a549" y="307.584"/>
      </g>
     </g>
    </g>
    <g id="xtick_40">
     <g id="line2d_40">
      <g>
       <use style="stroke:#000000;stroke-width:0.6;" x="323.179294" xlink:href="#m157647a549" y="307.584"/>
      </g>
     </g>
    </g>
    <g id="xtick_41">
     <g id="line2d_41">
      <g>
       <use style="stroke:#000000;stroke-width:0.6;" x="326.960789" xlink:href="#m157647a549" y="307.584"/>
      </g>
     </g>
    </g>
    <g id="xtick_42">
     <g id="line2d_42">
      <g>
       <use style="stroke:#000000;stroke-width:0.6;" x="330.296304" xlink:href="#m157647a549" y="307.584"/>
      </g>
     </g>
    </g>
    <g id="xtick_43">
     <g id="line2d_43">
      <g>
       <use style="stroke:#000000;stroke-width:0.6;" x="352.909362" xlink:href="#m157647a549" y="307.584"/>
      </g>
     </g>
    </g>
    <g id="xtick_44">
     <g id="line2d_44">
      <g>
       <use style="stroke:#000000;stroke-width:0.6;" x="364.391789" xlink:href="#m157647a549" y="307.584"/>
      </g>
     </g>
    </g>
    <g id="xtick_45">
     <g id="line2d_45">
      <g>
       <use style="stroke:#000000;stroke-width:0.6;" x="372.5387" xlink:href="#m157647a549" y="307.584"/>
      </g>
     </g>
    </g>
    <g id="xtick_46">
     <g id="line2d_46">
      <g>
       <use style="stroke:#000000;stroke-width:0.6;" x="378.857935" xlink:href="#m157647a549" y="307.584"/>
      </g>
     </g>
    </g>
    <g id="xtick_47">
     <g id="line2d_47">
      <g>
       <use style="stroke:#000000;stroke-width:0.6;" x="384.021126" xlink:href="#m157647a549" y="307.584"/>
      </g>
     </g>
    </g>
    <g id="xtick_48">
     <g id="line2d_48">
      <g>
       <use style="stroke:#000000;stroke-width:0.6;" x="388.386542" xlink:href="#m157647a549" y="307.584"/>
      </g>
     </g>
    </g>
    <g id="xtick_49">
     <g id="line2d_49">
      <g>
       <use style="stroke:#000000;stroke-width:0.6;" x="392.168037" xlink:href="#m157647a549" y="307.584"/>
      </g>
     </g>
    </g>
    <g id="xtick_50">
     <g id="line2d_50">
      <g>
       <use style="stroke:#000000;stroke-width:0.6;" x="395.503553" xlink:href="#m157647a549" y="307.584"/>
      </g>
     </g>
    </g>
    <g id="text_7">
     <!-- Number of elements -->
     <defs>
      <path d="M 9.8125 72.90625 
L 23.09375 72.90625 
L 55.421875 11.921875 
L 55.421875 72.90625 
L 64.984375 72.90625 
L 64.984375 0 
L 51.703125 0 
L 19.390625 60.984375 
L 19.390625 0 
L 9.8125 0 
z
" id="DejaVuSans-78"/>
      <path d="M 8.5 21.578125 
L 8.5 54.6875 
L 17.484375 54.6875 
L 17.484375 21.921875 
Q 17.484375 14.15625 20.5 10.265625 
Q 23.53125 6.390625 29.59375 6.390625 
Q 36.859375 6.390625 41.078125 11.03125 
Q 45.3125 15.671875 45.3125 23.6875 
L 45.3125 54.6875 
L 54.296875 54.6875 
L 54.296875 0 
L 45.3125 0 
L 45.3125 8.40625 
Q 42.046875 3.421875 37.71875 1 
Q 33.40625 -1.421875 27.6875 -1.421875 
Q 18.265625 -1.421875 13.375 4.4375 
Q 8.5 10.296875 8.5 21.578125 
z
M 31.109375 56 
z
" id="DejaVuSans-117"/>
      <path d="M 52 44.1875 
Q 55.375 50.25 60.0625 53.125 
Q 64.75 56 71.09375 56 
Q 79.640625 56 84.28125 50.015625 
Q 88.921875 44.046875 88.921875 33.015625 
L 88.921875 0 
L 79.890625 0 
L 79.890625 32.71875 
Q 79.890625 40.578125 77.09375 44.375 
Q 74.3125 48.1875 68.609375 48.1875 
Q 61.625 48.1875 57.5625 43.546875 
Q 53.515625 38.921875 53.515625 30.90625 
L 53.515625 0 
L 44.484375 0 
L 44.484375 32.71875 
Q 44.484375 40.625 41.703125 44.40625 
Q 38.921875 48.1875 33.109375 48.1875 
Q 26.21875 48.1875 22.15625 43.53125 
Q 18.109375 38.875 18.109375 30.90625 
L 18.109375 0 
L 9.078125 0 
L 9.078125 54.6875 
L 18.109375 54.6875 
L 18.109375 46.1875 
Q 21.1875 51.21875 25.484375 53.609375 
Q 29.78125 56 35.6875 56 
Q 41.65625 56 45.828125 52.96875 
Q 50 49.953125 52 44.1875 
z
" id="DejaVuSans-109"/>
      <path d="M 48.6875 27.296875 
Q 48.6875 37.203125 44.609375 42.84375 
Q 40.53125 48.484375 33.40625 48.484375 
Q 26.265625 48.484375 22.1875 42.84375 
Q 18.109375 37.203125 18.109375 27.296875 
Q 18.109375 17.390625 22.1875 11.75 
Q 26.265625 6.109375 33.40625 6.109375 
Q 40.53125 6.109375 44.609375 11.75 
Q 48.6875 17.390625 48.6875 27.296875 
z
M 18.109375 46.390625 
Q 20.953125 51.265625 25.265625 53.625 
Q 29.59375 56 35.59375 56 
Q 45.5625 56 51.78125 48.09375 
Q 58.015625 40.1875 58.015625 27.296875 
Q 58.015625 14.40625 51.78125 6.484375 
Q 45.5625 -1.421875 35.59375 -1.421875 
Q 29.59375 -1.421875 25.265625 0.953125 
Q 20.953125 3.328125 18.109375 8.203125 
L 18.109375 0 
L 9.078125 0 
L 9.078125 75.984375 
L 18.109375 75.984375 
z
" id="DejaVuSans-98"/>
      <path d="M 56.203125 29.59375 
L 56.203125 25.203125 
L 14.890625 25.203125 
Q 15.484375 15.921875 20.484375 11.0625 
Q 25.484375 6.203125 34.421875 6.203125 
Q 39.59375 6.203125 44.453125 7.46875 
Q 49.3125 8.734375 54.109375 11.28125 
L 54.109375 2.78125 
Q 49.265625 0.734375 44.1875 -0.34375 
Q 39.109375 -1.421875 33.890625 -1.421875 
Q 20.796875 -1.421875 13.15625 6.1875 
Q 5.515625 13.8125 5.515625 26.8125 
Q 5.515625 40.234375 12.765625 48.109375 
Q 20.015625 56 32.328125 56 
Q 43.359375 56 49.78125 48.890625 
Q 56.203125 41.796875 56.203125 29.59375 
z
M 47.21875 32.234375 
Q 47.125 39.59375 43.09375 43.984375 
Q 39.0625 48.390625 32.421875 48.390625 
Q 24.90625 48.390625 20.390625 44.140625 
Q 15.875 39.890625 15.1875 32.171875 
z
" id="DejaVuSans-101"/>
      <path d="M 41.109375 46.296875 
Q 39.59375 47.171875 37.8125 47.578125 
Q 36.03125 48 33.890625 48 
Q 26.265625 48 22.1875 43.046875 
Q 18.109375 38.09375 18.109375 28.8125 
L 18.109375 0 
L 9.078125 0 
L 9.078125 54.6875 
L 18.109375 54.6875 
L 18.109375 46.1875 
Q 20.953125 51.171875 25.484375 53.578125 
Q 30.03125 56 36.53125 56 
Q 37.453125 56 38.578125 55.875 
Q 39.703125 55.765625 41.0625 55.515625 
z
" id="DejaVuSans-114"/>
      <path id="DejaVuSans-32"/>
      <path d="M 30.609375 48.390625 
Q 23.390625 48.390625 19.1875 42.75 
Q 14.984375 37.109375 14.984375 27.296875 
Q 14.984375 17.484375 19.15625 11.84375 
Q 23.34375 6.203125 30.609375 6.203125 
Q 37.796875 6.203125 41.984375 11.859375 
Q 46.1875 17.53125 46.1875 27.296875 
Q 46.1875 37.015625 41.984375 42.703125 
Q 37.796875 48.390625 30.609375 48.390625 
z
M 30.609375 56 
Q 42.328125 56 49.015625 48.375 
Q 55.71875 40.765625 55.71875 27.296875 
Q 55.71875 13.875 49.015625 6.21875 
Q 42.328125 -1.421875 30.609375 -1.421875 
Q 18.84375 -1.421875 12.171875 6.21875 
Q 5.515625 13.875 5.515625 27.296875 
Q 5.515625 40.765625 12.171875 48.375 
Q 18.84375 56 30.609375 56 
z
" id="DejaVuSans-111"/>
      <path d="M 37.109375 75.984375 
L 37.109375 68.5 
L 28.515625 68.5 
Q 23.6875 68.5 21.796875 66.546875 
Q 19.921875 64.59375 19.921875 59.515625 
L 19.921875 54.6875 
L 34.71875 54.6875 
L 34.71875 47.703125 
L 19.921875 47.703125 
L 19.921875 0 
L 10.890625 0 
L 10.890625 47.703125 
L 2.296875 47.703125 
L 2.296875 54.6875 
L 10.890625 54.6875 
L 10.890625 58.5 
Q 10.890625 67.625 15.140625 71.796875 
Q 19.390625 75.984375 28.609375 75.984375 
z
" id="DejaVuSans-102"/>
      <path d="M 9.421875 75.984375 
L 18.40625 75.984375 
L 18.40625 0 
L 9.421875 0 
z
" id="DejaVuSans-108"/>
      <path d="M 54.890625 33.015625 
L 54.890625 0 
L 45.90625 0 
L 45.90625 32.71875 
Q 45.90625 40.484375 42.875 44.328125 
Q 39.84375 48.1875 33.796875 48.1875 
Q 26.515625 48.1875 22.3125 43.546875 
Q 18.109375 38.921875 18.109375 30.90625 
L 18.109375 0 
L 9.078125 0 
L 9.078125 54.6875 
L 18.109375 54.6875 
L 18.109375 46.1875 
Q 21.34375 51.125 25.703125 53.5625 
Q 30.078125 56 35.796875 56 
Q 45.21875 56 50.046875 50.171875 
Q 54.890625 44.34375 54.890625 33.015625 
z
" id="DejaVuSans-110"/>
      <path d="M 18.3125 70.21875 
L 18.3125 54.6875 
L 36.8125 54.6875 
L 36.8125 47.703125 
L 18.3125 47.703125 
L 18.3125 18.015625 
Q 18.3125 11.328125 20.140625 9.421875 
Q 21.96875 7.515625 27.59375 7.515625 
L 36.8125 7.515625 
L 36.8125 0 
L 27.59375 0 
Q 17.1875 0 13.234375 3.875 
Q 9.28125 7.765625 9.28125 18.015625 
L 9.28125 47.703125 
L 2.6875 47.703125 
L 2.6875 54.6875 
L 9.28125 54.6875 
L 9.28125 70.21875 
z
" id="DejaVuSans-116"/>
      <path d="M 44.28125 53.078125 
L 44.28125 44.578125 
Q 40.484375 46.53125 36.375 47.5 
Q 32.28125 48.484375 27.875 48.484375 
Q 21.1875 48.484375 17.84375 46.4375 
Q 14.5 44.390625 14.5 40.28125 
Q 14.5 37.15625 16.890625 35.375 
Q 19.28125 33.59375 26.515625 31.984375 
L 29.59375 31.296875 
Q 39.15625 29.25 43.1875 25.515625 
Q 47.21875 21.78125 47.21875 15.09375 
Q 47.21875 7.46875 41.1875 3.015625 
Q 35.15625 -1.421875 24.609375 -1.421875 
Q 20.21875 -1.421875 15.453125 -0.5625 
Q 10.6875 0.296875 5.421875 2 
L 5.421875 11.28125 
Q 10.40625 8.6875 15.234375 7.390625 
Q 20.0625 6.109375 24.8125 6.109375 
Q 31.15625 6.109375 34.5625 8.28125 
Q 37.984375 10.453125 37.984375 14.40625 
Q 37.984375 18.0625 35.515625 20.015625 
Q 33.0625 21.96875 24.703125 23.78125 
L 21.578125 24.515625 
Q 13.234375 26.265625 9.515625 29.90625 
Q 5.8125 33.546875 5.8125 39.890625 
Q 5.8125 47.609375 11.28125 51.796875 
Q 16.75 56 26.8125 56 
Q 31.78125 56 36.171875 55.265625 
Q 40.578125 54.546875 44.28125 53.078125 
z
" id="DejaVuSans-115"/>
     </defs>
     <g transform="translate(184.85375 335.860562)scale(0.1 -0.1)">
      <use xlink:href="#DejaVuSans-78"/>
      <use x="74.804688" xlink:href="#DejaVuSans-117"/>
      <use x="138.183594" xlink:href="#DejaVuSans-109"/>
      <use x="235.595703" xlink:href="#DejaVuSans-98"/>
      <use x="299.072266" xlink:href="#DejaVuSans-101"/>
      <use x="360.595703" xlink:href="#DejaVuSans-114"/>
      <use x="401.708984" xlink:href="#DejaVuSans-32"/>
      <use x="433.496094" xlink:href="#DejaVuSans-111"/>
      <use x="494.677734" xlink:href="#DejaVuSans-102"/>
      <use x="529.882812" xlink:href="#DejaVuSans-32"/>
      <use x="561.669922" xlink:href="#DejaVuSans-101"/>
      <use x="623.193359" xlink:href="#DejaVuSans-108"/>
      <use x="650.976562" xlink:href="#DejaVuSans-101"/>
      <use x="712.5" xlink:href="#DejaVuSans-109"/>
      <use x="809.912109" xlink:href="#DejaVuSans-101"/>
      <use x="871.435547" xlink:href="#DejaVuSans-110"/>
      <use x="934.814453" xlink:href="#DejaVuSans-116"/>
      <use x="974.023438" xlink:href="#DejaVuSans-115"/>
     </g>
    </g>
   </g>
   <g id="matplotlib.axis_2">
    <g id="ytick_1">
     <g id="line2d_51">
      <defs>
       <path d="M 0 0 
L -3.5 0 
" id="mfb53a3997a" style="stroke:#000000;stroke-width:0.8;"/>
      </defs>
      <g>
       <use style="stroke:#000000;stroke-width:0.8;" x="57.6" xlink:href="#mfb53a3997a" y="279.59427"/>
      </g>
     </g>
     <g id="text_8">
      <!-- $\mathdefault{10^{-3}}$ -->
      <defs>
       <path d="M 10.59375 35.5 
L 73.1875 35.5 
L 73.1875 27.203125 
L 10.59375 27.203125 
z
" id="DejaVuSans-8722"/>
      </defs>
      <g transform="translate(27.1 283.393488)scale(0.1 -0.1)">
       <use transform="translate(0 0.765625)" xlink:href="#DejaVuSans-49"/>
       <use transform="translate(63.623047 0.765625)" xlink:href="#DejaVuSans-48"/>
       <use transform="translate(128.203125 39.046875)scale(0.7)" xlink:href="#DejaVuSans-8722"/>
       <use transform="translate(186.855469 39.046875)scale(0.7)" xlink:href="#DejaVuSans-51"/>
      </g>
     </g>
    </g>
    <g id="ytick_2">
     <g id="line2d_52">
      <g>
       <use style="stroke:#000000;stroke-width:0.8;" x="57.6" xlink:href="#mfb53a3997a" y="226.79644"/>
      </g>
     </g>
     <g id="text_9">
      <!-- $\mathdefault{10^{-2}}$ -->
      <g transform="translate(27.1 230.595658)scale(0.1 -0.1)">
       <use transform="translate(0 0.765625)" xlink:href="#DejaVuSans-49"/>
       <use transform="translate(63.623047 0.765625)" xlink:href="#DejaVuSans-48"/>
       <use transform="translate(128.203125 39.046875)scale(0.7)" xlink:href="#DejaVuSans-8722"/>
       <use transform="translate(186.855469 39.046875)scale(0.7)" xlink:href="#DejaVuSans-50"/>
      </g>
     </g>
    </g>
    <g id="ytick_3">
     <g id="line2d_53">
      <g>
       <use style="stroke:#000000;stroke-width:0.8;" x="57.6" xlink:href="#mfb53a3997a" y="173.99861"/>
      </g>
     </g>
     <g id="text_10">
      <!-- $\mathdefault{10^{-1}}$ -->
      <g transform="translate(27.1 177.797829)scale(0.1 -0.1)">
       <use transform="translate(0 0.684375)" xlink:href="#DejaVuSans-49"/>
       <use transform="translate(63.623047 0.684375)" xlink:href="#DejaVuSans-48"/>
       <use transform="translate(128.203125 38.965625)scale(0.7)" xlink:href="#DejaVuSans-8722"/>
       <use transform="translate(186.855469 38.965625)scale(0.7)" xlink:href="#DejaVuSans-49"/>
      </g>
     </g>
    </g>
    <g id="ytick_4">
     <g id="line2d_54">
      <g>
       <use style="stroke:#000000;stroke-width:0.8;" x="57.6" xlink:href="#mfb53a3997a" y="121.20078"/>
      </g>
     </g>
     <g id="text_11">
      <!-- $\mathdefault{10^{0}}$ -->
      <g transform="translate(33 124.999999)scale(0.1 -0.1)">
       <use transform="translate(0 0.765625)" xlink:href="#DejaVuSans-49"/>
       <use transform="translate(63.623047 0.765625)" xlink:href="#DejaVuSans-48"/>
       <use transform="translate(128.203125 39.046875)scale(0.7)" xlink:href="#DejaVuSans-48"/>
      </g>
     </g>
    </g>
    <g id="ytick_5">
     <g id="line2d_55">
      <g>
       <use style="stroke:#000000;stroke-width:0.8;" x="57.6" xlink:href="#mfb53a3997a" y="68.40295"/>
      </g>
     </g>
     <g id="text_12">
      <!-- $\mathdefault{10^{1}}$ -->
      <g transform="translate(33 72.202169)scale(0.1 -0.1)">
       <use transform="translate(0 0.684375)" xlink:href="#DejaVuSans-49"/>
       <use transform="translate(63.623047 0.684375)" xlink:href="#DejaVuSans-48"/>
       <use transform="translate(128.203125 38.965625)scale(0.7)" xlink:href="#DejaVuSans-49"/>
      </g>
     </g>
    </g>
    <g id="ytick_6">
     <g id="line2d_56">
      <defs>
       <path d="M 0 0 
L -2 0 
" id="m98af63bfe7" style="stroke:#000000;stroke-width:0.6;"/>
      </defs>
      <g>
       <use style="stroke:#000000;stroke-width:0.6;" x="57.6" xlink:href="#m98af63bfe7" y="307.201133"/>
      </g>
     </g>
    </g>
    <g id="ytick_7">
     <g id="line2d_57">
      <g>
       <use style="stroke:#000000;stroke-width:0.6;" x="57.6" xlink:href="#m98af63bfe7" y="300.604638"/>
      </g>
     </g>
    </g>
    <g id="ytick_8">
     <g id="line2d_58">
      <g>
       <use style="stroke:#000000;stroke-width:0.6;" x="57.6" xlink:href="#m98af63bfe7" y="295.488"/>
      </g>
     </g>
    </g>
    <g id="ytick_9">
     <g id="line2d_59">
      <g>
       <use style="stroke:#000000;stroke-width:0.6;" x="57.6" xlink:href="#m98af63bfe7" y="291.307402"/>
      </g>
     </g>
    </g>
    <g id="ytick_10">
     <g id="line2d_60">
      <g>
       <use style="stroke:#000000;stroke-width:0.6;" x="57.6" xlink:href="#m98af63bfe7" y="287.772757"/>
      </g>
     </g>
    </g>
    <g id="ytick_11">
     <g id="line2d_61">
      <g>
       <use style="stroke:#000000;stroke-width:0.6;" x="57.6" xlink:href="#m98af63bfe7" y="284.710908"/>
      </g>
     </g>
    </g>
    <g id="ytick_12">
     <g id="line2d_62">
      <g>
       <use style="stroke:#000000;stroke-width:0.6;" x="57.6" xlink:href="#m98af63bfe7" y="282.010166"/>
      </g>
     </g>
    </g>
    <g id="ytick_13">
     <g id="line2d_63">
      <g>
       <use style="stroke:#000000;stroke-width:0.6;" x="57.6" xlink:href="#m98af63bfe7" y="263.700539"/>
      </g>
     </g>
    </g>
    <g id="ytick_14">
     <g id="line2d_64">
      <g>
       <use style="stroke:#000000;stroke-width:0.6;" x="57.6" xlink:href="#m98af63bfe7" y="254.403303"/>
      </g>
     </g>
    </g>
    <g id="ytick_15">
     <g id="line2d_65">
      <g>
       <use style="stroke:#000000;stroke-width:0.6;" x="57.6" xlink:href="#m98af63bfe7" y="247.806809"/>
      </g>
     </g>
    </g>
    <g id="ytick_16">
     <g id="line2d_66">
      <g>
       <use style="stroke:#000000;stroke-width:0.6;" x="57.6" xlink:href="#m98af63bfe7" y="242.69017"/>
      </g>
     </g>
    </g>
    <g id="ytick_17">
     <g id="line2d_67">
      <g>
       <use style="stroke:#000000;stroke-width:0.6;" x="57.6" xlink:href="#m98af63bfe7" y="238.509572"/>
      </g>
     </g>
    </g>
    <g id="ytick_18">
     <g id="line2d_68">
      <g>
       <use style="stroke:#000000;stroke-width:0.6;" x="57.6" xlink:href="#m98af63bfe7" y="234.974927"/>
      </g>
     </g>
    </g>
    <g id="ytick_19">
     <g id="line2d_69">
      <g>
       <use style="stroke:#000000;stroke-width:0.6;" x="57.6" xlink:href="#m98af63bfe7" y="231.913078"/>
      </g>
     </g>
    </g>
    <g id="ytick_20">
     <g id="line2d_70">
      <g>
       <use style="stroke:#000000;stroke-width:0.6;" x="57.6" xlink:href="#m98af63bfe7" y="229.212336"/>
      </g>
     </g>
    </g>
    <g id="ytick_21">
     <g id="line2d_71">
      <g>
       <use style="stroke:#000000;stroke-width:0.6;" x="57.6" xlink:href="#m98af63bfe7" y="210.902709"/>
      </g>
     </g>
    </g>
    <g id="ytick_22">
     <g id="line2d_72">
      <g>
       <use style="stroke:#000000;stroke-width:0.6;" x="57.6" xlink:href="#m98af63bfe7" y="201.605473"/>
      </g>
     </g>
    </g>
    <g id="ytick_23">
     <g id="line2d_73">
      <g>
       <use style="stroke:#000000;stroke-width:0.6;" x="57.6" xlink:href="#m98af63bfe7" y="195.008979"/>
      </g>
     </g>
    </g>
    <g id="ytick_24">
     <g id="line2d_74">
      <g>
       <use style="stroke:#000000;stroke-width:0.6;" x="57.6" xlink:href="#m98af63bfe7" y="189.89234"/>
      </g>
     </g>
    </g>
    <g id="ytick_25">
     <g id="line2d_75">
      <g>
       <use style="stroke:#000000;stroke-width:0.6;" x="57.6" xlink:href="#m98af63bfe7" y="185.711742"/>
      </g>
     </g>
    </g>
    <g id="ytick_26">
     <g id="line2d_76">
      <g>
       <use style="stroke:#000000;stroke-width:0.6;" x="57.6" xlink:href="#m98af63bfe7" y="182.177097"/>
      </g>
     </g>
    </g>
    <g id="ytick_27">
     <g id="line2d_77">
      <g>
       <use style="stroke:#000000;stroke-width:0.6;" x="57.6" xlink:href="#m98af63bfe7" y="179.115248"/>
      </g>
     </g>
    </g>
    <g id="ytick_28">
     <g id="line2d_78">
      <g>
       <use style="stroke:#000000;stroke-width:0.6;" x="57.6" xlink:href="#m98af63bfe7" y="176.414506"/>
      </g>
     </g>
    </g>
    <g id="ytick_29">
     <g id="line2d_79">
      <g>
       <use style="stroke:#000000;stroke-width:0.6;" x="57.6" xlink:href="#m98af63bfe7" y="158.104879"/>
      </g>
     </g>
    </g>
    <g id="ytick_30">
     <g id="line2d_80">
      <g>
       <use style="stroke:#000000;stroke-width:0.6;" x="57.6" xlink:href="#m98af63bfe7" y="148.807643"/>
      </g>
     </g>
    </g>
    <g id="ytick_31">
     <g id="line2d_81">
      <g>
       <use style="stroke:#000000;stroke-width:0.6;" x="57.6" xlink:href="#m98af63bfe7" y="142.211149"/>
      </g>
     </g>
    </g>
    <g id="ytick_32">
     <g id="line2d_82">
      <g>
       <use style="stroke:#000000;stroke-width:0.6;" x="57.6" xlink:href="#m98af63bfe7" y="137.094511"/>
      </g>
     </g>
    </g>
    <g id="ytick_33">
     <g id="line2d_83">
      <g>
       <use style="stroke:#000000;stroke-width:0.6;" x="57.6" xlink:href="#m98af63bfe7" y="132.913913"/>
      </g>
     </g>
    </g>
    <g id="ytick_34">
     <g id="line2d_84">
      <g>
       <use style="stroke:#000000;stroke-width:0.6;" x="57.6" xlink:href="#m98af63bfe7" y="129.379268"/>
      </g>
     </g>
    </g>
    <g id="ytick_35">
     <g id="line2d_85">
      <g>
       <use style="stroke:#000000;stroke-width:0.6;" x="57.6" xlink:href="#m98af63bfe7" y="126.317419"/>
      </g>
     </g>
    </g>
    <g id="ytick_36">
     <g id="line2d_86">
      <g>
       <use style="stroke:#000000;stroke-width:0.6;" x="57.6" xlink:href="#m98af63bfe7" y="123.616676"/>
      </g>
     </g>
    </g>
    <g id="ytick_37">
     <g id="line2d_87">
      <g>
       <use style="stroke:#000000;stroke-width:0.6;" x="57.6" xlink:href="#m98af63bfe7" y="105.30705"/>
      </g>
     </g>
    </g>
    <g id="ytick_38">
     <g id="line2d_88">
      <g>
       <use style="stroke:#000000;stroke-width:0.6;" x="57.6" xlink:href="#m98af63bfe7" y="96.009813"/>
      </g>
     </g>
    </g>
    <g id="ytick_39">
     <g id="line2d_89">
      <g>
       <use style="stroke:#000000;stroke-width:0.6;" x="57.6" xlink:href="#m98af63bfe7" y="89.413319"/>
      </g>
     </g>
    </g>
    <g id="ytick_40">
     <g id="line2d_90">
      <g>
       <use style="stroke:#000000;stroke-width:0.6;" x="57.6" xlink:href="#m98af63bfe7" y="84.296681"/>
      </g>
     </g>
    </g>
    <g id="ytick_41">
     <g id="line2d_91">
      <g>
       <use style="stroke:#000000;stroke-width:0.6;" x="57.6" xlink:href="#m98af63bfe7" y="80.116083"/>
      </g>
     </g>
    </g>
    <g id="ytick_42">
     <g id="line2d_92">
      <g>
       <use style="stroke:#000000;stroke-width:0.6;" x="57.6" xlink:href="#m98af63bfe7" y="76.581438"/>
      </g>
     </g>
    </g>
    <g id="ytick_43">
     <g id="line2d_93">
      <g>
       <use style="stroke:#000000;stroke-width:0.6;" x="57.6" xlink:href="#m98af63bfe7" y="73.519589"/>
      </g>
     </g>
    </g>
    <g id="ytick_44">
     <g id="line2d_94">
      <g>
       <use style="stroke:#000000;stroke-width:0.6;" x="57.6" xlink:href="#m98af63bfe7" y="70.818847"/>
      </g>
     </g>
    </g>
    <g id="ytick_45">
     <g id="line2d_95">
      <g>
       <use style="stroke:#000000;stroke-width:0.6;" x="57.6" xlink:href="#m98af63bfe7" y="52.50922"/>
      </g>
     </g>
    </g>
    <g id="ytick_46">
     <g id="line2d_96">
      <g>
       <use style="stroke:#000000;stroke-width:0.6;" x="57.6" xlink:href="#m98af63bfe7" y="43.211984"/>
      </g>
     </g>
    </g>
    <g id="text_13">
     <!-- Elements / ns -->
     <defs>
      <path d="M 9.8125 72.90625 
L 55.90625 72.90625 
L 55.90625 64.59375 
L 19.671875 64.59375 
L 19.671875 43.015625 
L 54.390625 43.015625 
L 54.390625 34.71875 
L 19.671875 34.71875 
L 19.671875 8.296875 
L 56.78125 8.296875 
L 56.78125 0 
L 9.8125 0 
z
" id="DejaVuSans-69"/>
      <path d="M 25.390625 72.90625 
L 33.6875 72.90625 
L 8.296875 -9.28125 
L 0 -9.28125 
z
" id="DejaVuSans-47"/>
     </defs>
     <g transform="translate(21.020312 208.469406)rotate(-90)scale(0.1 -0.1)">
      <use xlink:href="#DejaVuSans-69"/>
      <use x="63.183594" xlink:href="#DejaVuSans-108"/>
      <use x="90.966797" xlink:href="#DejaVuSans-101"/>
      <use x="152.490234" xlink:href="#DejaVuSans-109"/>
      <use x="249.902344" xlink:href="#DejaVuSans-101"/>
      <use x="311.425781" xlink:href="#DejaVuSans-110"/>
      <use x="374.804688" xlink:href="#DejaVuSans-116"/>
      <use x="414.013672" xlink:href="#DejaVuSans-115"/>
      <use x="466.113281" xlink:href="#DejaVuSans-32"/>
      <use x="497.900391" xlink:href="#DejaVuSans-47"/>
      <use x="531.591797" xlink:href="#DejaVuSans-32"/>
      <use x="563.378906" xlink:href="#DejaVuSans-110"/>
      <use x="626.757812" xlink:href="#DejaVuSans-115"/>
     </g>
    </g>
   </g>
   <g id="line2d_97">
    <path clip-path="url(#pd742c2656c)" d="M 73.832727 275.413672 
L 75.660403 277.408826 
L 77.138259 275.413672 
L 78.995918 271.879026 
L 80.527056 271.879026 
L 82.181199 270.297033 
L 83.744031 270.297033 
L 85.404913 267.427067 
L 90.32811 263.700539 
L 92.080369 261.515095 
L 95.289741 261.515095 
L 97.006579 257.684577 
L 98.625256 256.819199 
L 100.262657 257.684577 
L 101.910782 253.651438 
L 103.562795 252.923447 
L 106.856325 250.222705 
L 108.489005 253.651438 
L 110.107683 247.240612 
L 111.709707 245.621365 
L 113.359833 247.240612 
L 115.045222 242.69017 
L 118.310727 240.925468 
L 119.944977 240.925468 
L 121.590109 237.757708 
L 123.239292 237.390823 
L 124.842259 237.390823 
L 126.485663 234.012696 
L 129.774455 233.392934 
L 131.409754 229.468538 
L 133.055882 229.727634 
L 134.706008 227.494863 
L 136.324685 227.026892 
L 137.968089 225.897116 
L 139.600769 222.615842 
L 141.244408 223.791987 
L 142.89218 223.196374 
L 144.538308 218.755946 
L 146.156986 218.118966 
L 147.807112 217.045133 
L 149.441177 217.499203 
L 151.092008 214.095961 
L 152.718517 213.065235 
L 154.366759 213.19157 
L 155.998515 210.113891 
L 157.639413 209.35131 
L 159.282941 209.458709 
L 160.911148 206.155915 
L 162.556807 205.603362 
L 164.189849 205.422098 
L 165.828247 202.462034 
L 167.476001 202.382829 
L 169.107851 198.870786 
L 170.747767 199.35065 
L 172.389421 198.400759 
L 174.027475 194.837647 
L 175.664876 196.124862 
L 177.303691 194.054602 
L 178.94525 190.828381 
L 182.221389 193.457579 
L 183.857999 186.928151 
L 185.494217 186.136024 
L 187.134967 186.767521 
L 188.774475 184.739044 
L 190.412295 182.275579 
L 192.051968 180.964948 
L 193.688157 180.902891 
L 195.327493 178.160871 
L 196.964438 177.590651 
L 198.604229 177.75213 
L 200.241371 174.345163 
L 201.880064 172.619292 
L 203.520562 174.252235 
L 205.157527 171.01428 
L 206.796366 168.284477 
L 208.434072 170.242293 
L 211.712404 164.701374 
L 213.350759 165.180222 
L 214.988226 165.781175 
L 216.626892 161.232336 
L 218.264822 160.066705 
L 219.903312 160.90616 
L 221.541637 157.238652 
L 223.180322 156.964303 
L 224.819493 155.8986 
L 226.457729 155.701598 
L 228.09596 155.825823 
L 229.734641 152.133056 
L 231.372805 151.895713 
L 233.011369 151.479741 
L 234.649846 149.092203 
L 236.287568 149.624567 
L 237.9262 147.72532 
L 239.564441 148.800001 
L 241.203174 146.845634 
L 242.84143 143.544722 
L 244.480118 142.280042 
L 246.118442 142.575168 
L 247.756651 141.577939 
L 249.395212 139.947668 
L 251.03369 141.971641 
L 252.671945 139.267118 
L 254.310047 140.515553 
L 255.948643 138.401366 
L 257.587133 138.159895 
L 259.225534 136.483616 
L 260.863579 135.762743 
L 262.502157 133.206212 
L 264.140384 132.557464 
L 265.778812 133.470939 
L 267.417307 133.818128 
L 269.05575 131.301876 
L 270.694023 131.248505 
L 272.332486 131.398257 
L 273.970905 131.740634 
L 275.609249 131.827944 
L 277.247621 130.084446 
L 278.886011 129.722495 
L 282.162678 129.689268 
L 283.801103 129.313847 
L 285.439455 129.795764 
L 287.077783 127.904531 
L 288.716253 132.697108 
L 290.354581 127.238536 
L 291.992993 127.932192 
L 293.631384 127.033578 
L 295.269713 128.046263 
L 296.908074 127.170013 
L 300.184832 126.582639 
L 303.461625 126.443881 
L 305.099987 126.620365 
L 306.73837 126.527614 
L 308.376721 126.626174 
L 310.015104 126.856832 
L 313.291828 128.015377 
L 314.930196 128.329255 
L 316.568596 128.332384 
L 318.20696 128.59678 
L 321.483703 128.644316 
L 323.122072 128.765184 
L 324.760446 129.008847 
L 329.675592 129.141381 
L 332.952324 128.902728 
L 334.590699 129.015295 
L 336.229083 128.790711 
L 342.782586 128.62212 
L 365.719807 128.213771 
L 367.358178 135.620388 
L 368.996555 128.170225 
L 375.550044 128.151588 
L 378.826795 128.216884 
L 396.848899 128.12056 
L 398.487273 128.12056 
L 398.487273 128.12056 
" style="fill:none;stroke:#1f77b4;stroke-linecap:square;stroke-width:1.5;"/>
   </g>
   <g id="line2d_98">
    <path clip-path="url(#pd742c2656c)" d="M 73.832727 224.197835 
L 77.138259 220.957543 
L 78.995918 219.745875 
L 80.527056 218.435244 
L 82.181199 216.747339 
L 83.744031 215.876482 
L 87.14283 213.318605 
L 88.780231 216.59988 
L 90.32811 214.494751 
L 92.080369 210.67455 
L 93.730495 208.304104 
L 97.006579 206.531821 
L 98.625256 204.536667 
L 100.262657 203.68416 
L 101.910782 203.10572 
L 103.562795 200.853609 
L 105.212921 199.699664 
L 106.856325 198.938726 
L 108.489005 197.488658 
L 110.107683 196.306126 
L 111.709707 194.951726 
L 113.359833 197.171504 
L 115.045222 192.98041 
L 116.635916 192.875707 
L 118.310727 190.828381 
L 119.944977 189.800804 
L 121.590109 188.340941 
L 123.239292 187.748625 
L 124.842259 186.174987 
L 126.485663 184.88603 
L 128.118343 184.160343 
L 129.774455 183.284384 
L 131.409754 181.851846 
L 133.055882 181.690935 
L 134.706008 180.717724 
L 136.324685 179.374671 
L 137.968089 178.745634 
L 139.600769 176.825814 
L 141.244408 175.344337 
L 142.89218 174.626226 
L 147.807112 171.461507 
L 149.441177 171.094948 
L 151.092008 170.183972 
L 152.718517 170.595368 
L 154.366759 168.409924 
L 155.998515 168.338156 
L 159.282941 164.931826 
L 160.911148 164.442964 
L 162.556807 163.582625 
L 164.189849 163.322056 
L 165.828247 162.198509 
L 167.476001 161.364117 
L 169.107851 160.841478 
L 170.747767 159.462768 
L 174.027475 158.404922 
L 175.664876 160.828563 
L 177.303691 157.549871 
L 178.94525 156.639359 
L 180.577837 156.329565 
L 182.221389 155.794704 
L 185.494217 154.116164 
L 187.134967 153.545268 
L 188.774475 152.778251 
L 190.412295 152.310464 
L 192.051968 152.924127 
L 193.688157 150.496344 
L 195.327493 151.983331 
L 196.964438 150.961771 
L 198.604229 150.414217 
L 200.241371 150.283423 
L 201.880064 149.48244 
L 203.520562 149.67214 
L 205.157527 148.723721 
L 206.796366 148.219087 
L 208.434072 148.421113 
L 210.072388 147.120922 
L 211.712404 147.299143 
L 213.350759 146.782573 
L 214.988226 146.866693 
L 216.626892 147.220555 
L 218.264822 146.236352 
L 219.903312 146.222691 
L 223.180322 145.259899 
L 224.819493 145.850171 
L 226.457729 147.886283 
L 228.09596 144.902578 
L 229.734641 144.973598 
L 231.372805 144.361079 
L 233.011369 146.538969 
L 234.649846 145.44397 
L 236.287568 143.955452 
L 237.9262 145.830025 
L 239.564441 144.329621 
L 241.203174 145.391227 
L 242.84143 145.259899 
L 244.480118 143.284942 
L 246.118442 144.474687 
L 247.756651 143.075646 
L 249.395212 144.17922 
L 251.03369 143.022134 
L 252.671945 143.998792 
L 254.310047 141.858463 
L 255.948643 143.961639 
L 257.587133 142.662697 
L 259.225534 142.797562 
L 260.863579 142.797562 
L 262.502157 142.540249 
L 264.140384 142.412668 
L 265.778812 143.746102 
L 267.417307 143.599469 
L 269.05575 143.063743 
L 270.694023 143.538647 
L 272.332486 143.327032 
L 273.970905 142.528622 
L 275.609249 142.136748 
L 277.247621 143.423528 
L 278.886011 142.331848 
L 280.524314 142.487971 
L 282.162678 142.228353 
L 283.801103 142.546065 
L 285.439455 142.10249 
L 288.716253 142.89185 
L 293.631384 142.927309 
L 295.269713 143.260926 
L 298.546455 143.405404 
L 300.184832 143.23094 
L 301.823251 143.321014 
L 303.461625 143.930723 
L 305.099987 144.235505 
L 306.73837 143.949268 
L 308.376721 144.036006 
L 310.015104 144.678057 
L 311.653465 144.51902 
L 313.291828 144.55074 
L 314.930196 144.254297 
L 316.568596 144.14801 
L 319.845361 144.379975 
L 321.483703 145.161894 
L 323.122072 144.481015 
L 324.760446 144.373675 
L 336.229083 144.569792 
L 337.867456 144.468361 
L 339.505834 144.588861 
L 341.144207 144.443073 
L 342.782586 144.780422 
L 344.420948 144.633416 
L 346.059332 144.652537 
L 347.697692 144.525361 
L 350.974445 144.525361 
L 352.612814 144.462036 
L 355.889562 144.735581 
L 360.804687 144.61431 
L 365.719807 144.799667 
L 367.358178 144.51902 
L 368.996555 144.50001 
L 370.634928 144.652537 
L 372.273299 144.684442 
L 373.911676 144.506345 
L 377.188422 144.59522 
L 378.826795 144.468361 
L 382.103537 144.55074 
L 398.487273 144.633416 
L 398.487273 144.633416 
" style="fill:none;stroke:#ff7f0e;stroke-linecap:square;stroke-width:1.5;"/>
   </g>
   <g id="line2d_99">
    <path clip-path="url(#pd742c2656c)" d="M 73.832727 216.895753 
L 75.660403 214.900599 
L 77.138259 215.037493 
L 78.995918 212.443793 
L 80.527056 212.566741 
L 82.181199 212.199856 
L 83.744031 210.003386 
L 85.404913 209.032096 
L 87.14283 207.499467 
L 88.780231 206.437265 
L 90.32811 205.786071 
L 92.080369 203.767999 
L 93.730495 202.862215 
L 97.006579 200.269378 
L 98.625256 199.212518 
L 100.262657 197.681077 
L 101.910782 196.550062 
L 103.562795 194.837647 
L 105.212921 193.727028 
L 106.856325 192.155879 
L 108.489005 191.11681 
L 110.107683 190.355585 
L 111.709707 188.773591 
L 113.359833 187.706896 
L 115.045222 186.887888 
L 116.635916 185.332729 
L 118.310727 185.145546 
L 119.944977 184.160343 
L 121.590109 182.242705 
L 123.239292 181.755164 
L 124.842259 180.11108 
L 126.485663 179.115248 
L 131.409754 175.46624 
L 133.055882 174.113547 
L 134.706008 173.52207 
L 136.324685 171.688434 
L 137.968089 171.318259 
L 139.600769 169.552046 
L 141.244408 169.140234 
L 142.89218 167.771959 
L 146.156986 166.00661 
L 147.807112 164.91639 
L 149.441177 163.365279 
L 151.092008 162.048239 
L 152.718517 161.271791 
L 154.366759 159.768911 
L 155.998515 158.720716 
L 157.639413 158.093417 
L 159.282941 157.227615 
L 160.911148 156.181493 
L 162.556807 155.485811 
L 165.828247 153.23723 
L 167.476001 152.355031 
L 169.107851 151.045886 
L 174.027475 149.247502 
L 175.664876 148.00406 
L 177.303691 147.071267 
L 178.94525 146.387161 
L 180.577837 146.100108 
L 182.221389 144.928378 
L 183.857999 144.506345 
L 185.494217 143.411444 
L 187.134967 142.909573 
L 188.774475 141.903668 
L 190.412295 141.378065 
L 192.051968 140.713386 
L 193.688157 140.214084 
L 195.327493 139.347927 
L 196.964438 139.161485 
L 198.604229 138.484048 
L 200.241371 137.646839 
L 201.880064 137.792934 
L 203.520562 137.469015 
L 205.157527 137.399199 
L 206.796366 136.190778 
L 208.434072 136.07205 
L 210.072388 135.185889 
L 213.350759 135.04706 
L 214.988226 137.595222 
L 216.626892 133.569039 
L 218.264822 133.144365 
L 219.903312 133.013491 
L 221.541637 133.025009 
L 223.180322 132.154653 
L 224.819493 131.904614 
L 226.457729 132.757759 
L 228.09596 131.344662 
L 229.734641 130.89584 
L 231.372805 130.89584 
L 233.011369 130.414475 
L 234.649846 130.531289 
L 236.287568 132.422406 
L 237.9262 130.704162 
L 239.564441 129.682629 
L 241.203174 129.75244 
L 242.84143 131.391104 
L 244.480118 129.375992 
L 246.118442 128.851452 
L 247.756651 130.770197 
L 249.395212 128.344906 
L 251.03369 128.219998 
L 252.671945 129.882657 
L 254.310047 130.376809 
L 255.948643 127.541888 
L 257.587133 127.581227 
L 259.225534 127.433302 
L 260.863579 126.983362 
L 262.502157 127.001073 
L 264.140384 128.313615 
L 265.778812 128.527238 
L 267.417307 127.95373 
L 269.05575 127.684432 
L 270.694023 127.544912 
L 272.332486 128.558822 
L 273.970905 129.125177 
L 275.609249 129.9598 
L 278.886011 130.387076 
L 280.524314 131.043299 
L 282.162678 131.358942 
L 283.801103 132.143564 
L 285.439455 132.606431 
L 287.077783 133.810179 
L 288.716253 133.778409 
L 290.354581 134.825837 
L 291.992993 134.627309 
L 293.631384 135.819065 
L 295.269713 137.371333 
L 296.908074 137.525021 
L 298.546455 138.140687 
L 300.184832 138.415935 
L 301.823251 139.096336 
L 303.461625 139.267118 
L 305.099987 139.885429 
L 306.73837 141.103322 
L 308.376721 141.212824 
L 310.015104 141.920642 
L 311.653465 142.142463 
L 313.291828 143.200994 
L 314.930196 142.77405 
L 316.568596 143.20698 
L 318.20696 143.471929 
L 323.122072 144.857497 
L 324.760446 144.449392 
L 326.39885 144.754788 
L 328.037224 144.806085 
L 329.675592 144.658914 
L 331.313965 145.246807 
L 332.952324 147.085443 
L 334.590699 146.256859 
L 336.229083 146.469841 
L 337.867456 145.103292 
L 339.505834 145.214111 
L 341.144207 145.762998 
L 342.782586 145.496834 
L 344.420948 146.161318 
L 346.059332 145.483606 
L 347.697692 145.636185 
L 349.336079 145.978177 
L 350.974445 146.181757 
L 352.612814 146.025517 
L 354.251194 146.414688 
L 355.889562 146.449143 
L 357.527941 146.845634 
L 359.166317 146.359668 
L 360.804687 146.712707 
L 362.443056 146.573612 
L 367.358178 147.184922 
L 368.996555 147.249101 
L 372.273299 146.958173 
L 373.911676 150.761144 
L 375.550044 152.239336 
L 377.188422 157.62834 
L 378.826795 151.012203 
L 380.465165 153.705584 
L 382.103537 151.402579 
L 383.74191 151.232033 
L 385.380284 150.944985 
L 387.018658 150.961771 
L 391.933778 152.115391 
L 393.572151 150.669774 
L 395.210525 151.617561 
L 396.848899 151.574403 
L 398.487273 150.8947 
L 398.487273 150.8947 
" style="fill:none;stroke:#2ca02c;stroke-linecap:square;stroke-width:1.5;"/>
   </g>
   <g id="line2d_100">
    <path clip-path="url(#pd742c2656c)" d="M 73.832727 295.488 
L 77.138259 295.488 
L 78.995918 291.307402 
L 82.181199 291.307402 
L 83.744031 287.772757 
L 85.404913 287.772757 
L 87.14283 284.710908 
L 90.32811 284.710908 
L 93.730495 279.59427 
L 95.289741 279.59427 
L 97.006579 277.408826 
L 98.625256 277.408826 
L 101.910782 273.578308 
L 103.562795 273.578308 
L 105.212921 271.879026 
L 106.856325 268.817177 
L 108.489005 268.817177 
L 110.107683 266.116435 
L 111.709707 266.116435 
L 113.359833 263.700539 
L 118.310727 260.495825 
L 121.590109 258.583901 
L 123.239292 256.819199 
L 124.842259 254.403303 
L 126.485663 255.180659 
L 128.118343 252.923447 
L 129.774455 250.868658 
L 131.409754 250.222705 
L 133.055882 248.387341 
L 134.706008 247.240612 
L 136.324685 247.240612 
L 137.968089 243.626211 
L 139.600769 244.108961 
L 141.244408 242.69017 
L 142.89218 240.091565 
L 144.538308 239.286928 
L 146.156986 237.757708 
L 147.807112 237.029716 
L 149.441177 235.304858 
L 152.718517 232.789483 
L 154.366759 231.628232 
L 155.998515 230.254779 
L 157.639413 227.73248 
L 159.282941 231.628232 
L 160.911148 230.794329 
L 162.556807 229.212336 
L 164.189849 228.460472 
L 165.828247 225.897116 
L 167.476001 226.342369 
L 169.107851 223.994013 
L 170.747767 221.863978 
L 172.389421 221.135986 
L 174.027475 220.085582 
L 175.664876 218.276559 
L 178.94525 215.876482 
L 180.577837 214.228122 
L 182.221389 213.833904 
L 183.857999 211.601133 
L 185.494217 211.365953 
L 187.134967 208.406699 
L 188.774475 206.249315 
L 190.412295 206.249315 
L 192.051968 204.886748 
L 193.688157 201.990857 
L 195.327493 202.943096 
L 196.964438 201.226459 
L 200.241371 198.334392 
L 201.880064 199.075213 
L 203.520562 195.648381 
L 205.157527 194.667586 
L 206.796366 193.35068 
L 208.434072 191.556372 
L 210.072388 190.828381 
L 211.712404 188.993017 
L 213.350759 188.085215 
L 214.988226 186.767521 
L 216.626892 185.108292 
L 218.264822 184.053444 
L 219.903312 193.99968 
L 221.541637 193.19126 
L 223.180322 191.311131 
L 224.819493 190.496403 
L 226.457729 178.160871 
L 228.09596 177.806209 
L 229.734641 175.515183 
L 231.372805 173.815901 
L 233.011369 172.640894 
L 234.649846 171.854895 
L 236.287568 170.634936 
L 237.9262 180.171027 
L 239.564441 179.057995 
L 241.203174 176.542249 
L 242.84143 176.236853 
L 244.480118 174.768061 
L 246.118442 163.235853 
L 247.756651 161.023049 
L 249.395212 159.438452 
L 251.03369 169.932949 
L 252.671945 169.326505 
L 254.310047 166.381849 
L 255.948643 166.497281 
L 257.587133 164.307329 
L 259.225534 164.609837 
L 260.863579 162.613415 
L 262.502157 162.51593 
L 264.140384 161.153629 
L 265.778812 164.397663 
L 270.694023 160.469877 
L 275.609249 156.297754 
L 277.247621 160.725507 
L 278.886011 158.945578 
L 280.524314 158.173772 
L 282.162678 156.607117 
L 283.801103 156.607117 
L 285.439455 153.943398 
L 287.077783 153.015773 
L 290.354581 150.283423 
L 291.992993 149.154196 
L 293.631384 147.514853 
L 295.269713 145.702841 
L 296.908074 149.380338 
L 298.546455 147.974559 
L 300.184832 146.387161 
L 301.823251 145.038353 
L 303.461625 144.029799 
L 305.099987 143.171087 
L 306.73837 142.517 
L 313.291828 138.699445 
L 314.930196 137.816586 
L 316.568596 138.625787 
L 318.20696 138.078371 
L 319.845361 136.948228 
L 323.122072 135.334056 
L 326.39885 133.941696 
L 328.037224 134.929921 
L 329.675592 134.275856 
L 332.952324 132.776745 
L 334.590699 132.180548 
L 336.229083 132.975141 
L 339.505834 131.63919 
L 341.144207 132.299298 
L 346.059332 130.342622 
L 347.697692 130.965941 
L 349.336079 130.298253 
L 350.974445 130.672949 
L 354.251194 129.412048 
L 355.889562 129.812449 
L 357.527941 129.199809 
L 360.804687 129.57996 
L 362.443056 128.986296 
L 364.081434 129.118699 
L 365.719807 128.530395 
L 370.634928 128.63163 
L 373.911676 128.606279 
L 375.550044 128.077191 
L 377.188422 127.978369 
L 378.826795 128.288613 
L 380.465165 128.09267 
L 382.103537 128.282367 
L 383.74191 127.806448 
L 385.380284 127.95373 
L 387.018658 127.751461 
L 388.657033 128.201321 
L 390.295404 127.304271 
L 391.933778 127.092798 
L 393.572151 127.187869 
L 395.210525 126.924424 
L 396.848899 127.107627 
L 398.487273 126.669792 
L 398.487273 126.669792 
" style="fill:none;stroke:#d62728;stroke-linecap:square;stroke-width:1.5;"/>
   </g>
   <g id="line2d_101">
    <path clip-path="url(#pd742c2656c)" d="M 73.832727 273.578308 
L 75.660403 275.413672 
L 77.138259 271.879026 
L 78.995918 268.817177 
L 80.527056 270.297033 
L 82.181199 266.116435 
L 83.744031 267.427067 
L 85.404913 263.700539 
L 87.14283 262.58179 
L 88.780231 262.58179 
L 90.32811 261.515095 
L 92.080369 258.583901 
L 93.730495 258.583901 
L 95.289741 256.819199 
L 97.006579 255.985296 
L 98.625256 253.651438 
L 100.262657 252.217859 
L 101.910782 250.222705 
L 103.562795 252.217859 
L 105.212921 248.387341 
L 108.489005 247.240612 
L 110.107683 244.108961 
L 111.709707 244.602094 
L 113.359833 242.69017 
L 115.045222 242.2361 
L 116.635916 240.504726 
L 118.310727 239.286928 
L 119.944977 236.324128 
L 121.590109 234.649676 
L 123.239292 236.674208 
L 124.842259 232.201507 
L 126.485663 231.346881 
L 128.118343 230.254779 
L 129.774455 232.493611 
L 131.409754 227.259684 
L 133.055882 225.460345 
L 134.706008 224.820402 
L 136.324685 226.118662 
L 137.968089 221.863978 
L 139.600769 220.957543 
L 141.244408 222.615842 
L 142.89218 217.499203 
L 144.538308 217.195493 
L 146.156986 214.764516 
L 147.807112 217.806991 
L 149.441177 212.443793 
L 152.718517 210.336512 
L 154.366759 208.304104 
L 155.998515 210.003386 
L 157.639413 205.786071 
L 159.282941 205.242256 
L 160.911148 205.422098 
L 162.556807 205.422098 
L 164.189849 201.076591 
L 165.828247 200.559633 
L 167.476001 200.927695 
L 169.107851 196.550062 
L 172.389421 194.724133 
L 174.027475 195.413803 
L 175.664876 191.904177 
L 177.303691 190.828381 
L 178.94525 191.165236 
L 180.577837 187.252826 
L 182.221389 187.79043 
L 183.857999 185.483583 
L 185.494217 186.214016 
L 187.134967 183.250032 
L 188.774475 179.872846 
L 190.412295 181.981394 
L 192.051968 177.969218 
L 193.688157 180.261243 
L 195.327493 175.712006 
L 196.964438 174.910778 
L 198.604229 176.312822 
L 200.241371 172.212687 
L 201.880064 170.873791 
L 203.520562 170.320286 
L 205.157527 168.05331 
L 206.796366 166.679857 
L 208.434072 165.637414 
L 210.072388 166.169003 
L 211.712404 162.767447 
L 213.350759 161.710334 
L 214.988226 162.034627 
L 216.626892 161.258632 
L 218.264822 157.752194 
L 219.903312 158.300616 
L 221.541637 154.681879 
L 223.180322 153.135464 
L 224.819493 154.612858 
L 226.457729 151.557163 
L 228.09596 149.030376 
L 229.734641 148.278761 
L 231.372805 148.769459 
L 233.011369 145.31234 
L 234.649846 143.556876 
L 236.287568 145.044839 
L 237.9262 141.51112 
L 239.564441 140.430529 
L 241.203174 140.457065 
L 242.84143 138.23689 
L 244.480118 137.030397 
L 246.118442 134.718088 
L 249.395212 134.668528 
L 251.03369 132.43363 
L 252.671945 132.351445 
L 254.310047 132.459842 
L 255.948643 128.634801 
L 257.587133 128.435891 
L 259.225534 125.269753 
L 260.863579 125.111484 
L 262.502157 122.602502 
L 264.140384 123.302911 
L 265.778812 120.612224 
L 267.417307 120.802979 
L 269.05575 117.87476 
L 270.694023 116.338695 
L 272.332486 114.265152 
L 273.970905 117.114004 
L 275.609249 111.455469 
L 277.247621 110.397907 
L 278.886011 113.398895 
L 280.524314 111.024808 
L 282.162678 109.452821 
L 283.801103 107.342679 
L 285.439455 105.780825 
L 287.077783 107.110811 
L 288.716253 105.477361 
L 290.354581 102.263409 
L 291.992993 101.317371 
L 293.631384 99.594704 
L 295.269713 98.579942 
L 296.908074 120.489634 
L 298.546455 117.448357 
L 300.184832 117.144723 
L 301.823251 114.780951 
L 303.461625 114.541316 
L 305.099987 112.426139 
L 306.73837 111.095533 
L 311.653465 107.875041 
L 313.291828 106.307671 
L 314.930196 105.155071 
L 316.568596 103.635957 
L 324.760446 97.207692 
L 328.037224 95.262388 
L 331.313965 92.852337 
L 332.952324 91.380141 
L 334.590699 90.620259 
L 336.229083 88.856632 
L 337.867456 87.7337 
L 339.505834 86.891617 
L 342.782586 84.275137 
L 344.420948 83.053792 
L 346.059332 82.248391 
L 347.697692 81.066857 
L 349.336079 79.658266 
L 350.974445 79.110807 
L 354.251194 76.63555 
L 355.889562 75.794202 
L 357.527941 74.398674 
L 359.166317 73.980786 
L 360.804687 72.782893 
L 362.443056 71.404606 
L 364.081434 70.771761 
L 365.719807 69.536414 
L 367.358178 68.868768 
L 372.273299 65.858869 
L 377.188422 63.525104 
L 378.826795 62.219684 
L 382.103537 60.929743 
L 383.74191 59.838519 
L 385.380284 59.250629 
L 387.018658 58.46507 
L 388.657033 57.463063 
L 395.210525 54.669478 
L 396.848899 54.202611 
L 398.487273 53.568 
L 398.487273 53.568 
" style="fill:none;stroke:#9467bd;stroke-linecap:square;stroke-width:1.5;"/>
   </g>
   <g id="patch_3">
    <path d="M 57.6 307.584 
L 57.6 41.472 
" style="fill:none;stroke:#000000;stroke-linecap:square;stroke-linejoin:miter;stroke-width:0.8;"/>
   </g>
   <g id="patch_4">
    <path d="M 414.72 307.584 
L 414.72 41.472 
" style="fill:none;stroke:#000000;stroke-linecap:square;stroke-linejoin:miter;stroke-width:0.8;"/>
   </g>
   <g id="patch_5">
    <path d="M 57.6 307.584 
L 414.72 307.584 
" style="fill:none;stroke:#000000;stroke-linecap:square;stroke-linejoin:miter;stroke-width:0.8;"/>
   </g>
   <g id="patch_6">
    <path d="M 57.6 41.472 
L 414.72 41.472 
" style="fill:none;stroke:#000000;stroke-linecap:square;stroke-linejoin:miter;stroke-width:0.8;"/>
   </g>
   <g id="legend_1">
    <g id="patch_7">
     <path d="M 64.6 122.862625 
L 150.495313 122.862625 
Q 152.495313 122.862625 152.495313 120.862625 
L 152.495313 48.472 
Q 152.495313 46.472 150.495313 46.472 
L 64.6 46.472 
Q 62.6 46.472 62.6 48.472 
L 62.6 120.862625 
Q 62.6 122.862625 64.6 122.862625 
z
" style="fill:#ffffff;opacity:0.8;stroke:#cccccc;stroke-linejoin:miter;"/>
    </g>
    <g id="line2d_102">
     <path d="M 66.6 54.570438 
L 86.6 54.570438 
" style="fill:none;stroke:#1f77b4;stroke-linecap:square;stroke-width:1.5;"/>
    </g>
    <g id="line2d_103"/>
    <g id="text_14">
     <!-- CuPy -->
     <defs>
      <path d="M 64.40625 67.28125 
L 64.40625 56.890625 
Q 59.421875 61.53125 53.78125 63.8125 
Q 48.140625 66.109375 41.796875 66.109375 
Q 29.296875 66.109375 22.65625 58.46875 
Q 16.015625 50.828125 16.015625 36.375 
Q 16.015625 21.96875 22.65625 14.328125 
Q 29.296875 6.6875 41.796875 6.6875 
Q 48.140625 6.6875 53.78125 8.984375 
Q 59.421875 11.28125 64.40625 15.921875 
L 64.40625 5.609375 
Q 59.234375 2.09375 53.4375 0.328125 
Q 47.65625 -1.421875 41.21875 -1.421875 
Q 24.65625 -1.421875 15.125 8.703125 
Q 5.609375 18.84375 5.609375 36.375 
Q 5.609375 53.953125 15.125 64.078125 
Q 24.65625 74.21875 41.21875 74.21875 
Q 47.75 74.21875 53.53125 72.484375 
Q 59.328125 70.75 64.40625 67.28125 
z
" id="DejaVuSans-67"/>
      <path d="M 19.671875 64.796875 
L 19.671875 37.40625 
L 32.078125 37.40625 
Q 38.96875 37.40625 42.71875 40.96875 
Q 46.484375 44.53125 46.484375 51.125 
Q 46.484375 57.671875 42.71875 61.234375 
Q 38.96875 64.796875 32.078125 64.796875 
z
M 9.8125 72.90625 
L 32.078125 72.90625 
Q 44.34375 72.90625 50.609375 67.359375 
Q 56.890625 61.8125 56.890625 51.125 
Q 56.890625 40.328125 50.609375 34.8125 
Q 44.34375 29.296875 32.078125 29.296875 
L 19.671875 29.296875 
L 19.671875 0 
L 9.8125 0 
z
" id="DejaVuSans-80"/>
      <path d="M 32.171875 -5.078125 
Q 28.375 -14.84375 24.75 -17.8125 
Q 21.140625 -20.796875 15.09375 -20.796875 
L 7.90625 -20.796875 
L 7.90625 -13.28125 
L 13.1875 -13.28125 
Q 16.890625 -13.28125 18.9375 -11.515625 
Q 21 -9.765625 23.484375 -3.21875 
L 25.09375 0.875 
L 2.984375 54.6875 
L 12.5 54.6875 
L 29.59375 11.921875 
L 46.6875 54.6875 
L 56.203125 54.6875 
z
" id="DejaVuSans-121"/>
     </defs>
     <g transform="translate(94.6 58.070438)scale(0.1 -0.1)">
      <use xlink:href="#DejaVuSans-67"/>
      <use x="69.824219" xlink:href="#DejaVuSans-117"/>
      <use x="133.203125" xlink:href="#DejaVuSans-80"/>
      <use x="193.505859" xlink:href="#DejaVuSans-121"/>
     </g>
    </g>
    <g id="line2d_104">
     <path d="M 66.6 69.248563 
L 86.6 69.248563 
" style="fill:none;stroke:#ff7f0e;stroke-linecap:square;stroke-width:1.5;"/>
    </g>
    <g id="line2d_105"/>
    <g id="text_15">
     <!-- NumExpr -->
     <defs>
      <path d="M 54.890625 54.6875 
L 35.109375 28.078125 
L 55.90625 0 
L 45.3125 0 
L 29.390625 21.484375 
L 13.484375 0 
L 2.875 0 
L 24.125 28.609375 
L 4.6875 54.6875 
L 15.28125 54.6875 
L 29.78125 35.203125 
L 44.28125 54.6875 
z
" id="DejaVuSans-120"/>
      <path d="M 18.109375 8.203125 
L 18.109375 -20.796875 
L 9.078125 -20.796875 
L 9.078125 54.6875 
L 18.109375 54.6875 
L 18.109375 46.390625 
Q 20.953125 51.265625 25.265625 53.625 
Q 29.59375 56 35.59375 56 
Q 45.5625 56 51.78125 48.09375 
Q 58.015625 40.1875 58.015625 27.296875 
Q 58.015625 14.40625 51.78125 6.484375 
Q 45.5625 -1.421875 35.59375 -1.421875 
Q 29.59375 -1.421875 25.265625 0.953125 
Q 20.953125 3.328125 18.109375 8.203125 
z
M 48.6875 27.296875 
Q 48.6875 37.203125 44.609375 42.84375 
Q 40.53125 48.484375 33.40625 48.484375 
Q 26.265625 48.484375 22.1875 42.84375 
Q 18.109375 37.203125 18.109375 27.296875 
Q 18.109375 17.390625 22.1875 11.75 
Q 26.265625 6.109375 33.40625 6.109375 
Q 40.53125 6.109375 44.609375 11.75 
Q 48.6875 17.390625 48.6875 27.296875 
z
" id="DejaVuSans-112"/>
     </defs>
     <g transform="translate(94.6 72.748563)scale(0.1 -0.1)">
      <use xlink:href="#DejaVuSans-78"/>
      <use x="74.804688" xlink:href="#DejaVuSans-117"/>
      <use x="138.183594" xlink:href="#DejaVuSans-109"/>
      <use x="235.595703" xlink:href="#DejaVuSans-69"/>
      <use x="298.779297" xlink:href="#DejaVuSans-120"/>
      <use x="357.958984" xlink:href="#DejaVuSans-112"/>
      <use x="421.435547" xlink:href="#DejaVuSans-114"/>
     </g>
    </g>
    <g id="line2d_106">
     <path d="M 66.6 83.926688 
L 86.6 83.926688 
" style="fill:none;stroke:#2ca02c;stroke-linecap:square;stroke-width:1.5;"/>
    </g>
    <g id="line2d_107"/>
    <g id="text_16">
     <!-- NumPy -->
     <g transform="translate(94.6 87.426688)scale(0.1 -0.1)">
      <use xlink:href="#DejaVuSans-78"/>
      <use x="74.804688" xlink:href="#DejaVuSans-117"/>
      <use x="138.183594" xlink:href="#DejaVuSans-109"/>
      <use x="235.595703" xlink:href="#DejaVuSans-80"/>
      <use x="295.898438" xlink:href="#DejaVuSans-121"/>
     </g>
    </g>
    <g id="line2d_108">
     <path d="M 66.6 98.604813 
L 86.6 98.604813 
" style="fill:none;stroke:#d62728;stroke-linecap:square;stroke-width:1.5;"/>
    </g>
    <g id="line2d_109"/>
    <g id="text_17">
     <!-- scikit-cuda -->
     <defs>
      <path d="M 48.78125 52.59375 
L 48.78125 44.1875 
Q 44.96875 46.296875 41.140625 47.34375 
Q 37.3125 48.390625 33.40625 48.390625 
Q 24.65625 48.390625 19.8125 42.84375 
Q 14.984375 37.3125 14.984375 27.296875 
Q 14.984375 17.28125 19.8125 11.734375 
Q 24.65625 6.203125 33.40625 6.203125 
Q 37.3125 6.203125 41.140625 7.25 
Q 44.96875 8.296875 48.78125 10.40625 
L 48.78125 2.09375 
Q 45.015625 0.34375 40.984375 -0.53125 
Q 36.96875 -1.421875 32.421875 -1.421875 
Q 20.0625 -1.421875 12.78125 6.34375 
Q 5.515625 14.109375 5.515625 27.296875 
Q 5.515625 40.671875 12.859375 48.328125 
Q 20.21875 56 33.015625 56 
Q 37.15625 56 41.109375 55.140625 
Q 45.0625 54.296875 48.78125 52.59375 
z
" id="DejaVuSans-99"/>
      <path d="M 9.421875 54.6875 
L 18.40625 54.6875 
L 18.40625 0 
L 9.421875 0 
z
M 9.421875 75.984375 
L 18.40625 75.984375 
L 18.40625 64.59375 
L 9.421875 64.59375 
z
" id="DejaVuSans-105"/>
      <path d="M 9.078125 75.984375 
L 18.109375 75.984375 
L 18.109375 31.109375 
L 44.921875 54.6875 
L 56.390625 54.6875 
L 27.390625 29.109375 
L 57.625 0 
L 45.90625 0 
L 18.109375 26.703125 
L 18.109375 0 
L 9.078125 0 
z
" id="DejaVuSans-107"/>
      <path d="M 4.890625 31.390625 
L 31.203125 31.390625 
L 31.203125 23.390625 
L 4.890625 23.390625 
z
" id="DejaVuSans-45"/>
      <path d="M 45.40625 46.390625 
L 45.40625 75.984375 
L 54.390625 75.984375 
L 54.390625 0 
L 45.40625 0 
L 45.40625 8.203125 
Q 42.578125 3.328125 38.25 0.953125 
Q 33.9375 -1.421875 27.875 -1.421875 
Q 17.96875 -1.421875 11.734375 6.484375 
Q 5.515625 14.40625 5.515625 27.296875 
Q 5.515625 40.1875 11.734375 48.09375 
Q 17.96875 56 27.875 56 
Q 33.9375 56 38.25 53.625 
Q 42.578125 51.265625 45.40625 46.390625 
z
M 14.796875 27.296875 
Q 14.796875 17.390625 18.875 11.75 
Q 22.953125 6.109375 30.078125 6.109375 
Q 37.203125 6.109375 41.296875 11.75 
Q 45.40625 17.390625 45.40625 27.296875 
Q 45.40625 37.203125 41.296875 42.84375 
Q 37.203125 48.484375 30.078125 48.484375 
Q 22.953125 48.484375 18.875 42.84375 
Q 14.796875 37.203125 14.796875 27.296875 
z
" id="DejaVuSans-100"/>
      <path d="M 34.28125 27.484375 
Q 23.390625 27.484375 19.1875 25 
Q 14.984375 22.515625 14.984375 16.5 
Q 14.984375 11.71875 18.140625 8.90625 
Q 21.296875 6.109375 26.703125 6.109375 
Q 34.1875 6.109375 38.703125 11.40625 
Q 43.21875 16.703125 43.21875 25.484375 
L 43.21875 27.484375 
z
M 52.203125 31.203125 
L 52.203125 0 
L 43.21875 0 
L 43.21875 8.296875 
Q 40.140625 3.328125 35.546875 0.953125 
Q 30.953125 -1.421875 24.3125 -1.421875 
Q 15.921875 -1.421875 10.953125 3.296875 
Q 6 8.015625 6 15.921875 
Q 6 25.140625 12.171875 29.828125 
Q 18.359375 34.515625 30.609375 34.515625 
L 43.21875 34.515625 
L 43.21875 35.40625 
Q 43.21875 41.609375 39.140625 45 
Q 35.0625 48.390625 27.6875 48.390625 
Q 23 48.390625 18.546875 47.265625 
Q 14.109375 46.140625 10.015625 43.890625 
L 10.015625 52.203125 
Q 14.9375 54.109375 19.578125 55.046875 
Q 24.21875 56 28.609375 56 
Q 40.484375 56 46.34375 49.84375 
Q 52.203125 43.703125 52.203125 31.203125 
z
" id="DejaVuSans-97"/>
     </defs>
     <g transform="translate(94.6 102.104813)scale(0.1 -0.1)">
      <use xlink:href="#DejaVuSans-115"/>
      <use x="52.099609" xlink:href="#DejaVuSans-99"/>
      <use x="107.080078" xlink:href="#DejaVuSans-105"/>
      <use x="134.863281" xlink:href="#DejaVuSans-107"/>
      <use x="192.773438" xlink:href="#DejaVuSans-105"/>
      <use x="220.556641" xlink:href="#DejaVuSans-116"/>
      <use x="259.765625" xlink:href="#DejaVuSans-45"/>
      <use x="295.849609" xlink:href="#DejaVuSans-99"/>
      <use x="350.830078" xlink:href="#DejaVuSans-117"/>
      <use x="414.208984" xlink:href="#DejaVuSans-100"/>
      <use x="477.685547" xlink:href="#DejaVuSans-97"/>
     </g>
    </g>
    <g id="line2d_110">
     <path d="M 66.6 113.282938 
L 86.6 113.282938 
" style="fill:none;stroke:#9467bd;stroke-linecap:square;stroke-width:1.5;"/>
    </g>
    <g id="line2d_111"/>
    <g id="text_18">
     <!-- VecPy -->
     <defs>
      <path d="M 28.609375 0 
L 0.78125 72.90625 
L 11.078125 72.90625 
L 34.1875 11.53125 
L 57.328125 72.90625 
L 67.578125 72.90625 
L 39.796875 0 
z
" id="DejaVuSans-86"/>
     </defs>
     <g transform="translate(94.6 116.782938)scale(0.1 -0.1)">
      <use xlink:href="#DejaVuSans-86"/>
      <use x="68.298828" xlink:href="#DejaVuSans-101"/>
      <use x="129.822266" xlink:href="#DejaVuSans-99"/>
      <use x="184.802734" xlink:href="#DejaVuSans-80"/>
      <use x="245.105469" xlink:href="#DejaVuSans-121"/>
     </g>
    </g>
   </g>
  </g>
 </g>
 <defs>
  <clipPath id="pd742c2656c">
   <rect height="266.112" width="357.12" x="57.6" y="41.472"/>
  </clipPath>
 </defs>
</svg>
