<?xml version="1.0" encoding="UTF-8" standalone="no"?>
<!-- Created with Inkscape (http://www.inkscape.org/) -->

<svg
   xmlns:dc="http://purl.org/dc/elements/1.1/"
   xmlns:cc="http://creativecommons.org/ns#"
   xmlns:rdf="http://www.w3.org/1999/02/22-rdf-syntax-ns#"
   xmlns:svg="http://www.w3.org/2000/svg"
   xmlns="http://www.w3.org/2000/svg"
   xmlns:sodipodi="http://sodipodi.sourceforge.net/DTD/sodipodi-0.dtd"
   xmlns:inkscape="http://www.inkscape.org/namespaces/inkscape"
   width="59.647915mm"
   height="58.204258mm"
   viewBox="0 0 59.647915 58.204258"
   version="1.1"
   id="svg927"
   inkscape:version="0.92.3 (2405546, 2018-03-11)"
   sodipodi:docname="logo.svg">
  <defs
     id="defs921" />
  <sodipodi:namedview
     id="base"
     pagecolor="#ffffff"
     bordercolor="#666666"
     borderopacity="1.0"
     inkscape:pageopacity="0.0"
     inkscape:pageshadow="2"
     inkscape:zoom="0.98994949"
     inkscape:cx="-96.696574"
     inkscape:cy="-56.000731"
     inkscape:document-units="mm"
     inkscape:current-layer="layer1"
     showgrid="false"
     fit-margin-top="0"
     fit-margin-left="0"
     fit-margin-right="0"
     fit-margin-bottom="0"
     inkscape:window-width="3840"
     inkscape:window-height="2026"
     inkscape:window-x="0"
     inkscape:window-y="38"
     inkscape:window-maximized="1" />
  <metadata
     id="metadata924">
    <rdf:RDF>
      <cc:Work
         rdf:about="">
        <dc:format>image/svg+xml</dc:format>
        <dc:type
           rdf:resource="http://purl.org/dc/dcmitype/StillImage" />
        <dc:title></dc:title>
      </cc:Work>
    </rdf:RDF>
  </metadata>
  <g
     inkscape:label="Layer 1"
     inkscape:groupmode="layer"
     id="layer1"
     transform="translate(-51.81885,-47.159765)">
    <ellipse
       style="opacity:1;vector-effect:none;fill:#44aa00;fill-opacity:1;stroke:none;stroke-width:13.921422;stroke-linecap:butt;stroke-linejoin:miter;stroke-miterlimit:4;stroke-dasharray:none;stroke-dashoffset:0;stroke-opacity:0.95341617"
       id="path906"
       cx="81.642807"
       cy="76.261894"
       rx="29.823957"
       ry="29.102129"
       inkscape:export-filename="/home/ooreilly/codes/vecpy_docs/static/img/g894.png"
       inkscape:export-xdpi="120.889"
       inkscape:export-ydpi="120.889" />
    <g
       transform="matrix(11.080842,0,0,-7.5355976,52.041171,105.08341)"
       inkscape:label="vec"
       id="g894"
       style="fill:#ffffff"
       inkscape:export-filename="/home/ooreilly/codes/vecpy_docs/static/img/g894.png"
       inkscape:export-xdpi="120.889"
       inkscape:export-ydpi="120.889">
      <g
         transform="scale(0.1)"
         id="g896"
         style="fill:#ffffff">
        <path
           inkscape:connector-curvature="0"
           id="path898"
           style="fill:#ffffff;fill-opacity:1;fill-rule:nonzero;stroke:none"
           d="M 42.4375,64.2656 H 8.35938 c -0.79688,0 -1.6875,0.1094 -2.48438,0 -0.89062,-0.1875 -1.6875,-0.8906 -1.78125,-1.875 0,-2.0937 2.07813,-2.0937 4.07813,-2.0937 H 41.0469 c -1.2969,-1 -2.875,-2.2813 -3.5781,-3.7813 -0.5,-1.0781 0.0937,-2.375 1.1875,-2.6718 1.3906,-0.5 2.2968,0.6875 3.0781,1.5937 1.8906,1.875 3.6875,3.375 6.3594,4.5625 0.9062,0.3906 1.9843,0.6875 2.1875,1.7813 0.5,1.7968 -1.2813,2.3906 -2.375,3.0781 -1.5,0.9062 -2.7813,2.3906 -3.5782,3.9844 -0.4062,0.6875 -0.5937,1.4843 -1.3906,1.7812 -1.2031,0.5938 -2.6875,-0.1875 -2.7812,-1.5781 -0.2032,-1.5 1.7812,-3.9844 2.2812,-4.7813" />
        <path
           inkscape:connector-curvature="0"
           id="path900"
           style="fill:#ffffff;fill-opacity:1;fill-rule:nonzero;stroke:none"
           d="M 1.42188,46.8906 C 3.8125,31 6.48438,15.5 8.96875,-0.296875 c 2.48435,0 5.07815,-0.09375 7.25005,0.203125 l 0.9062,1.1875 26.8125,45.79685 c -2.0781,0 -4.1719,0 -6.0625,-0.1093 L 37.0781,45.7969 14.0469,6.35938 C 12.25,20.1719 9.875,33.375 7.78125,46.8906 H 1.42188" />
      </g>
    </g>
  </g>
</svg>
