<?xml version="1.0" encoding="utf-8" standalone="no"?>
<!DOCTYPE svg PUBLIC "-//W3C//DTD SVG 1.1//EN"
  "http://www.w3.org/Graphics/SVG/1.1/DTD/svg11.dtd">
<!-- Created with matplotlib (https://matplotlib.org/) -->
<svg height="345.6pt" version="1.1" viewBox="0 0 460.8 345.6" width="460.8pt" xmlns="http://www.w3.org/2000/svg" xmlns:xlink="http://www.w3.org/1999/xlink">
 <defs>
  <style type="text/css">
*{stroke-linecap:butt;stroke-linejoin:round;}
  </style>
 </defs>
 <g id="figure_1">
  <g id="patch_1">
   <path d="M 0 345.6 
L 460.8 345.6 
L 460.8 0 
L 0 0 
z
" style="fill:#ffffff;"/>
  </g>
  <g id="axes_1">
   <g id="patch_2">
    <path d="M 57.6 307.584 
L 414.72 307.584 
L 414.72 41.472 
L 57.6 41.472 
z
" style="fill:#ffffff;"/>
   </g>
   <g id="matplotlib.axis_1">
    <g id="xtick_1">
     <g id="line2d_1">
      <defs>
       <path d="M 0 0 
L 0 3.5 
" id="mf6be1d4172" style="stroke:#000000;stroke-width:0.8;"/>
      </defs>
      <g>
       <use style="stroke:#000000;stroke-width:0.8;" x="72.451031" xlink:href="#mf6be1d4172" y="307.584"/>
      </g>
     </g>
     <g id="text_1">
      <!-- $\mathdefault{10^{2}}$ -->
      <defs>
       <path d="M 12.40625 8.296875 
L 28.515625 8.296875 
L 28.515625 63.921875 
L 10.984375 60.40625 
L 10.984375 69.390625 
L 28.421875 72.90625 
L 38.28125 72.90625 
L 38.28125 8.296875 
L 54.390625 8.296875 
L 54.390625 0 
L 12.40625 0 
z
" id="DejaVuSans-49"/>
       <path d="M 31.78125 66.40625 
Q 24.171875 66.40625 20.328125 58.90625 
Q 16.5 51.421875 16.5 36.375 
Q 16.5 21.390625 20.328125 13.890625 
Q 24.171875 6.390625 31.78125 6.390625 
Q 39.453125 6.390625 43.28125 13.890625 
Q 47.125 21.390625 47.125 36.375 
Q 47.125 51.421875 43.28125 58.90625 
Q 39.453125 66.40625 31.78125 66.40625 
z
M 31.78125 74.21875 
Q 44.046875 74.21875 50.515625 64.515625 
Q 56.984375 54.828125 56.984375 36.375 
Q 56.984375 17.96875 50.515625 8.265625 
Q 44.046875 -1.421875 31.78125 -1.421875 
Q 19.53125 -1.421875 13.0625 8.265625 
Q 6.59375 17.96875 6.59375 36.375 
Q 6.59375 54.828125 13.0625 64.515625 
Q 19.53125 74.21875 31.78125 74.21875 
z
" id="DejaVuSans-48"/>
       <path d="M 19.1875 8.296875 
L 53.609375 8.296875 
L 53.609375 0 
L 7.328125 0 
L 7.328125 8.296875 
Q 12.9375 14.109375 22.625 23.890625 
Q 32.328125 33.6875 34.8125 36.53125 
Q 39.546875 41.84375 41.421875 45.53125 
Q 43.3125 49.21875 43.3125 52.78125 
Q 43.3125 58.59375 39.234375 62.25 
Q 35.15625 65.921875 28.609375 65.921875 
Q 23.96875 65.921875 18.8125 64.3125 
Q 13.671875 62.703125 7.8125 59.421875 
L 7.8125 69.390625 
Q 13.765625 71.78125 18.9375 73 
Q 24.125 74.21875 28.421875 74.21875 
Q 39.75 74.21875 46.484375 68.546875 
Q 53.21875 62.890625 53.21875 53.421875 
Q 53.21875 48.921875 51.53125 44.890625 
Q 49.859375 40.875 45.40625 35.40625 
Q 44.1875 33.984375 37.640625 27.21875 
Q 31.109375 20.453125 19.1875 8.296875 
z
" id="DejaVuSans-50"/>
      </defs>
      <g transform="translate(63.651031 322.182437)scale(0.1 -0.1)">
       <use transform="translate(0 0.765625)" xlink:href="#DejaVuSans-49"/>
       <use transform="translate(63.623047 0.765625)" xlink:href="#DejaVuSans-48"/>
       <use transform="translate(128.203125 39.046875)scale(0.7)" xlink:href="#DejaVuSans-50"/>
      </g>
     </g>
    </g>
    <g id="xtick_2">
     <g id="line2d_2">
      <g>
       <use style="stroke:#000000;stroke-width:0.8;" x="137.65828" xlink:href="#mf6be1d4172" y="307.584"/>
      </g>
     </g>
     <g id="text_2">
      <!-- $\mathdefault{10^{3}}$ -->
      <defs>
       <path d="M 40.578125 39.3125 
Q 47.65625 37.796875 51.625 33 
Q 55.609375 28.21875 55.609375 21.1875 
Q 55.609375 10.40625 48.1875 4.484375 
Q 40.765625 -1.421875 27.09375 -1.421875 
Q 22.515625 -1.421875 17.65625 -0.515625 
Q 12.796875 0.390625 7.625 2.203125 
L 7.625 11.71875 
Q 11.71875 9.328125 16.59375 8.109375 
Q 21.484375 6.890625 26.8125 6.890625 
Q 36.078125 6.890625 40.9375 10.546875 
Q 45.796875 14.203125 45.796875 21.1875 
Q 45.796875 27.640625 41.28125 31.265625 
Q 36.765625 34.90625 28.71875 34.90625 
L 20.21875 34.90625 
L 20.21875 43.015625 
L 29.109375 43.015625 
Q 36.375 43.015625 40.234375 45.921875 
Q 44.09375 48.828125 44.09375 54.296875 
Q 44.09375 59.90625 40.109375 62.90625 
Q 36.140625 65.921875 28.71875 65.921875 
Q 24.65625 65.921875 20.015625 65.03125 
Q 15.375 64.15625 9.8125 62.3125 
L 9.8125 71.09375 
Q 15.4375 72.65625 20.34375 73.4375 
Q 25.25 74.21875 29.59375 74.21875 
Q 40.828125 74.21875 47.359375 69.109375 
Q 53.90625 64.015625 53.90625 55.328125 
Q 53.90625 49.265625 50.4375 45.09375 
Q 46.96875 40.921875 40.578125 39.3125 
z
" id="DejaVuSans-51"/>
      </defs>
      <g transform="translate(128.85828 322.182437)scale(0.1 -0.1)">
       <use transform="translate(0 0.765625)" xlink:href="#DejaVuSans-49"/>
       <use transform="translate(63.623047 0.765625)" xlink:href="#DejaVuSans-48"/>
       <use transform="translate(128.203125 39.046875)scale(0.7)" xlink:href="#DejaVuSans-51"/>
      </g>
     </g>
    </g>
    <g id="xtick_3">
     <g id="line2d_3">
      <g>
       <use style="stroke:#000000;stroke-width:0.8;" x="202.865528" xlink:href="#mf6be1d4172" y="307.584"/>
      </g>
     </g>
     <g id="text_3">
      <!-- $\mathdefault{10^{4}}$ -->
      <defs>
       <path d="M 37.796875 64.3125 
L 12.890625 25.390625 
L 37.796875 25.390625 
z
M 35.203125 72.90625 
L 47.609375 72.90625 
L 47.609375 25.390625 
L 58.015625 25.390625 
L 58.015625 17.1875 
L 47.609375 17.1875 
L 47.609375 0 
L 37.796875 0 
L 37.796875 17.1875 
L 4.890625 17.1875 
L 4.890625 26.703125 
z
" id="DejaVuSans-52"/>
      </defs>
      <g transform="translate(194.065528 322.182437)scale(0.1 -0.1)">
       <use transform="translate(0 0.684375)" xlink:href="#DejaVuSans-49"/>
       <use transform="translate(63.623047 0.684375)" xlink:href="#DejaVuSans-48"/>
       <use transform="translate(128.203125 38.965625)scale(0.7)" xlink:href="#DejaVuSans-52"/>
      </g>
     </g>
    </g>
    <g id="xtick_4">
     <g id="line2d_4">
      <g>
       <use style="stroke:#000000;stroke-width:0.8;" x="268.072776" xlink:href="#mf6be1d4172" y="307.584"/>
      </g>
     </g>
     <g id="text_4">
      <!-- $\mathdefault{10^{5}}$ -->
      <defs>
       <path d="M 10.796875 72.90625 
L 49.515625 72.90625 
L 49.515625 64.59375 
L 19.828125 64.59375 
L 19.828125 46.734375 
Q 21.96875 47.46875 24.109375 47.828125 
Q 26.265625 48.1875 28.421875 48.1875 
Q 40.625 48.1875 47.75 41.5 
Q 54.890625 34.8125 54.890625 23.390625 
Q 54.890625 11.625 47.5625 5.09375 
Q 40.234375 -1.421875 26.90625 -1.421875 
Q 22.3125 -1.421875 17.546875 -0.640625 
Q 12.796875 0.140625 7.71875 1.703125 
L 7.71875 11.625 
Q 12.109375 9.234375 16.796875 8.0625 
Q 21.484375 6.890625 26.703125 6.890625 
Q 35.15625 6.890625 40.078125 11.328125 
Q 45.015625 15.765625 45.015625 23.390625 
Q 45.015625 31 40.078125 35.4375 
Q 35.15625 39.890625 26.703125 39.890625 
Q 22.75 39.890625 18.8125 39.015625 
Q 14.890625 38.140625 10.796875 36.28125 
z
" id="DejaVuSans-53"/>
      </defs>
      <g transform="translate(259.272776 322.182437)scale(0.1 -0.1)">
       <use transform="translate(0 0.684375)" xlink:href="#DejaVuSans-49"/>
       <use transform="translate(63.623047 0.684375)" xlink:href="#DejaVuSans-48"/>
       <use transform="translate(128.203125 38.965625)scale(0.7)" xlink:href="#DejaVuSans-53"/>
      </g>
     </g>
    </g>
    <g id="xtick_5">
     <g id="line2d_5">
      <g>
       <use style="stroke:#000000;stroke-width:0.8;" x="333.280024" xlink:href="#mf6be1d4172" y="307.584"/>
      </g>
     </g>
     <g id="text_5">
      <!-- $\mathdefault{10^{6}}$ -->
      <defs>
       <path d="M 33.015625 40.375 
Q 26.375 40.375 22.484375 35.828125 
Q 18.609375 31.296875 18.609375 23.390625 
Q 18.609375 15.53125 22.484375 10.953125 
Q 26.375 6.390625 33.015625 6.390625 
Q 39.65625 6.390625 43.53125 10.953125 
Q 47.40625 15.53125 47.40625 23.390625 
Q 47.40625 31.296875 43.53125 35.828125 
Q 39.65625 40.375 33.015625 40.375 
z
M 52.59375 71.296875 
L 52.59375 62.3125 
Q 48.875 64.0625 45.09375 64.984375 
Q 41.3125 65.921875 37.59375 65.921875 
Q 27.828125 65.921875 22.671875 59.328125 
Q 17.53125 52.734375 16.796875 39.40625 
Q 19.671875 43.65625 24.015625 45.921875 
Q 28.375 48.1875 33.59375 48.1875 
Q 44.578125 48.1875 50.953125 41.515625 
Q 57.328125 34.859375 57.328125 23.390625 
Q 57.328125 12.15625 50.6875 5.359375 
Q 44.046875 -1.421875 33.015625 -1.421875 
Q 20.359375 -1.421875 13.671875 8.265625 
Q 6.984375 17.96875 6.984375 36.375 
Q 6.984375 53.65625 15.1875 63.9375 
Q 23.390625 74.21875 37.203125 74.21875 
Q 40.921875 74.21875 44.703125 73.484375 
Q 48.484375 72.75 52.59375 71.296875 
z
" id="DejaVuSans-54"/>
      </defs>
      <g transform="translate(324.480024 322.182437)scale(0.1 -0.1)">
       <use transform="translate(0 0.765625)" xlink:href="#DejaVuSans-49"/>
       <use transform="translate(63.623047 0.765625)" xlink:href="#DejaVuSans-48"/>
       <use transform="translate(128.203125 39.046875)scale(0.7)" xlink:href="#DejaVuSans-54"/>
      </g>
     </g>
    </g>
    <g id="xtick_6">
     <g id="line2d_6">
      <g>
       <use style="stroke:#000000;stroke-width:0.8;" x="398.487273" xlink:href="#mf6be1d4172" y="307.584"/>
      </g>
     </g>
     <g id="text_6">
      <!-- $\mathdefault{10^{7}}$ -->
      <defs>
       <path d="M 8.203125 72.90625 
L 55.078125 72.90625 
L 55.078125 68.703125 
L 28.609375 0 
L 18.3125 0 
L 43.21875 64.59375 
L 8.203125 64.59375 
z
" id="DejaVuSans-55"/>
      </defs>
      <g transform="translate(389.687273 322.182437)scale(0.1 -0.1)">
       <use transform="translate(0 0.684375)" xlink:href="#DejaVuSans-49"/>
       <use transform="translate(63.623047 0.684375)" xlink:href="#DejaVuSans-48"/>
       <use transform="translate(128.203125 38.965625)scale(0.7)" xlink:href="#DejaVuSans-55"/>
      </g>
     </g>
    </g>
    <g id="xtick_7">
     <g id="line2d_7">
      <defs>
       <path d="M 0 0 
L 0 2 
" id="m5d58457e0f" style="stroke:#000000;stroke-width:0.6;"/>
      </defs>
      <g>
       <use style="stroke:#000000;stroke-width:0.6;" x="57.984885" xlink:href="#m5d58457e0f" y="307.584"/>
      </g>
     </g>
    </g>
    <g id="xtick_8">
     <g id="line2d_8">
      <g>
       <use style="stroke:#000000;stroke-width:0.6;" x="62.350301" xlink:href="#m5d58457e0f" y="307.584"/>
      </g>
     </g>
    </g>
    <g id="xtick_9">
     <g id="line2d_9">
      <g>
       <use style="stroke:#000000;stroke-width:0.6;" x="66.131796" xlink:href="#m5d58457e0f" y="307.584"/>
      </g>
     </g>
    </g>
    <g id="xtick_10">
     <g id="line2d_10">
      <g>
       <use style="stroke:#000000;stroke-width:0.6;" x="69.467311" xlink:href="#m5d58457e0f" y="307.584"/>
      </g>
     </g>
    </g>
    <g id="xtick_11">
     <g id="line2d_11">
      <g>
       <use style="stroke:#000000;stroke-width:0.6;" x="92.080369" xlink:href="#m5d58457e0f" y="307.584"/>
      </g>
     </g>
    </g>
    <g id="xtick_12">
     <g id="line2d_12">
      <g>
       <use style="stroke:#000000;stroke-width:0.6;" x="103.562795" xlink:href="#m5d58457e0f" y="307.584"/>
      </g>
     </g>
    </g>
    <g id="xtick_13">
     <g id="line2d_13">
      <g>
       <use style="stroke:#000000;stroke-width:0.6;" x="111.709707" xlink:href="#m5d58457e0f" y="307.584"/>
      </g>
     </g>
    </g>
    <g id="xtick_14">
     <g id="line2d_14">
      <g>
       <use style="stroke:#000000;stroke-width:0.6;" x="118.028942" xlink:href="#m5d58457e0f" y="307.584"/>
      </g>
     </g>
    </g>
    <g id="xtick_15">
     <g id="line2d_15">
      <g>
       <use style="stroke:#000000;stroke-width:0.6;" x="123.192133" xlink:href="#m5d58457e0f" y="307.584"/>
      </g>
     </g>
    </g>
    <g id="xtick_16">
     <g id="line2d_16">
      <g>
       <use style="stroke:#000000;stroke-width:0.6;" x="127.557549" xlink:href="#m5d58457e0f" y="307.584"/>
      </g>
     </g>
    </g>
    <g id="xtick_17">
     <g id="line2d_17">
      <g>
       <use style="stroke:#000000;stroke-width:0.6;" x="131.339044" xlink:href="#m5d58457e0f" y="307.584"/>
      </g>
     </g>
    </g>
    <g id="xtick_18">
     <g id="line2d_18">
      <g>
       <use style="stroke:#000000;stroke-width:0.6;" x="134.67456" xlink:href="#m5d58457e0f" y="307.584"/>
      </g>
     </g>
    </g>
    <g id="xtick_19">
     <g id="line2d_19">
      <g>
       <use style="stroke:#000000;stroke-width:0.6;" x="157.287617" xlink:href="#m5d58457e0f" y="307.584"/>
      </g>
     </g>
    </g>
    <g id="xtick_20">
     <g id="line2d_20">
      <g>
       <use style="stroke:#000000;stroke-width:0.6;" x="168.770044" xlink:href="#m5d58457e0f" y="307.584"/>
      </g>
     </g>
    </g>
    <g id="xtick_21">
     <g id="line2d_21">
      <g>
       <use style="stroke:#000000;stroke-width:0.6;" x="176.916955" xlink:href="#m5d58457e0f" y="307.584"/>
      </g>
     </g>
    </g>
    <g id="xtick_22">
     <g id="line2d_22">
      <g>
       <use style="stroke:#000000;stroke-width:0.6;" x="183.23619" xlink:href="#m5d58457e0f" y="307.584"/>
      </g>
     </g>
    </g>
    <g id="xtick_23">
     <g id="line2d_23">
      <g>
       <use style="stroke:#000000;stroke-width:0.6;" x="188.399381" xlink:href="#m5d58457e0f" y="307.584"/>
      </g>
     </g>
    </g>
    <g id="xtick_24">
     <g id="line2d_24">
      <g>
       <use style="stroke:#000000;stroke-width:0.6;" x="192.764797" xlink:href="#m5d58457e0f" y="307.584"/>
      </g>
     </g>
    </g>
    <g id="xtick_25">
     <g id="line2d_25">
      <g>
       <use style="stroke:#000000;stroke-width:0.6;" x="196.546293" xlink:href="#m5d58457e0f" y="307.584"/>
      </g>
     </g>
    </g>
    <g id="xtick_26">
     <g id="line2d_26">
      <g>
       <use style="stroke:#000000;stroke-width:0.6;" x="199.881808" xlink:href="#m5d58457e0f" y="307.584"/>
      </g>
     </g>
    </g>
    <g id="xtick_27">
     <g id="line2d_27">
      <g>
       <use style="stroke:#000000;stroke-width:0.6;" x="222.494866" xlink:href="#m5d58457e0f" y="307.584"/>
      </g>
     </g>
    </g>
    <g id="xtick_28">
     <g id="line2d_28">
      <g>
       <use style="stroke:#000000;stroke-width:0.6;" x="233.977292" xlink:href="#m5d58457e0f" y="307.584"/>
      </g>
     </g>
    </g>
    <g id="xtick_29">
     <g id="line2d_29">
      <g>
       <use style="stroke:#000000;stroke-width:0.6;" x="242.124203" xlink:href="#m5d58457e0f" y="307.584"/>
      </g>
     </g>
    </g>
    <g id="xtick_30">
     <g id="line2d_30">
      <g>
       <use style="stroke:#000000;stroke-width:0.6;" x="248.443439" xlink:href="#m5d58457e0f" y="307.584"/>
      </g>
     </g>
    </g>
    <g id="xtick_31">
     <g id="line2d_31">
      <g>
       <use style="stroke:#000000;stroke-width:0.6;" x="253.60663" xlink:href="#m5d58457e0f" y="307.584"/>
      </g>
     </g>
    </g>
    <g id="xtick_32">
     <g id="line2d_32">
      <g>
       <use style="stroke:#000000;stroke-width:0.6;" x="257.972046" xlink:href="#m5d58457e0f" y="307.584"/>
      </g>
     </g>
    </g>
    <g id="xtick_33">
     <g id="line2d_33">
      <g>
       <use style="stroke:#000000;stroke-width:0.6;" x="261.753541" xlink:href="#m5d58457e0f" y="307.584"/>
      </g>
     </g>
    </g>
    <g id="xtick_34">
     <g id="line2d_34">
      <g>
       <use style="stroke:#000000;stroke-width:0.6;" x="265.089056" xlink:href="#m5d58457e0f" y="307.584"/>
      </g>
     </g>
    </g>
    <g id="xtick_35">
     <g id="line2d_35">
      <g>
       <use style="stroke:#000000;stroke-width:0.6;" x="287.702114" xlink:href="#m5d58457e0f" y="307.584"/>
      </g>
     </g>
    </g>
    <g id="xtick_36">
     <g id="line2d_36">
      <g>
       <use style="stroke:#000000;stroke-width:0.6;" x="299.18454" xlink:href="#m5d58457e0f" y="307.584"/>
      </g>
     </g>
    </g>
    <g id="xtick_37">
     <g id="line2d_37">
      <g>
       <use style="stroke:#000000;stroke-width:0.6;" x="307.331452" xlink:href="#m5d58457e0f" y="307.584"/>
      </g>
     </g>
    </g>
    <g id="xtick_38">
     <g id="line2d_38">
      <g>
       <use style="stroke:#000000;stroke-width:0.6;" x="313.650687" xlink:href="#m5d58457e0f" y="307.584"/>
      </g>
     </g>
    </g>
    <g id="xtick_39">
     <g id="line2d_39">
      <g>
       <use style="stroke:#000000;stroke-width:0.6;" x="318.813878" xlink:href="#m5d58457e0f" y="307.584"/>
      </g>
     </g>
    </g>
    <g id="xtick_40">
     <g id="line2d_40">
      <g>
       <use style="stroke:#000000;stroke-width:0.6;" x="323.179294" xlink:href="#m5d58457e0f" y="307.584"/>
      </g>
     </g>
    </g>
    <g id="xtick_41">
     <g id="line2d_41">
      <g>
       <use style="stroke:#000000;stroke-width:0.6;" x="326.960789" xlink:href="#m5d58457e0f" y="307.584"/>
      </g>
     </g>
    </g>
    <g id="xtick_42">
     <g id="line2d_42">
      <g>
       <use style="stroke:#000000;stroke-width:0.6;" x="330.296304" xlink:href="#m5d58457e0f" y="307.584"/>
      </g>
     </g>
    </g>
    <g id="xtick_43">
     <g id="line2d_43">
      <g>
       <use style="stroke:#000000;stroke-width:0.6;" x="352.909362" xlink:href="#m5d58457e0f" y="307.584"/>
      </g>
     </g>
    </g>
    <g id="xtick_44">
     <g id="line2d_44">
      <g>
       <use style="stroke:#000000;stroke-width:0.6;" x="364.391789" xlink:href="#m5d58457e0f" y="307.584"/>
      </g>
     </g>
    </g>
    <g id="xtick_45">
     <g id="line2d_45">
      <g>
       <use style="stroke:#000000;stroke-width:0.6;" x="372.5387" xlink:href="#m5d58457e0f" y="307.584"/>
      </g>
     </g>
    </g>
    <g id="xtick_46">
     <g id="line2d_46">
      <g>
       <use style="stroke:#000000;stroke-width:0.6;" x="378.857935" xlink:href="#m5d58457e0f" y="307.584"/>
      </g>
     </g>
    </g>
    <g id="xtick_47">
     <g id="line2d_47">
      <g>
       <use style="stroke:#000000;stroke-width:0.6;" x="384.021126" xlink:href="#m5d58457e0f" y="307.584"/>
      </g>
     </g>
    </g>
    <g id="xtick_48">
     <g id="line2d_48">
      <g>
       <use style="stroke:#000000;stroke-width:0.6;" x="388.386542" xlink:href="#m5d58457e0f" y="307.584"/>
      </g>
     </g>
    </g>
    <g id="xtick_49">
     <g id="line2d_49">
      <g>
       <use style="stroke:#000000;stroke-width:0.6;" x="392.168037" xlink:href="#m5d58457e0f" y="307.584"/>
      </g>
     </g>
    </g>
    <g id="xtick_50">
     <g id="line2d_50">
      <g>
       <use style="stroke:#000000;stroke-width:0.6;" x="395.503553" xlink:href="#m5d58457e0f" y="307.584"/>
      </g>
     </g>
    </g>
    <g id="text_7">
     <!-- Number of elements -->
     <defs>
      <path d="M 9.8125 72.90625 
L 23.09375 72.90625 
L 55.421875 11.921875 
L 55.421875 72.90625 
L 64.984375 72.90625 
L 64.984375 0 
L 51.703125 0 
L 19.390625 60.984375 
L 19.390625 0 
L 9.8125 0 
z
" id="DejaVuSans-78"/>
      <path d="M 8.5 21.578125 
L 8.5 54.6875 
L 17.484375 54.6875 
L 17.484375 21.921875 
Q 17.484375 14.15625 20.5 10.265625 
Q 23.53125 6.390625 29.59375 6.390625 
Q 36.859375 6.390625 41.078125 11.03125 
Q 45.3125 15.671875 45.3125 23.6875 
L 45.3125 54.6875 
L 54.296875 54.6875 
L 54.296875 0 
L 45.3125 0 
L 45.3125 8.40625 
Q 42.046875 3.421875 37.71875 1 
Q 33.40625 -1.421875 27.6875 -1.421875 
Q 18.265625 -1.421875 13.375 4.4375 
Q 8.5 10.296875 8.5 21.578125 
z
M 31.109375 56 
z
" id="DejaVuSans-117"/>
      <path d="M 52 44.1875 
Q 55.375 50.25 60.0625 53.125 
Q 64.75 56 71.09375 56 
Q 79.640625 56 84.28125 50.015625 
Q 88.921875 44.046875 88.921875 33.015625 
L 88.921875 0 
L 79.890625 0 
L 79.890625 32.71875 
Q 79.890625 40.578125 77.09375 44.375 
Q 74.3125 48.1875 68.609375 48.1875 
Q 61.625 48.1875 57.5625 43.546875 
Q 53.515625 38.921875 53.515625 30.90625 
L 53.515625 0 
L 44.484375 0 
L 44.484375 32.71875 
Q 44.484375 40.625 41.703125 44.40625 
Q 38.921875 48.1875 33.109375 48.1875 
Q 26.21875 48.1875 22.15625 43.53125 
Q 18.109375 38.875 18.109375 30.90625 
L 18.109375 0 
L 9.078125 0 
L 9.078125 54.6875 
L 18.109375 54.6875 
L 18.109375 46.1875 
Q 21.1875 51.21875 25.484375 53.609375 
Q 29.78125 56 35.6875 56 
Q 41.65625 56 45.828125 52.96875 
Q 50 49.953125 52 44.1875 
z
" id="DejaVuSans-109"/>
      <path d="M 48.6875 27.296875 
Q 48.6875 37.203125 44.609375 42.84375 
Q 40.53125 48.484375 33.40625 48.484375 
Q 26.265625 48.484375 22.1875 42.84375 
Q 18.109375 37.203125 18.109375 27.296875 
Q 18.109375 17.390625 22.1875 11.75 
Q 26.265625 6.109375 33.40625 6.109375 
Q 40.53125 6.109375 44.609375 11.75 
Q 48.6875 17.390625 48.6875 27.296875 
z
M 18.109375 46.390625 
Q 20.953125 51.265625 25.265625 53.625 
Q 29.59375 56 35.59375 56 
Q 45.5625 56 51.78125 48.09375 
Q 58.015625 40.1875 58.015625 27.296875 
Q 58.015625 14.40625 51.78125 6.484375 
Q 45.5625 -1.421875 35.59375 -1.421875 
Q 29.59375 -1.421875 25.265625 0.953125 
Q 20.953125 3.328125 18.109375 8.203125 
L 18.109375 0 
L 9.078125 0 
L 9.078125 75.984375 
L 18.109375 75.984375 
z
" id="DejaVuSans-98"/>
      <path d="M 56.203125 29.59375 
L 56.203125 25.203125 
L 14.890625 25.203125 
Q 15.484375 15.921875 20.484375 11.0625 
Q 25.484375 6.203125 34.421875 6.203125 
Q 39.59375 6.203125 44.453125 7.46875 
Q 49.3125 8.734375 54.109375 11.28125 
L 54.109375 2.78125 
Q 49.265625 0.734375 44.1875 -0.34375 
Q 39.109375 -1.421875 33.890625 -1.421875 
Q 20.796875 -1.421875 13.15625 6.1875 
Q 5.515625 13.8125 5.515625 26.8125 
Q 5.515625 40.234375 12.765625 48.109375 
Q 20.015625 56 32.328125 56 
Q 43.359375 56 49.78125 48.890625 
Q 56.203125 41.796875 56.203125 29.59375 
z
M 47.21875 32.234375 
Q 47.125 39.59375 43.09375 43.984375 
Q 39.0625 48.390625 32.421875 48.390625 
Q 24.90625 48.390625 20.390625 44.140625 
Q 15.875 39.890625 15.1875 32.171875 
z
" id="DejaVuSans-101"/>
      <path d="M 41.109375 46.296875 
Q 39.59375 47.171875 37.8125 47.578125 
Q 36.03125 48 33.890625 48 
Q 26.265625 48 22.1875 43.046875 
Q 18.109375 38.09375 18.109375 28.8125 
L 18.109375 0 
L 9.078125 0 
L 9.078125 54.6875 
L 18.109375 54.6875 
L 18.109375 46.1875 
Q 20.953125 51.171875 25.484375 53.578125 
Q 30.03125 56 36.53125 56 
Q 37.453125 56 38.578125 55.875 
Q 39.703125 55.765625 41.0625 55.515625 
z
" id="DejaVuSans-114"/>
      <path id="DejaVuSans-32"/>
      <path d="M 30.609375 48.390625 
Q 23.390625 48.390625 19.1875 42.75 
Q 14.984375 37.109375 14.984375 27.296875 
Q 14.984375 17.484375 19.15625 11.84375 
Q 23.34375 6.203125 30.609375 6.203125 
Q 37.796875 6.203125 41.984375 11.859375 
Q 46.1875 17.53125 46.1875 27.296875 
Q 46.1875 37.015625 41.984375 42.703125 
Q 37.796875 48.390625 30.609375 48.390625 
z
M 30.609375 56 
Q 42.328125 56 49.015625 48.375 
Q 55.71875 40.765625 55.71875 27.296875 
Q 55.71875 13.875 49.015625 6.21875 
Q 42.328125 -1.421875 30.609375 -1.421875 
Q 18.84375 -1.421875 12.171875 6.21875 
Q 5.515625 13.875 5.515625 27.296875 
Q 5.515625 40.765625 12.171875 48.375 
Q 18.84375 56 30.609375 56 
z
" id="DejaVuSans-111"/>
      <path d="M 37.109375 75.984375 
L 37.109375 68.5 
L 28.515625 68.5 
Q 23.6875 68.5 21.796875 66.546875 
Q 19.921875 64.59375 19.921875 59.515625 
L 19.921875 54.6875 
L 34.71875 54.6875 
L 34.71875 47.703125 
L 19.921875 47.703125 
L 19.921875 0 
L 10.890625 0 
L 10.890625 47.703125 
L 2.296875 47.703125 
L 2.296875 54.6875 
L 10.890625 54.6875 
L 10.890625 58.5 
Q 10.890625 67.625 15.140625 71.796875 
Q 19.390625 75.984375 28.609375 75.984375 
z
" id="DejaVuSans-102"/>
      <path d="M 9.421875 75.984375 
L 18.40625 75.984375 
L 18.40625 0 
L 9.421875 0 
z
" id="DejaVuSans-108"/>
      <path d="M 54.890625 33.015625 
L 54.890625 0 
L 45.90625 0 
L 45.90625 32.71875 
Q 45.90625 40.484375 42.875 44.328125 
Q 39.84375 48.1875 33.796875 48.1875 
Q 26.515625 48.1875 22.3125 43.546875 
Q 18.109375 38.921875 18.109375 30.90625 
L 18.109375 0 
L 9.078125 0 
L 9.078125 54.6875 
L 18.109375 54.6875 
L 18.109375 46.1875 
Q 21.34375 51.125 25.703125 53.5625 
Q 30.078125 56 35.796875 56 
Q 45.21875 56 50.046875 50.171875 
Q 54.890625 44.34375 54.890625 33.015625 
z
" id="DejaVuSans-110"/>
      <path d="M 18.3125 70.21875 
L 18.3125 54.6875 
L 36.8125 54.6875 
L 36.8125 47.703125 
L 18.3125 47.703125 
L 18.3125 18.015625 
Q 18.3125 11.328125 20.140625 9.421875 
Q 21.96875 7.515625 27.59375 7.515625 
L 36.8125 7.515625 
L 36.8125 0 
L 27.59375 0 
Q 17.1875 0 13.234375 3.875 
Q 9.28125 7.765625 9.28125 18.015625 
L 9.28125 47.703125 
L 2.6875 47.703125 
L 2.6875 54.6875 
L 9.28125 54.6875 
L 9.28125 70.21875 
z
" id="DejaVuSans-116"/>
      <path d="M 44.28125 53.078125 
L 44.28125 44.578125 
Q 40.484375 46.53125 36.375 47.5 
Q 32.28125 48.484375 27.875 48.484375 
Q 21.1875 48.484375 17.84375 46.4375 
Q 14.5 44.390625 14.5 40.28125 
Q 14.5 37.15625 16.890625 35.375 
Q 19.28125 33.59375 26.515625 31.984375 
L 29.59375 31.296875 
Q 39.15625 29.25 43.1875 25.515625 
Q 47.21875 21.78125 47.21875 15.09375 
Q 47.21875 7.46875 41.1875 3.015625 
Q 35.15625 -1.421875 24.609375 -1.421875 
Q 20.21875 -1.421875 15.453125 -0.5625 
Q 10.6875 0.296875 5.421875 2 
L 5.421875 11.28125 
Q 10.40625 8.6875 15.234375 7.390625 
Q 20.0625 6.109375 24.8125 6.109375 
Q 31.15625 6.109375 34.5625 8.28125 
Q 37.984375 10.453125 37.984375 14.40625 
Q 37.984375 18.0625 35.515625 20.015625 
Q 33.0625 21.96875 24.703125 23.78125 
L 21.578125 24.515625 
Q 13.234375 26.265625 9.515625 29.90625 
Q 5.8125 33.546875 5.8125 39.890625 
Q 5.8125 47.609375 11.28125 51.796875 
Q 16.75 56 26.8125 56 
Q 31.78125 56 36.171875 55.265625 
Q 40.578125 54.546875 44.28125 53.078125 
z
" id="DejaVuSans-115"/>
     </defs>
     <g transform="translate(184.85375 335.860562)scale(0.1 -0.1)">
      <use xlink:href="#DejaVuSans-78"/>
      <use x="74.804688" xlink:href="#DejaVuSans-117"/>
      <use x="138.183594" xlink:href="#DejaVuSans-109"/>
      <use x="235.595703" xlink:href="#DejaVuSans-98"/>
      <use x="299.072266" xlink:href="#DejaVuSans-101"/>
      <use x="360.595703" xlink:href="#DejaVuSans-114"/>
      <use x="401.708984" xlink:href="#DejaVuSans-32"/>
      <use x="433.496094" xlink:href="#DejaVuSans-111"/>
      <use x="494.677734" xlink:href="#DejaVuSans-102"/>
      <use x="529.882812" xlink:href="#DejaVuSans-32"/>
      <use x="561.669922" xlink:href="#DejaVuSans-101"/>
      <use x="623.193359" xlink:href="#DejaVuSans-108"/>
      <use x="650.976562" xlink:href="#DejaVuSans-101"/>
      <use x="712.5" xlink:href="#DejaVuSans-109"/>
      <use x="809.912109" xlink:href="#DejaVuSans-101"/>
      <use x="871.435547" xlink:href="#DejaVuSans-110"/>
      <use x="934.814453" xlink:href="#DejaVuSans-116"/>
      <use x="974.023438" xlink:href="#DejaVuSans-115"/>
     </g>
    </g>
   </g>
   <g id="matplotlib.axis_2">
    <g id="ytick_1">
     <g id="line2d_51">
      <defs>
       <path d="M 0 0 
L -3.5 0 
" id="md452cace1c" style="stroke:#000000;stroke-width:0.8;"/>
      </defs>
      <g>
       <use style="stroke:#000000;stroke-width:0.8;" x="57.6" xlink:href="#md452cace1c" y="306.243873"/>
      </g>
     </g>
     <g id="text_8">
      <!-- $\mathdefault{10^{-3}}$ -->
      <defs>
       <path d="M 10.59375 35.5 
L 73.1875 35.5 
L 73.1875 27.203125 
L 10.59375 27.203125 
z
" id="DejaVuSans-8722"/>
      </defs>
      <g transform="translate(27.1 310.043091)scale(0.1 -0.1)">
       <use transform="translate(0 0.765625)" xlink:href="#DejaVuSans-49"/>
       <use transform="translate(63.623047 0.765625)" xlink:href="#DejaVuSans-48"/>
       <use transform="translate(128.203125 39.046875)scale(0.7)" xlink:href="#DejaVuSans-8722"/>
       <use transform="translate(186.855469 39.046875)scale(0.7)" xlink:href="#DejaVuSans-51"/>
      </g>
     </g>
    </g>
    <g id="ytick_2">
     <g id="line2d_52">
      <g>
       <use style="stroke:#000000;stroke-width:0.8;" x="57.6" xlink:href="#md452cace1c" y="232.638061"/>
      </g>
     </g>
     <g id="text_9">
      <!-- $\mathdefault{10^{-2}}$ -->
      <g transform="translate(27.1 236.43728)scale(0.1 -0.1)">
       <use transform="translate(0 0.765625)" xlink:href="#DejaVuSans-49"/>
       <use transform="translate(63.623047 0.765625)" xlink:href="#DejaVuSans-48"/>
       <use transform="translate(128.203125 39.046875)scale(0.7)" xlink:href="#DejaVuSans-8722"/>
       <use transform="translate(186.855469 39.046875)scale(0.7)" xlink:href="#DejaVuSans-50"/>
      </g>
     </g>
    </g>
    <g id="ytick_3">
     <g id="line2d_53">
      <g>
       <use style="stroke:#000000;stroke-width:0.8;" x="57.6" xlink:href="#md452cace1c" y="159.03225"/>
      </g>
     </g>
     <g id="text_10">
      <!-- $\mathdefault{10^{-1}}$ -->
      <g transform="translate(27.1 162.831468)scale(0.1 -0.1)">
       <use transform="translate(0 0.684375)" xlink:href="#DejaVuSans-49"/>
       <use transform="translate(63.623047 0.684375)" xlink:href="#DejaVuSans-48"/>
       <use transform="translate(128.203125 38.965625)scale(0.7)" xlink:href="#DejaVuSans-8722"/>
       <use transform="translate(186.855469 38.965625)scale(0.7)" xlink:href="#DejaVuSans-49"/>
      </g>
     </g>
    </g>
    <g id="ytick_4">
     <g id="line2d_54">
      <g>
       <use style="stroke:#000000;stroke-width:0.8;" x="57.6" xlink:href="#md452cace1c" y="85.426438"/>
      </g>
     </g>
     <g id="text_11">
      <!-- $\mathdefault{10^{0}}$ -->
      <g transform="translate(33 89.225657)scale(0.1 -0.1)">
       <use transform="translate(0 0.765625)" xlink:href="#DejaVuSans-49"/>
       <use transform="translate(63.623047 0.765625)" xlink:href="#DejaVuSans-48"/>
       <use transform="translate(128.203125 39.046875)scale(0.7)" xlink:href="#DejaVuSans-48"/>
      </g>
     </g>
    </g>
    <g id="ytick_5">
     <g id="line2d_55">
      <defs>
       <path d="M 0 0 
L -2 0 
" id="mbf6026bdbf" style="stroke:#000000;stroke-width:0.6;"/>
      </defs>
      <g>
       <use style="stroke:#000000;stroke-width:0.6;" x="57.6" xlink:href="#mbf6026bdbf" y="284.086316"/>
      </g>
     </g>
    </g>
    <g id="ytick_6">
     <g id="line2d_56">
      <g>
       <use style="stroke:#000000;stroke-width:0.6;" x="57.6" xlink:href="#mbf6026bdbf" y="271.124975"/>
      </g>
     </g>
    </g>
    <g id="ytick_7">
     <g id="line2d_57">
      <g>
       <use style="stroke:#000000;stroke-width:0.6;" x="57.6" xlink:href="#mbf6026bdbf" y="261.928758"/>
      </g>
     </g>
    </g>
    <g id="ytick_8">
     <g id="line2d_58">
      <g>
       <use style="stroke:#000000;stroke-width:0.6;" x="57.6" xlink:href="#mbf6026bdbf" y="254.795618"/>
      </g>
     </g>
    </g>
    <g id="ytick_9">
     <g id="line2d_59">
      <g>
       <use style="stroke:#000000;stroke-width:0.6;" x="57.6" xlink:href="#mbf6026bdbf" y="248.967418"/>
      </g>
     </g>
    </g>
    <g id="ytick_10">
     <g id="line2d_60">
      <g>
       <use style="stroke:#000000;stroke-width:0.6;" x="57.6" xlink:href="#mbf6026bdbf" y="244.039746"/>
      </g>
     </g>
    </g>
    <g id="ytick_11">
     <g id="line2d_61">
      <g>
       <use style="stroke:#000000;stroke-width:0.6;" x="57.6" xlink:href="#mbf6026bdbf" y="239.771201"/>
      </g>
     </g>
    </g>
    <g id="ytick_12">
     <g id="line2d_62">
      <g>
       <use style="stroke:#000000;stroke-width:0.6;" x="57.6" xlink:href="#mbf6026bdbf" y="236.006078"/>
      </g>
     </g>
    </g>
    <g id="ytick_13">
     <g id="line2d_63">
      <g>
       <use style="stroke:#000000;stroke-width:0.6;" x="57.6" xlink:href="#mbf6026bdbf" y="210.480504"/>
      </g>
     </g>
    </g>
    <g id="ytick_14">
     <g id="line2d_64">
      <g>
       <use style="stroke:#000000;stroke-width:0.6;" x="57.6" xlink:href="#mbf6026bdbf" y="197.519164"/>
      </g>
     </g>
    </g>
    <g id="ytick_15">
     <g id="line2d_65">
      <g>
       <use style="stroke:#000000;stroke-width:0.6;" x="57.6" xlink:href="#mbf6026bdbf" y="188.322947"/>
      </g>
     </g>
    </g>
    <g id="ytick_16">
     <g id="line2d_66">
      <g>
       <use style="stroke:#000000;stroke-width:0.6;" x="57.6" xlink:href="#mbf6026bdbf" y="181.189807"/>
      </g>
     </g>
    </g>
    <g id="ytick_17">
     <g id="line2d_67">
      <g>
       <use style="stroke:#000000;stroke-width:0.6;" x="57.6" xlink:href="#mbf6026bdbf" y="175.361607"/>
      </g>
     </g>
    </g>
    <g id="ytick_18">
     <g id="line2d_68">
      <g>
       <use style="stroke:#000000;stroke-width:0.6;" x="57.6" xlink:href="#mbf6026bdbf" y="170.433934"/>
      </g>
     </g>
    </g>
    <g id="ytick_19">
     <g id="line2d_69">
      <g>
       <use style="stroke:#000000;stroke-width:0.6;" x="57.6" xlink:href="#mbf6026bdbf" y="166.16539"/>
      </g>
     </g>
    </g>
    <g id="ytick_20">
     <g id="line2d_70">
      <g>
       <use style="stroke:#000000;stroke-width:0.6;" x="57.6" xlink:href="#mbf6026bdbf" y="162.400267"/>
      </g>
     </g>
    </g>
    <g id="ytick_21">
     <g id="line2d_71">
      <g>
       <use style="stroke:#000000;stroke-width:0.6;" x="57.6" xlink:href="#mbf6026bdbf" y="136.874692"/>
      </g>
     </g>
    </g>
    <g id="ytick_22">
     <g id="line2d_72">
      <g>
       <use style="stroke:#000000;stroke-width:0.6;" x="57.6" xlink:href="#mbf6026bdbf" y="123.913352"/>
      </g>
     </g>
    </g>
    <g id="ytick_23">
     <g id="line2d_73">
      <g>
       <use style="stroke:#000000;stroke-width:0.6;" x="57.6" xlink:href="#mbf6026bdbf" y="114.717135"/>
      </g>
     </g>
    </g>
    <g id="ytick_24">
     <g id="line2d_74">
      <g>
       <use style="stroke:#000000;stroke-width:0.6;" x="57.6" xlink:href="#mbf6026bdbf" y="107.583995"/>
      </g>
     </g>
    </g>
    <g id="ytick_25">
     <g id="line2d_75">
      <g>
       <use style="stroke:#000000;stroke-width:0.6;" x="57.6" xlink:href="#mbf6026bdbf" y="101.755795"/>
      </g>
     </g>
    </g>
    <g id="ytick_26">
     <g id="line2d_76">
      <g>
       <use style="stroke:#000000;stroke-width:0.6;" x="57.6" xlink:href="#mbf6026bdbf" y="96.828123"/>
      </g>
     </g>
    </g>
    <g id="ytick_27">
     <g id="line2d_77">
      <g>
       <use style="stroke:#000000;stroke-width:0.6;" x="57.6" xlink:href="#mbf6026bdbf" y="92.559578"/>
      </g>
     </g>
    </g>
    <g id="ytick_28">
     <g id="line2d_78">
      <g>
       <use style="stroke:#000000;stroke-width:0.6;" x="57.6" xlink:href="#mbf6026bdbf" y="88.794455"/>
      </g>
     </g>
    </g>
    <g id="ytick_29">
     <g id="line2d_79">
      <g>
       <use style="stroke:#000000;stroke-width:0.6;" x="57.6" xlink:href="#mbf6026bdbf" y="63.268881"/>
      </g>
     </g>
    </g>
    <g id="ytick_30">
     <g id="line2d_80">
      <g>
       <use style="stroke:#000000;stroke-width:0.6;" x="57.6" xlink:href="#mbf6026bdbf" y="50.307541"/>
      </g>
     </g>
    </g>
    <g id="text_12">
     <!-- Elements / ns -->
     <defs>
      <path d="M 9.8125 72.90625 
L 55.90625 72.90625 
L 55.90625 64.59375 
L 19.671875 64.59375 
L 19.671875 43.015625 
L 54.390625 43.015625 
L 54.390625 34.71875 
L 19.671875 34.71875 
L 19.671875 8.296875 
L 56.78125 8.296875 
L 56.78125 0 
L 9.8125 0 
z
" id="DejaVuSans-69"/>
      <path d="M 25.390625 72.90625 
L 33.6875 72.90625 
L 8.296875 -9.28125 
L 0 -9.28125 
z
" id="DejaVuSans-47"/>
     </defs>
     <g transform="translate(21.020312 208.469406)rotate(-90)scale(0.1 -0.1)">
      <use xlink:href="#DejaVuSans-69"/>
      <use x="63.183594" xlink:href="#DejaVuSans-108"/>
      <use x="90.966797" xlink:href="#DejaVuSans-101"/>
      <use x="152.490234" xlink:href="#DejaVuSans-109"/>
      <use x="249.902344" xlink:href="#DejaVuSans-101"/>
      <use x="311.425781" xlink:href="#DejaVuSans-110"/>
      <use x="374.804688" xlink:href="#DejaVuSans-116"/>
      <use x="414.013672" xlink:href="#DejaVuSans-115"/>
      <use x="466.113281" xlink:href="#DejaVuSans-32"/>
      <use x="497.900391" xlink:href="#DejaVuSans-47"/>
      <use x="531.591797" xlink:href="#DejaVuSans-32"/>
      <use x="563.378906" xlink:href="#DejaVuSans-110"/>
      <use x="626.757812" xlink:href="#DejaVuSans-115"/>
     </g>
    </g>
   </g>
   <g id="line2d_81">
    <path clip-path="url(#p066952b08e)" d="M 73.832727 287.454333 
L 75.660403 287.454333 
L 77.138259 284.086316 
L 78.995918 282.52666 
L 80.527056 281.039573 
L 82.181199 278.258116 
L 83.744031 276.953175 
L 85.404913 274.492993 
L 87.14283 273.330443 
L 88.780231 271.124975 
L 90.32811 270.076796 
L 93.730495 266.197303 
L 95.289741 263.568431 
L 100.262657 258.882016 
L 103.562795 254.795618 
L 106.856325 251.172886 
L 108.489005 249.504685 
L 110.107683 247.407763 
L 111.709707 245.920676 
L 116.635916 240.173302 
L 118.310727 238.211546 
L 119.944977 237.833238 
L 121.590109 234.957899 
L 124.842259 231.078406 
L 126.485663 229.591319 
L 129.774455 225.504921 
L 131.409754 224.006212 
L 134.706008 219.890545 
L 137.968089 216.436827 
L 139.600769 214.205694 
L 141.244408 212.628939 
L 142.89218 210.480504 
L 146.156986 207.144469 
L 147.807112 205.054405 
L 149.441177 203.604125 
L 151.092008 201.364303 
L 152.718517 199.839002 
L 154.366759 197.412786 
L 155.998515 196.061151 
L 157.639413 194.087277 
L 159.282941 191.869051 
L 160.911148 190.556969 
L 162.556807 188.322947 
L 164.189849 186.763291 
L 167.476001 182.896848 
L 169.107851 181.125937 
L 170.747767 179.02699 
L 172.389421 177.624208 
L 175.664876 173.59963 
L 177.303691 172.073606 
L 178.94525 170.251788 
L 180.577837 168.100855 
L 182.221389 166.365808 
L 183.857999 164.227427 
L 185.494217 162.649868 
L 188.774475 158.777534 
L 193.688157 153.579186 
L 195.327493 163.046079 
L 196.964438 149.796099 
L 198.604229 147.688157 
L 200.241371 146.499998 
L 203.520562 142.524379 
L 205.157527 140.816117 
L 206.796366 139.315062 
L 208.434072 136.874692 
L 210.072388 135.375984 
L 211.712404 133.581885 
L 213.350759 131.992719 
L 214.988226 134.652181 
L 216.626892 128.194077 
L 218.264822 127.459457 
L 219.903312 128.549333 
L 221.541637 126.741341 
L 223.180322 125.586691 
L 224.819493 123.134411 
L 228.09596 119.288509 
L 229.734641 118.005336 
L 231.372805 119.178057 
L 233.011369 117.539304 
L 236.287568 113.849924 
L 237.9262 112.53192 
L 239.564441 113.089053 
L 241.203174 111.918367 
L 242.84143 110.242473 
L 244.480118 107.763511 
L 246.118442 109.324774 
L 247.756651 106.950973 
L 249.395212 105.177135 
L 251.03369 105.848248 
L 252.671945 104.029836 
L 254.310047 105.153425 
L 255.948643 102.762445 
L 257.587133 101.065368 
L 259.225534 103.609292 
L 262.502157 99.672745 
L 264.140384 99.657774 
L 265.778812 96.052152 
L 267.417307 96.437783 
L 269.05575 94.262405 
L 270.694023 94.529024 
L 272.332486 94.296138 
L 273.970905 93.549737 
L 275.609249 92.134859 
L 277.247621 92.099391 
L 278.886011 88.617355 
L 280.524314 88.231153 
L 282.162678 87.133479 
L 283.801103 86.768028 
L 287.077783 84.9505 
L 288.716253 83.323428 
L 290.354581 82.924844 
L 295.269713 81.240714 
L 298.546455 79.576934 
L 300.184832 79.777218 
L 301.823251 78.967827 
L 303.461625 79.033191 
L 305.099987 78.91824 
L 306.73837 78.557794 
L 308.376721 79.298628 
L 310.015104 80.40483 
L 311.653465 81.355899 
L 313.291828 81.277192 
L 316.568596 82.096164 
L 318.20696 82.812711 
L 321.483703 83.371354 
L 323.122072 84.148105 
L 324.760446 84.62151 
L 328.037224 85.254283 
L 329.675592 85.407264 
L 331.313965 85.420045 
L 332.952324 85.146363 
L 334.590699 85.10836 
L 336.229083 84.79655 
L 337.867456 84.900149 
L 341.144207 84.553005 
L 342.782586 84.512594 
L 344.420948 84.596582 
L 346.059332 84.413338 
L 347.697692 84.472234 
L 350.974445 84.203437 
L 357.527941 84.013251 
L 370.634928 83.720982 
L 375.550044 83.714922 
L 380.465165 83.587914 
L 390.295404 83.518576 
L 395.210525 83.479451 
L 398.487273 83.440373 
L 398.487273 83.440373 
" style="fill:none;stroke:#1f77b4;stroke-linecap:square;stroke-width:1.5;"/>
   </g>
   <g id="line2d_82">
    <path clip-path="url(#p066952b08e)" d="M 73.832727 238.594384 
L 77.138259 236.006078 
L 78.995918 234.957899 
L 80.527056 233.611738 
L 82.181199 232.959336 
L 85.404913 230.475244 
L 87.14283 229.591319 
L 88.780231 228.170347 
L 90.32811 227.619185 
L 92.080369 226.544577 
L 93.730495 225.250206 
L 98.625256 222.808821 
L 100.262657 221.882188 
L 101.910782 221.204426 
L 105.212921 219.464318 
L 106.856325 218.835446 
L 108.489005 218.015745 
L 110.107683 217.414475 
L 113.359833 215.864275 
L 115.045222 215.301799 
L 116.635916 214.566902 
L 118.310727 214.205694 
L 119.944977 225.504921 
L 121.590109 219.676721 
L 123.239292 214.932238 
L 124.842259 212.120176 
L 126.485663 211.619384 
L 128.118343 211.454181 
L 131.409754 210.162426 
L 134.706008 209.53561 
L 136.324685 209.073434 
L 137.968089 208.920848 
L 139.600769 208.020321 
L 141.244408 207.872669 
L 146.156986 207.000799 
L 147.807112 206.573622 
L 149.441177 206.573622 
L 151.092008 214.749048 
L 152.718517 205.32531 
L 154.366759 206.573622 
L 155.998515 205.736021 
L 157.639413 205.461628 
L 159.282941 205.054405 
L 160.911148 205.054405 
L 162.556807 204.919809 
L 164.189849 204.652304 
L 165.828247 204.652304 
L 167.476001 204.38702 
L 169.107851 204.38702 
L 170.747767 204.652304 
L 172.389421 203.862965 
L 174.027475 203.993176 
L 175.664876 203.862965 
L 177.303691 203.862965 
L 178.94525 203.475487 
L 180.577837 203.862965 
L 183.857999 203.347364 
L 185.494217 203.347364 
L 187.134967 203.219752 
L 188.774475 203.475487 
L 190.412295 202.966048 
L 192.051968 202.966048 
L 193.688157 203.092649 
L 195.327493 202.966048 
L 196.964438 202.966048 
L 198.604229 202.839947 
L 200.241371 203.092649 
L 201.880064 202.714341 
L 205.157527 202.966048 
L 206.796366 202.966048 
L 208.434072 202.839947 
L 210.072388 202.966048 
L 211.712404 202.464601 
L 214.988226 202.464601 
L 216.626892 205.189571 
L 218.264822 202.464601 
L 219.903312 202.340459 
L 221.541637 202.589227 
L 223.180322 202.589227 
L 224.819493 202.464601 
L 226.457729 202.589227 
L 228.09596 202.589227 
L 229.734641 202.464601 
L 231.372805 202.464601 
L 233.011369 202.340459 
L 234.649846 202.340459 
L 236.287568 202.216797 
L 237.9262 202.340459 
L 239.564441 202.216797 
L 241.203174 202.340459 
L 242.84143 202.714341 
L 244.480118 202.216797 
L 247.756651 202.216797 
L 249.395212 202.340459 
L 251.03369 202.340459 
L 254.310047 202.093611 
L 257.587133 202.340459 
L 259.225534 202.093611 
L 260.863579 202.093611 
L 262.502157 202.216797 
L 264.140384 202.216797 
L 265.778812 202.093611 
L 272.332486 202.093611 
L 273.970905 202.216797 
L 275.609249 202.216797 
L 277.247621 201.970898 
L 278.886011 201.970898 
L 280.524314 202.093611 
L 282.162678 201.970898 
L 283.801103 202.093611 
L 285.439455 202.093611 
L 287.077783 202.216797 
L 288.716253 201.970898 
L 290.354581 202.093611 
L 291.992993 201.970898 
L 301.823251 201.970898 
L 303.461625 202.093611 
L 306.73837 202.093611 
L 308.376721 201.970898 
L 310.015104 201.970898 
L 311.653465 202.093611 
L 313.291828 201.970898 
L 314.930196 201.970898 
L 316.568596 202.093611 
L 319.845361 202.093611 
L 321.483703 201.970898 
L 328.037224 201.970898 
L 329.675592 202.093611 
L 331.313965 202.093611 
L 332.952324 201.970898 
L 334.590699 201.970898 
L 336.229083 202.093611 
L 337.867456 201.970898 
L 341.144207 201.970898 
L 342.782586 202.093611 
L 344.420948 201.970898 
L 346.059332 202.093611 
L 347.697692 202.093611 
L 349.336079 201.970898 
L 359.166317 201.970898 
L 360.804687 201.848655 
L 367.358178 201.848655 
L 368.996555 201.726877 
L 375.550044 201.726877 
L 377.188422 201.605562 
L 378.826795 201.605562 
L 380.465165 201.484705 
L 387.018658 201.484705 
L 388.657033 201.364303 
L 393.572151 201.364303 
L 395.210525 201.244354 
L 398.487273 201.244354 
L 398.487273 201.244354 
" style="fill:none;stroke:#ff7f0e;stroke-linecap:square;stroke-width:1.5;"/>
   </g>
   <g id="line2d_83">
    <path clip-path="url(#p066952b08e)" d="M 73.832727 226.809861 
L 75.660403 232.005038 
L 77.138259 225.761682 
L 78.995918 224.251168 
L 80.527056 223.521861 
L 82.181199 223.521861 
L 83.744031 221.654667 
L 85.404913 220.760438 
L 87.14283 220.322533 
L 88.780231 221.428754 
L 90.32811 218.835446 
L 92.080369 217.613644 
L 93.730495 217.01982 
L 95.289741 216.244835 
L 97.006579 216.053989 
L 98.625256 215.116485 
L 100.262657 214.385788 
L 101.910782 214.205694 
L 103.562795 213.320136 
L 105.212921 214.205694 
L 108.489005 211.126316 
L 110.107683 211.619384 
L 111.709707 211.126316 
L 113.359833 211.289828 
L 115.045222 210.321069 
L 116.635916 209.53561 
L 119.944977 209.226751 
L 121.590109 208.768988 
L 123.239292 208.467414 
L 124.842259 209.691165 
L 126.485663 207.725696 
L 128.118343 207.288788 
L 129.774455 207.288788 
L 131.409754 214.749048 
L 133.055882 208.317687 
L 134.706008 206.291976 
L 136.324685 206.152078 
L 137.968089 206.857771 
L 139.600769 205.736021 
L 141.244408 205.59853 
L 142.89218 210.162426 
L 144.538308 205.461628 
L 146.156986 205.054405 
L 147.807112 205.736021 
L 149.441177 204.519387 
L 151.092008 207.144469 
L 152.718517 205.32531 
L 154.366759 205.874106 
L 155.998515 204.255198 
L 157.639413 203.993176 
L 159.282941 205.189571 
L 160.911148 204.123919 
L 162.556807 203.733283 
L 164.189849 203.475487 
L 165.828247 203.733283 
L 167.476001 204.255198 
L 169.107851 203.604125 
L 170.747767 203.347364 
L 172.389421 202.966048 
L 174.027475 203.733283 
L 175.664876 202.966048 
L 177.303691 203.092649 
L 180.577837 202.839947 
L 182.221389 202.966048 
L 183.857999 202.839947 
L 185.494217 202.589227 
L 187.134967 205.189571 
L 188.774475 202.216797 
L 190.412295 202.839947 
L 192.051968 202.464601 
L 193.688157 202.340459 
L 195.327493 202.714341 
L 196.964438 202.340459 
L 198.604229 202.340459 
L 200.241371 203.219752 
L 203.520562 202.966048 
L 205.157527 203.219752 
L 206.796366 201.970898 
L 208.434072 203.604125 
L 210.072388 202.093611 
L 211.712404 202.464601 
L 213.350759 201.970898 
L 214.988226 202.589227 
L 216.626892 202.093611 
L 219.903312 202.093611 
L 221.541637 202.340459 
L 223.180322 202.093611 
L 224.819493 203.092649 
L 226.457729 202.589227 
L 228.09596 202.340459 
L 229.734641 202.464601 
L 233.011369 202.464601 
L 234.649846 202.093611 
L 236.287568 201.970898 
L 237.9262 201.970898 
L 239.564441 201.605562 
L 241.203174 202.216797 
L 242.84143 202.093611 
L 244.480118 202.093611 
L 246.118442 201.970898 
L 247.756651 202.093611 
L 251.03369 201.848655 
L 252.671945 201.848655 
L 254.310047 201.970898 
L 255.948643 201.848655 
L 257.587133 201.970898 
L 260.863579 201.970898 
L 262.502157 201.848655 
L 264.140384 202.093611 
L 265.778812 201.970898 
L 270.694023 201.970898 
L 272.332486 201.848655 
L 273.970905 201.970898 
L 275.609249 201.970898 
L 277.247621 201.848655 
L 278.886011 201.970898 
L 280.524314 201.848655 
L 282.162678 202.093611 
L 283.801103 201.848655 
L 285.439455 201.848655 
L 287.077783 201.970898 
L 288.716253 201.848655 
L 290.354581 201.848655 
L 291.992993 201.970898 
L 293.631384 201.848655 
L 295.269713 201.970898 
L 296.908074 201.970898 
L 298.546455 202.093611 
L 300.184832 202.093611 
L 301.823251 201.970898 
L 303.461625 202.093611 
L 305.099987 201.970898 
L 306.73837 202.216797 
L 308.376721 201.970898 
L 311.653465 201.970898 
L 313.291828 201.848655 
L 314.930196 201.970898 
L 316.568596 201.848655 
L 318.20696 202.093611 
L 319.845361 201.970898 
L 321.483703 202.093611 
L 323.122072 201.970898 
L 324.760446 202.093611 
L 328.037224 202.093611 
L 331.313965 201.848655 
L 332.952324 201.848655 
L 334.590699 201.970898 
L 336.229083 201.970898 
L 337.867456 202.093611 
L 339.505834 201.970898 
L 350.974445 201.970898 
L 352.612814 202.093611 
L 354.251194 201.970898 
L 355.889562 201.970898 
L 357.527941 201.848655 
L 365.719807 201.848655 
L 367.358178 201.726877 
L 368.996555 201.726877 
L 370.634928 201.848655 
L 372.273299 201.726877 
L 373.911676 202.340459 
L 375.550044 202.216797 
L 377.188422 202.216797 
L 378.826795 202.093611 
L 382.103537 202.093611 
L 383.74191 201.970898 
L 388.657033 201.970898 
L 390.295404 201.848655 
L 391.933778 201.848655 
L 393.572151 201.970898 
L 395.210525 201.848655 
L 398.487273 201.848655 
L 398.487273 201.848655 
" style="fill:none;stroke:#2ca02c;stroke-linecap:square;stroke-width:1.5;"/>
   </g>
   <g id="line2d_84"/>
   <g id="line2d_85">
    <path clip-path="url(#p066952b08e)" d="M 73.832727 295.488 
L 75.660403 293.282533 
L 77.138259 291.219456 
L 78.995918 289.281493 
L 80.527056 291.219456 
L 83.744031 287.454333 
L 85.404913 285.725988 
L 87.14283 284.086316 
L 88.780231 281.039573 
L 90.32811 279.618602 
L 92.080369 278.258116 
L 93.730495 275.699423 
L 95.289741 274.492993 
L 98.625256 270.076796 
L 100.262657 269.061899 
L 103.562795 265.296776 
L 106.856325 261.928758 
L 108.489005 260.369103 
L 110.107683 258.163635 
L 111.709707 258.882016 
L 115.045222 254.795618 
L 116.635916 253.541865 
L 118.310727 251.172886 
L 119.944977 249.504685 
L 121.590109 247.407763 
L 124.842259 245.439966 
L 126.485663 244.966379 
L 128.118343 243.139218 
L 129.774455 243.586311 
L 131.409754 239.374096 
L 133.055882 237.833238 
L 134.706008 238.211546 
L 137.968089 234.616007 
L 139.600769 232.959336 
L 141.244408 233.283873 
L 144.538308 229.591319 
L 146.156986 229.883253 
L 147.807112 228.170347 
L 149.441177 226.281476 
L 151.092008 226.281476 
L 152.718517 224.997504 
L 154.366759 223.521861 
L 155.998515 223.044738 
L 157.639413 220.981661 
L 159.282941 219.464318 
L 162.556807 214.566902 
L 164.189849 211.619384 
L 167.476001 207.872669 
L 172.389421 202.340459 
L 174.027475 200.769005 
L 175.664876 198.492841 
L 177.303691 196.886141 
L 180.577837 192.958927 
L 182.221389 191.250039 
L 185.494217 187.300558 
L 187.134967 183.440973 
L 188.774475 180.935091 
L 190.412295 179.630151 
L 192.051968 177.969175 
L 193.688157 175.9531 
L 196.964438 172.509191 
L 200.241371 168.9178 
L 201.880064 166.729758 
L 208.434072 159.482944 
L 211.712404 155.552545 
L 214.988226 151.31627 
L 216.626892 149.748245 
L 223.180322 142.31526 
L 224.819493 143.768978 
L 226.457729 138.666145 
L 229.734641 134.667094 
L 233.011369 131.033176 
L 234.649846 132.226807 
L 236.287568 126.776283 
L 237.9262 128.316133 
L 239.564441 123.155216 
L 241.203174 120.510191 
L 242.84143 119.612857 
L 244.480118 118.085153 
L 246.118442 116.022076 
L 247.756651 115.16783 
L 249.395212 112.741587 
L 251.03369 111.230264 
L 254.310047 107.392769 
L 260.863579 100.420182 
L 262.502157 98.487028 
L 264.140384 96.343187 
L 265.778812 94.810745 
L 273.970905 85.812357 
L 275.609249 83.824189 
L 277.247621 82.269456 
L 278.886011 91.856119 
L 282.162678 88.12663 
L 283.801103 86.294832 
L 287.077783 83.070019 
L 288.716253 80.574662 
L 291.992993 77.184955 
L 293.631384 77.061684 
L 295.269713 73.46515 
L 296.908074 90.095696 
L 298.546455 92.703753 
L 300.184832 90.969493 
L 301.823251 90.340794 
L 303.461625 87.072841 
L 305.099987 85.397681 
L 308.376721 81.689743 
L 310.015104 83.872872 
L 311.653465 84.771485 
L 313.291828 82.534089 
L 314.930196 81.355899 
L 316.568596 78.933891 
L 318.20696 81.260351 
L 321.483703 77.276482 
L 323.122072 78.321441 
L 324.760446 76.968314 
L 326.39885 75.038002 
L 328.037224 72.870436 
L 329.675592 73.230737 
L 331.313965 71.919948 
L 332.952324 72.11117 
L 334.590699 69.837628 
L 336.229083 66.870395 
L 337.867456 67.366178 
L 339.505834 65.489193 
L 341.144207 65.936045 
L 342.782586 66.024776 
L 344.420948 64.300282 
L 346.059332 64.4177 
L 347.697692 62.566985 
L 349.336079 63.818611 
L 350.974445 64.698935 
L 352.612814 61.857223 
L 354.251194 61.540704 
L 355.889562 59.624749 
L 357.527941 59.336549 
L 360.804687 58.399257 
L 362.443056 59.067737 
L 364.081434 58.722044 
L 365.719807 57.938691 
L 367.358178 57.362193 
L 368.996555 57.575491 
L 370.634928 56.812882 
L 372.273299 57.002821 
L 373.911676 56.909675 
L 375.550044 55.93816 
L 380.465165 55.13751 
L 382.103537 55.416337 
L 383.74191 54.96447 
L 385.380284 55.131314 
L 387.018658 54.527411 
L 391.933778 53.925159 
L 393.572151 54.180333 
L 395.210525 53.696876 
L 396.848899 53.762103 
L 398.487273 53.568 
L 398.487273 53.568 
" style="fill:none;stroke:#9467bd;stroke-linecap:square;stroke-width:1.5;"/>
   </g>
   <g id="patch_3">
    <path d="M 57.6 307.584 
L 57.6 41.472 
" style="fill:none;stroke:#000000;stroke-linecap:square;stroke-linejoin:miter;stroke-width:0.8;"/>
   </g>
   <g id="patch_4">
    <path d="M 414.72 307.584 
L 414.72 41.472 
" style="fill:none;stroke:#000000;stroke-linecap:square;stroke-linejoin:miter;stroke-width:0.8;"/>
   </g>
   <g id="patch_5">
    <path d="M 57.6 307.584 
L 414.72 307.584 
" style="fill:none;stroke:#000000;stroke-linecap:square;stroke-linejoin:miter;stroke-width:0.8;"/>
   </g>
   <g id="patch_6">
    <path d="M 57.6 41.472 
L 414.72 41.472 
" style="fill:none;stroke:#000000;stroke-linecap:square;stroke-linejoin:miter;stroke-width:0.8;"/>
   </g>
   <g id="legend_1">
    <g id="patch_7">
     <path d="M 64.6 122.862625 
L 150.495313 122.862625 
Q 152.495313 122.862625 152.495313 120.862625 
L 152.495313 48.472 
Q 152.495313 46.472 150.495313 46.472 
L 64.6 46.472 
Q 62.6 46.472 62.6 48.472 
L 62.6 120.862625 
Q 62.6 122.862625 64.6 122.862625 
z
" style="fill:#ffffff;opacity:0.8;stroke:#cccccc;stroke-linejoin:miter;"/>
    </g>
    <g id="line2d_86">
     <path d="M 66.6 54.570438 
L 86.6 54.570438 
" style="fill:none;stroke:#1f77b4;stroke-linecap:square;stroke-width:1.5;"/>
    </g>
    <g id="line2d_87"/>
    <g id="text_13">
     <!-- CuPy -->
     <defs>
      <path d="M 64.40625 67.28125 
L 64.40625 56.890625 
Q 59.421875 61.53125 53.78125 63.8125 
Q 48.140625 66.109375 41.796875 66.109375 
Q 29.296875 66.109375 22.65625 58.46875 
Q 16.015625 50.828125 16.015625 36.375 
Q 16.015625 21.96875 22.65625 14.328125 
Q 29.296875 6.6875 41.796875 6.6875 
Q 48.140625 6.6875 53.78125 8.984375 
Q 59.421875 11.28125 64.40625 15.921875 
L 64.40625 5.609375 
Q 59.234375 2.09375 53.4375 0.328125 
Q 47.65625 -1.421875 41.21875 -1.421875 
Q 24.65625 -1.421875 15.125 8.703125 
Q 5.609375 18.84375 5.609375 36.375 
Q 5.609375 53.953125 15.125 64.078125 
Q 24.65625 74.21875 41.21875 74.21875 
Q 47.75 74.21875 53.53125 72.484375 
Q 59.328125 70.75 64.40625 67.28125 
z
" id="DejaVuSans-67"/>
      <path d="M 19.671875 64.796875 
L 19.671875 37.40625 
L 32.078125 37.40625 
Q 38.96875 37.40625 42.71875 40.96875 
Q 46.484375 44.53125 46.484375 51.125 
Q 46.484375 57.671875 42.71875 61.234375 
Q 38.96875 64.796875 32.078125 64.796875 
z
M 9.8125 72.90625 
L 32.078125 72.90625 
Q 44.34375 72.90625 50.609375 67.359375 
Q 56.890625 61.8125 56.890625 51.125 
Q 56.890625 40.328125 50.609375 34.8125 
Q 44.34375 29.296875 32.078125 29.296875 
L 19.671875 29.296875 
L 19.671875 0 
L 9.8125 0 
z
" id="DejaVuSans-80"/>
      <path d="M 32.171875 -5.078125 
Q 28.375 -14.84375 24.75 -17.8125 
Q 21.140625 -20.796875 15.09375 -20.796875 
L 7.90625 -20.796875 
L 7.90625 -13.28125 
L 13.1875 -13.28125 
Q 16.890625 -13.28125 18.9375 -11.515625 
Q 21 -9.765625 23.484375 -3.21875 
L 25.09375 0.875 
L 2.984375 54.6875 
L 12.5 54.6875 
L 29.59375 11.921875 
L 46.6875 54.6875 
L 56.203125 54.6875 
z
" id="DejaVuSans-121"/>
     </defs>
     <g transform="translate(94.6 58.070438)scale(0.1 -0.1)">
      <use xlink:href="#DejaVuSans-67"/>
      <use x="69.824219" xlink:href="#DejaVuSans-117"/>
      <use x="133.203125" xlink:href="#DejaVuSans-80"/>
      <use x="193.505859" xlink:href="#DejaVuSans-121"/>
     </g>
    </g>
    <g id="line2d_88">
     <path d="M 66.6 69.248563 
L 86.6 69.248563 
" style="fill:none;stroke:#ff7f0e;stroke-linecap:square;stroke-width:1.5;"/>
    </g>
    <g id="line2d_89"/>
    <g id="text_14">
     <!-- NumExpr -->
     <defs>
      <path d="M 54.890625 54.6875 
L 35.109375 28.078125 
L 55.90625 0 
L 45.3125 0 
L 29.390625 21.484375 
L 13.484375 0 
L 2.875 0 
L 24.125 28.609375 
L 4.6875 54.6875 
L 15.28125 54.6875 
L 29.78125 35.203125 
L 44.28125 54.6875 
z
" id="DejaVuSans-120"/>
      <path d="M 18.109375 8.203125 
L 18.109375 -20.796875 
L 9.078125 -20.796875 
L 9.078125 54.6875 
L 18.109375 54.6875 
L 18.109375 46.390625 
Q 20.953125 51.265625 25.265625 53.625 
Q 29.59375 56 35.59375 56 
Q 45.5625 56 51.78125 48.09375 
Q 58.015625 40.1875 58.015625 27.296875 
Q 58.015625 14.40625 51.78125 6.484375 
Q 45.5625 -1.421875 35.59375 -1.421875 
Q 29.59375 -1.421875 25.265625 0.953125 
Q 20.953125 3.328125 18.109375 8.203125 
z
M 48.6875 27.296875 
Q 48.6875 37.203125 44.609375 42.84375 
Q 40.53125 48.484375 33.40625 48.484375 
Q 26.265625 48.484375 22.1875 42.84375 
Q 18.109375 37.203125 18.109375 27.296875 
Q 18.109375 17.390625 22.1875 11.75 
Q 26.265625 6.109375 33.40625 6.109375 
Q 40.53125 6.109375 44.609375 11.75 
Q 48.6875 17.390625 48.6875 27.296875 
z
" id="DejaVuSans-112"/>
     </defs>
     <g transform="translate(94.6 72.748563)scale(0.1 -0.1)">
      <use xlink:href="#DejaVuSans-78"/>
      <use x="74.804688" xlink:href="#DejaVuSans-117"/>
      <use x="138.183594" xlink:href="#DejaVuSans-109"/>
      <use x="235.595703" xlink:href="#DejaVuSans-69"/>
      <use x="298.779297" xlink:href="#DejaVuSans-120"/>
      <use x="357.958984" xlink:href="#DejaVuSans-112"/>
      <use x="421.435547" xlink:href="#DejaVuSans-114"/>
     </g>
    </g>
    <g id="line2d_90">
     <path d="M 66.6 83.926688 
L 86.6 83.926688 
" style="fill:none;stroke:#2ca02c;stroke-linecap:square;stroke-width:1.5;"/>
    </g>
    <g id="line2d_91"/>
    <g id="text_15">
     <!-- NumPy -->
     <g transform="translate(94.6 87.426688)scale(0.1 -0.1)">
      <use xlink:href="#DejaVuSans-78"/>
      <use x="74.804688" xlink:href="#DejaVuSans-117"/>
      <use x="138.183594" xlink:href="#DejaVuSans-109"/>
      <use x="235.595703" xlink:href="#DejaVuSans-80"/>
      <use x="295.898438" xlink:href="#DejaVuSans-121"/>
     </g>
    </g>
    <g id="line2d_92">
     <path d="M 66.6 98.604813 
L 86.6 98.604813 
" style="fill:none;stroke:#d62728;stroke-linecap:square;stroke-width:1.5;"/>
    </g>
    <g id="line2d_93"/>
    <g id="text_16">
     <!-- scikit-cuda -->
     <defs>
      <path d="M 48.78125 52.59375 
L 48.78125 44.1875 
Q 44.96875 46.296875 41.140625 47.34375 
Q 37.3125 48.390625 33.40625 48.390625 
Q 24.65625 48.390625 19.8125 42.84375 
Q 14.984375 37.3125 14.984375 27.296875 
Q 14.984375 17.28125 19.8125 11.734375 
Q 24.65625 6.203125 33.40625 6.203125 
Q 37.3125 6.203125 41.140625 7.25 
Q 44.96875 8.296875 48.78125 10.40625 
L 48.78125 2.09375 
Q 45.015625 0.34375 40.984375 -0.53125 
Q 36.96875 -1.421875 32.421875 -1.421875 
Q 20.0625 -1.421875 12.78125 6.34375 
Q 5.515625 14.109375 5.515625 27.296875 
Q 5.515625 40.671875 12.859375 48.328125 
Q 20.21875 56 33.015625 56 
Q 37.15625 56 41.109375 55.140625 
Q 45.0625 54.296875 48.78125 52.59375 
z
" id="DejaVuSans-99"/>
      <path d="M 9.421875 54.6875 
L 18.40625 54.6875 
L 18.40625 0 
L 9.421875 0 
z
M 9.421875 75.984375 
L 18.40625 75.984375 
L 18.40625 64.59375 
L 9.421875 64.59375 
z
" id="DejaVuSans-105"/>
      <path d="M 9.078125 75.984375 
L 18.109375 75.984375 
L 18.109375 31.109375 
L 44.921875 54.6875 
L 56.390625 54.6875 
L 27.390625 29.109375 
L 57.625 0 
L 45.90625 0 
L 18.109375 26.703125 
L 18.109375 0 
L 9.078125 0 
z
" id="DejaVuSans-107"/>
      <path d="M 4.890625 31.390625 
L 31.203125 31.390625 
L 31.203125 23.390625 
L 4.890625 23.390625 
z
" id="DejaVuSans-45"/>
      <path d="M 45.40625 46.390625 
L 45.40625 75.984375 
L 54.390625 75.984375 
L 54.390625 0 
L 45.40625 0 
L 45.40625 8.203125 
Q 42.578125 3.328125 38.25 0.953125 
Q 33.9375 -1.421875 27.875 -1.421875 
Q 17.96875 -1.421875 11.734375 6.484375 
Q 5.515625 14.40625 5.515625 27.296875 
Q 5.515625 40.1875 11.734375 48.09375 
Q 17.96875 56 27.875 56 
Q 33.9375 56 38.25 53.625 
Q 42.578125 51.265625 45.40625 46.390625 
z
M 14.796875 27.296875 
Q 14.796875 17.390625 18.875 11.75 
Q 22.953125 6.109375 30.078125 6.109375 
Q 37.203125 6.109375 41.296875 11.75 
Q 45.40625 17.390625 45.40625 27.296875 
Q 45.40625 37.203125 41.296875 42.84375 
Q 37.203125 48.484375 30.078125 48.484375 
Q 22.953125 48.484375 18.875 42.84375 
Q 14.796875 37.203125 14.796875 27.296875 
z
" id="DejaVuSans-100"/>
      <path d="M 34.28125 27.484375 
Q 23.390625 27.484375 19.1875 25 
Q 14.984375 22.515625 14.984375 16.5 
Q 14.984375 11.71875 18.140625 8.90625 
Q 21.296875 6.109375 26.703125 6.109375 
Q 34.1875 6.109375 38.703125 11.40625 
Q 43.21875 16.703125 43.21875 25.484375 
L 43.21875 27.484375 
z
M 52.203125 31.203125 
L 52.203125 0 
L 43.21875 0 
L 43.21875 8.296875 
Q 40.140625 3.328125 35.546875 0.953125 
Q 30.953125 -1.421875 24.3125 -1.421875 
Q 15.921875 -1.421875 10.953125 3.296875 
Q 6 8.015625 6 15.921875 
Q 6 25.140625 12.171875 29.828125 
Q 18.359375 34.515625 30.609375 34.515625 
L 43.21875 34.515625 
L 43.21875 35.40625 
Q 43.21875 41.609375 39.140625 45 
Q 35.0625 48.390625 27.6875 48.390625 
Q 23 48.390625 18.546875 47.265625 
Q 14.109375 46.140625 10.015625 43.890625 
L 10.015625 52.203125 
Q 14.9375 54.109375 19.578125 55.046875 
Q 24.21875 56 28.609375 56 
Q 40.484375 56 46.34375 49.84375 
Q 52.203125 43.703125 52.203125 31.203125 
z
" id="DejaVuSans-97"/>
     </defs>
     <g transform="translate(94.6 102.104813)scale(0.1 -0.1)">
      <use xlink:href="#DejaVuSans-115"/>
      <use x="52.099609" xlink:href="#DejaVuSans-99"/>
      <use x="107.080078" xlink:href="#DejaVuSans-105"/>
      <use x="134.863281" xlink:href="#DejaVuSans-107"/>
      <use x="192.773438" xlink:href="#DejaVuSans-105"/>
      <use x="220.556641" xlink:href="#DejaVuSans-116"/>
      <use x="259.765625" xlink:href="#DejaVuSans-45"/>
      <use x="295.849609" xlink:href="#DejaVuSans-99"/>
      <use x="350.830078" xlink:href="#DejaVuSans-117"/>
      <use x="414.208984" xlink:href="#DejaVuSans-100"/>
      <use x="477.685547" xlink:href="#DejaVuSans-97"/>
     </g>
    </g>
    <g id="line2d_94">
     <path d="M 66.6 113.282938 
L 86.6 113.282938 
" style="fill:none;stroke:#9467bd;stroke-linecap:square;stroke-width:1.5;"/>
    </g>
    <g id="line2d_95"/>
    <g id="text_17">
     <!-- VecPy -->
     <defs>
      <path d="M 28.609375 0 
L 0.78125 72.90625 
L 11.078125 72.90625 
L 34.1875 11.53125 
L 57.328125 72.90625 
L 67.578125 72.90625 
L 39.796875 0 
z
" id="DejaVuSans-86"/>
     </defs>
     <g transform="translate(94.6 116.782938)scale(0.1 -0.1)">
      <use xlink:href="#DejaVuSans-86"/>
      <use x="68.298828" xlink:href="#DejaVuSans-101"/>
      <use x="129.822266" xlink:href="#DejaVuSans-99"/>
      <use x="184.802734" xlink:href="#DejaVuSans-80"/>
      <use x="245.105469" xlink:href="#DejaVuSans-121"/>
     </g>
    </g>
   </g>
  </g>
 </g>
 <defs>
  <clipPath id="p066952b08e">
   <rect height="266.112" width="357.12" x="57.6" y="41.472"/>
  </clipPath>
 </defs>
</svg>
