<?xml version="1.0" encoding="utf-8" standalone="no"?>
<!DOCTYPE svg PUBLIC "-//W3C//DTD SVG 1.1//EN"
  "http://www.w3.org/Graphics/SVG/1.1/DTD/svg11.dtd">
<!-- Created with matplotlib (https://matplotlib.org/) -->
<svg height="345.6pt" version="1.1" viewBox="0 0 460.8 345.6" width="460.8pt" xmlns="http://www.w3.org/2000/svg" xmlns:xlink="http://www.w3.org/1999/xlink">
 <defs>
  <style type="text/css">
*{stroke-linecap:butt;stroke-linejoin:round;}
  </style>
 </defs>
 <g id="figure_1">
  <g id="patch_1">
   <path d="M 0 345.6 
L 460.8 345.6 
L 460.8 0 
L 0 0 
z
" style="fill:#ffffff;"/>
  </g>
  <g id="axes_1">
   <g id="patch_2">
    <path d="M 57.6 307.584 
L 414.72 307.584 
L 414.72 41.472 
L 57.6 41.472 
z
" style="fill:#ffffff;"/>
   </g>
   <g id="matplotlib.axis_1">
    <g id="xtick_1">
     <g id="line2d_1">
      <defs>
       <path d="M 0 0 
L 0 3.5 
" id="me1286946fc" style="stroke:#000000;stroke-width:0.8;"/>
      </defs>
      <g>
       <use style="stroke:#000000;stroke-width:0.8;" x="72.451031" xlink:href="#me1286946fc" y="307.584"/>
      </g>
     </g>
     <g id="text_1">
      <!-- $\mathdefault{10^{2}}$ -->
      <defs>
       <path d="M 12.40625 8.296875 
L 28.515625 8.296875 
L 28.515625 63.921875 
L 10.984375 60.40625 
L 10.984375 69.390625 
L 28.421875 72.90625 
L 38.28125 72.90625 
L 38.28125 8.296875 
L 54.390625 8.296875 
L 54.390625 0 
L 12.40625 0 
z
" id="DejaVuSans-49"/>
       <path d="M 31.78125 66.40625 
Q 24.171875 66.40625 20.328125 58.90625 
Q 16.5 51.421875 16.5 36.375 
Q 16.5 21.390625 20.328125 13.890625 
Q 24.171875 6.390625 31.78125 6.390625 
Q 39.453125 6.390625 43.28125 13.890625 
Q 47.125 21.390625 47.125 36.375 
Q 47.125 51.421875 43.28125 58.90625 
Q 39.453125 66.40625 31.78125 66.40625 
z
M 31.78125 74.21875 
Q 44.046875 74.21875 50.515625 64.515625 
Q 56.984375 54.828125 56.984375 36.375 
Q 56.984375 17.96875 50.515625 8.265625 
Q 44.046875 -1.421875 31.78125 -1.421875 
Q 19.53125 -1.421875 13.0625 8.265625 
Q 6.59375 17.96875 6.59375 36.375 
Q 6.59375 54.828125 13.0625 64.515625 
Q 19.53125 74.21875 31.78125 74.21875 
z
" id="DejaVuSans-48"/>
       <path d="M 19.1875 8.296875 
L 53.609375 8.296875 
L 53.609375 0 
L 7.328125 0 
L 7.328125 8.296875 
Q 12.9375 14.109375 22.625 23.890625 
Q 32.328125 33.6875 34.8125 36.53125 
Q 39.546875 41.84375 41.421875 45.53125 
Q 43.3125 49.21875 43.3125 52.78125 
Q 43.3125 58.59375 39.234375 62.25 
Q 35.15625 65.921875 28.609375 65.921875 
Q 23.96875 65.921875 18.8125 64.3125 
Q 13.671875 62.703125 7.8125 59.421875 
L 7.8125 69.390625 
Q 13.765625 71.78125 18.9375 73 
Q 24.125 74.21875 28.421875 74.21875 
Q 39.75 74.21875 46.484375 68.546875 
Q 53.21875 62.890625 53.21875 53.421875 
Q 53.21875 48.921875 51.53125 44.890625 
Q 49.859375 40.875 45.40625 35.40625 
Q 44.1875 33.984375 37.640625 27.21875 
Q 31.109375 20.453125 19.1875 8.296875 
z
" id="DejaVuSans-50"/>
      </defs>
      <g transform="translate(63.651031 322.182437)scale(0.1 -0.1)">
       <use transform="translate(0 0.765625)" xlink:href="#DejaVuSans-49"/>
       <use transform="translate(63.623047 0.765625)" xlink:href="#DejaVuSans-48"/>
       <use transform="translate(128.203125 39.046875)scale(0.7)" xlink:href="#DejaVuSans-50"/>
      </g>
     </g>
    </g>
    <g id="xtick_2">
     <g id="line2d_2">
      <g>
       <use style="stroke:#000000;stroke-width:0.8;" x="137.65828" xlink:href="#me1286946fc" y="307.584"/>
      </g>
     </g>
     <g id="text_2">
      <!-- $\mathdefault{10^{3}}$ -->
      <defs>
       <path d="M 40.578125 39.3125 
Q 47.65625 37.796875 51.625 33 
Q 55.609375 28.21875 55.609375 21.1875 
Q 55.609375 10.40625 48.1875 4.484375 
Q 40.765625 -1.421875 27.09375 -1.421875 
Q 22.515625 -1.421875 17.65625 -0.515625 
Q 12.796875 0.390625 7.625 2.203125 
L 7.625 11.71875 
Q 11.71875 9.328125 16.59375 8.109375 
Q 21.484375 6.890625 26.8125 6.890625 
Q 36.078125 6.890625 40.9375 10.546875 
Q 45.796875 14.203125 45.796875 21.1875 
Q 45.796875 27.640625 41.28125 31.265625 
Q 36.765625 34.90625 28.71875 34.90625 
L 20.21875 34.90625 
L 20.21875 43.015625 
L 29.109375 43.015625 
Q 36.375 43.015625 40.234375 45.921875 
Q 44.09375 48.828125 44.09375 54.296875 
Q 44.09375 59.90625 40.109375 62.90625 
Q 36.140625 65.921875 28.71875 65.921875 
Q 24.65625 65.921875 20.015625 65.03125 
Q 15.375 64.15625 9.8125 62.3125 
L 9.8125 71.09375 
Q 15.4375 72.65625 20.34375 73.4375 
Q 25.25 74.21875 29.59375 74.21875 
Q 40.828125 74.21875 47.359375 69.109375 
Q 53.90625 64.015625 53.90625 55.328125 
Q 53.90625 49.265625 50.4375 45.09375 
Q 46.96875 40.921875 40.578125 39.3125 
z
" id="DejaVuSans-51"/>
      </defs>
      <g transform="translate(128.85828 322.182437)scale(0.1 -0.1)">
       <use transform="translate(0 0.765625)" xlink:href="#DejaVuSans-49"/>
       <use transform="translate(63.623047 0.765625)" xlink:href="#DejaVuSans-48"/>
       <use transform="translate(128.203125 39.046875)scale(0.7)" xlink:href="#DejaVuSans-51"/>
      </g>
     </g>
    </g>
    <g id="xtick_3">
     <g id="line2d_3">
      <g>
       <use style="stroke:#000000;stroke-width:0.8;" x="202.865528" xlink:href="#me1286946fc" y="307.584"/>
      </g>
     </g>
     <g id="text_3">
      <!-- $\mathdefault{10^{4}}$ -->
      <defs>
       <path d="M 37.796875 64.3125 
L 12.890625 25.390625 
L 37.796875 25.390625 
z
M 35.203125 72.90625 
L 47.609375 72.90625 
L 47.609375 25.390625 
L 58.015625 25.390625 
L 58.015625 17.1875 
L 47.609375 17.1875 
L 47.609375 0 
L 37.796875 0 
L 37.796875 17.1875 
L 4.890625 17.1875 
L 4.890625 26.703125 
z
" id="DejaVuSans-52"/>
      </defs>
      <g transform="translate(194.065528 322.182437)scale(0.1 -0.1)">
       <use transform="translate(0 0.684375)" xlink:href="#DejaVuSans-49"/>
       <use transform="translate(63.623047 0.684375)" xlink:href="#DejaVuSans-48"/>
       <use transform="translate(128.203125 38.965625)scale(0.7)" xlink:href="#DejaVuSans-52"/>
      </g>
     </g>
    </g>
    <g id="xtick_4">
     <g id="line2d_4">
      <g>
       <use style="stroke:#000000;stroke-width:0.8;" x="268.072776" xlink:href="#me1286946fc" y="307.584"/>
      </g>
     </g>
     <g id="text_4">
      <!-- $\mathdefault{10^{5}}$ -->
      <defs>
       <path d="M 10.796875 72.90625 
L 49.515625 72.90625 
L 49.515625 64.59375 
L 19.828125 64.59375 
L 19.828125 46.734375 
Q 21.96875 47.46875 24.109375 47.828125 
Q 26.265625 48.1875 28.421875 48.1875 
Q 40.625 48.1875 47.75 41.5 
Q 54.890625 34.8125 54.890625 23.390625 
Q 54.890625 11.625 47.5625 5.09375 
Q 40.234375 -1.421875 26.90625 -1.421875 
Q 22.3125 -1.421875 17.546875 -0.640625 
Q 12.796875 0.140625 7.71875 1.703125 
L 7.71875 11.625 
Q 12.109375 9.234375 16.796875 8.0625 
Q 21.484375 6.890625 26.703125 6.890625 
Q 35.15625 6.890625 40.078125 11.328125 
Q 45.015625 15.765625 45.015625 23.390625 
Q 45.015625 31 40.078125 35.4375 
Q 35.15625 39.890625 26.703125 39.890625 
Q 22.75 39.890625 18.8125 39.015625 
Q 14.890625 38.140625 10.796875 36.28125 
z
" id="DejaVuSans-53"/>
      </defs>
      <g transform="translate(259.272776 322.182437)scale(0.1 -0.1)">
       <use transform="translate(0 0.684375)" xlink:href="#DejaVuSans-49"/>
       <use transform="translate(63.623047 0.684375)" xlink:href="#DejaVuSans-48"/>
       <use transform="translate(128.203125 38.965625)scale(0.7)" xlink:href="#DejaVuSans-53"/>
      </g>
     </g>
    </g>
    <g id="xtick_5">
     <g id="line2d_5">
      <g>
       <use style="stroke:#000000;stroke-width:0.8;" x="333.280024" xlink:href="#me1286946fc" y="307.584"/>
      </g>
     </g>
     <g id="text_5">
      <!-- $\mathdefault{10^{6}}$ -->
      <defs>
       <path d="M 33.015625 40.375 
Q 26.375 40.375 22.484375 35.828125 
Q 18.609375 31.296875 18.609375 23.390625 
Q 18.609375 15.53125 22.484375 10.953125 
Q 26.375 6.390625 33.015625 6.390625 
Q 39.65625 6.390625 43.53125 10.953125 
Q 47.40625 15.53125 47.40625 23.390625 
Q 47.40625 31.296875 43.53125 35.828125 
Q 39.65625 40.375 33.015625 40.375 
z
M 52.59375 71.296875 
L 52.59375 62.3125 
Q 48.875 64.0625 45.09375 64.984375 
Q 41.3125 65.921875 37.59375 65.921875 
Q 27.828125 65.921875 22.671875 59.328125 
Q 17.53125 52.734375 16.796875 39.40625 
Q 19.671875 43.65625 24.015625 45.921875 
Q 28.375 48.1875 33.59375 48.1875 
Q 44.578125 48.1875 50.953125 41.515625 
Q 57.328125 34.859375 57.328125 23.390625 
Q 57.328125 12.15625 50.6875 5.359375 
Q 44.046875 -1.421875 33.015625 -1.421875 
Q 20.359375 -1.421875 13.671875 8.265625 
Q 6.984375 17.96875 6.984375 36.375 
Q 6.984375 53.65625 15.1875 63.9375 
Q 23.390625 74.21875 37.203125 74.21875 
Q 40.921875 74.21875 44.703125 73.484375 
Q 48.484375 72.75 52.59375 71.296875 
z
" id="DejaVuSans-54"/>
      </defs>
      <g transform="translate(324.480024 322.182437)scale(0.1 -0.1)">
       <use transform="translate(0 0.765625)" xlink:href="#DejaVuSans-49"/>
       <use transform="translate(63.623047 0.765625)" xlink:href="#DejaVuSans-48"/>
       <use transform="translate(128.203125 39.046875)scale(0.7)" xlink:href="#DejaVuSans-54"/>
      </g>
     </g>
    </g>
    <g id="xtick_6">
     <g id="line2d_6">
      <g>
       <use style="stroke:#000000;stroke-width:0.8;" x="398.487273" xlink:href="#me1286946fc" y="307.584"/>
      </g>
     </g>
     <g id="text_6">
      <!-- $\mathdefault{10^{7}}$ -->
      <defs>
       <path d="M 8.203125 72.90625 
L 55.078125 72.90625 
L 55.078125 68.703125 
L 28.609375 0 
L 18.3125 0 
L 43.21875 64.59375 
L 8.203125 64.59375 
z
" id="DejaVuSans-55"/>
      </defs>
      <g transform="translate(389.687273 322.182437)scale(0.1 -0.1)">
       <use transform="translate(0 0.684375)" xlink:href="#DejaVuSans-49"/>
       <use transform="translate(63.623047 0.684375)" xlink:href="#DejaVuSans-48"/>
       <use transform="translate(128.203125 38.965625)scale(0.7)" xlink:href="#DejaVuSans-55"/>
      </g>
     </g>
    </g>
    <g id="xtick_7">
     <g id="line2d_7">
      <defs>
       <path d="M 0 0 
L 0 2 
" id="m34644180aa" style="stroke:#000000;stroke-width:0.6;"/>
      </defs>
      <g>
       <use style="stroke:#000000;stroke-width:0.6;" x="57.984885" xlink:href="#m34644180aa" y="307.584"/>
      </g>
     </g>
    </g>
    <g id="xtick_8">
     <g id="line2d_8">
      <g>
       <use style="stroke:#000000;stroke-width:0.6;" x="62.350301" xlink:href="#m34644180aa" y="307.584"/>
      </g>
     </g>
    </g>
    <g id="xtick_9">
     <g id="line2d_9">
      <g>
       <use style="stroke:#000000;stroke-width:0.6;" x="66.131796" xlink:href="#m34644180aa" y="307.584"/>
      </g>
     </g>
    </g>
    <g id="xtick_10">
     <g id="line2d_10">
      <g>
       <use style="stroke:#000000;stroke-width:0.6;" x="69.467311" xlink:href="#m34644180aa" y="307.584"/>
      </g>
     </g>
    </g>
    <g id="xtick_11">
     <g id="line2d_11">
      <g>
       <use style="stroke:#000000;stroke-width:0.6;" x="92.080369" xlink:href="#m34644180aa" y="307.584"/>
      </g>
     </g>
    </g>
    <g id="xtick_12">
     <g id="line2d_12">
      <g>
       <use style="stroke:#000000;stroke-width:0.6;" x="103.562795" xlink:href="#m34644180aa" y="307.584"/>
      </g>
     </g>
    </g>
    <g id="xtick_13">
     <g id="line2d_13">
      <g>
       <use style="stroke:#000000;stroke-width:0.6;" x="111.709707" xlink:href="#m34644180aa" y="307.584"/>
      </g>
     </g>
    </g>
    <g id="xtick_14">
     <g id="line2d_14">
      <g>
       <use style="stroke:#000000;stroke-width:0.6;" x="118.028942" xlink:href="#m34644180aa" y="307.584"/>
      </g>
     </g>
    </g>
    <g id="xtick_15">
     <g id="line2d_15">
      <g>
       <use style="stroke:#000000;stroke-width:0.6;" x="123.192133" xlink:href="#m34644180aa" y="307.584"/>
      </g>
     </g>
    </g>
    <g id="xtick_16">
     <g id="line2d_16">
      <g>
       <use style="stroke:#000000;stroke-width:0.6;" x="127.557549" xlink:href="#m34644180aa" y="307.584"/>
      </g>
     </g>
    </g>
    <g id="xtick_17">
     <g id="line2d_17">
      <g>
       <use style="stroke:#000000;stroke-width:0.6;" x="131.339044" xlink:href="#m34644180aa" y="307.584"/>
      </g>
     </g>
    </g>
    <g id="xtick_18">
     <g id="line2d_18">
      <g>
       <use style="stroke:#000000;stroke-width:0.6;" x="134.67456" xlink:href="#m34644180aa" y="307.584"/>
      </g>
     </g>
    </g>
    <g id="xtick_19">
     <g id="line2d_19">
      <g>
       <use style="stroke:#000000;stroke-width:0.6;" x="157.287617" xlink:href="#m34644180aa" y="307.584"/>
      </g>
     </g>
    </g>
    <g id="xtick_20">
     <g id="line2d_20">
      <g>
       <use style="stroke:#000000;stroke-width:0.6;" x="168.770044" xlink:href="#m34644180aa" y="307.584"/>
      </g>
     </g>
    </g>
    <g id="xtick_21">
     <g id="line2d_21">
      <g>
       <use style="stroke:#000000;stroke-width:0.6;" x="176.916955" xlink:href="#m34644180aa" y="307.584"/>
      </g>
     </g>
    </g>
    <g id="xtick_22">
     <g id="line2d_22">
      <g>
       <use style="stroke:#000000;stroke-width:0.6;" x="183.23619" xlink:href="#m34644180aa" y="307.584"/>
      </g>
     </g>
    </g>
    <g id="xtick_23">
     <g id="line2d_23">
      <g>
       <use style="stroke:#000000;stroke-width:0.6;" x="188.399381" xlink:href="#m34644180aa" y="307.584"/>
      </g>
     </g>
    </g>
    <g id="xtick_24">
     <g id="line2d_24">
      <g>
       <use style="stroke:#000000;stroke-width:0.6;" x="192.764797" xlink:href="#m34644180aa" y="307.584"/>
      </g>
     </g>
    </g>
    <g id="xtick_25">
     <g id="line2d_25">
      <g>
       <use style="stroke:#000000;stroke-width:0.6;" x="196.546293" xlink:href="#m34644180aa" y="307.584"/>
      </g>
     </g>
    </g>
    <g id="xtick_26">
     <g id="line2d_26">
      <g>
       <use style="stroke:#000000;stroke-width:0.6;" x="199.881808" xlink:href="#m34644180aa" y="307.584"/>
      </g>
     </g>
    </g>
    <g id="xtick_27">
     <g id="line2d_27">
      <g>
       <use style="stroke:#000000;stroke-width:0.6;" x="222.494866" xlink:href="#m34644180aa" y="307.584"/>
      </g>
     </g>
    </g>
    <g id="xtick_28">
     <g id="line2d_28">
      <g>
       <use style="stroke:#000000;stroke-width:0.6;" x="233.977292" xlink:href="#m34644180aa" y="307.584"/>
      </g>
     </g>
    </g>
    <g id="xtick_29">
     <g id="line2d_29">
      <g>
       <use style="stroke:#000000;stroke-width:0.6;" x="242.124203" xlink:href="#m34644180aa" y="307.584"/>
      </g>
     </g>
    </g>
    <g id="xtick_30">
     <g id="line2d_30">
      <g>
       <use style="stroke:#000000;stroke-width:0.6;" x="248.443439" xlink:href="#m34644180aa" y="307.584"/>
      </g>
     </g>
    </g>
    <g id="xtick_31">
     <g id="line2d_31">
      <g>
       <use style="stroke:#000000;stroke-width:0.6;" x="253.60663" xlink:href="#m34644180aa" y="307.584"/>
      </g>
     </g>
    </g>
    <g id="xtick_32">
     <g id="line2d_32">
      <g>
       <use style="stroke:#000000;stroke-width:0.6;" x="257.972046" xlink:href="#m34644180aa" y="307.584"/>
      </g>
     </g>
    </g>
    <g id="xtick_33">
     <g id="line2d_33">
      <g>
       <use style="stroke:#000000;stroke-width:0.6;" x="261.753541" xlink:href="#m34644180aa" y="307.584"/>
      </g>
     </g>
    </g>
    <g id="xtick_34">
     <g id="line2d_34">
      <g>
       <use style="stroke:#000000;stroke-width:0.6;" x="265.089056" xlink:href="#m34644180aa" y="307.584"/>
      </g>
     </g>
    </g>
    <g id="xtick_35">
     <g id="line2d_35">
      <g>
       <use style="stroke:#000000;stroke-width:0.6;" x="287.702114" xlink:href="#m34644180aa" y="307.584"/>
      </g>
     </g>
    </g>
    <g id="xtick_36">
     <g id="line2d_36">
      <g>
       <use style="stroke:#000000;stroke-width:0.6;" x="299.18454" xlink:href="#m34644180aa" y="307.584"/>
      </g>
     </g>
    </g>
    <g id="xtick_37">
     <g id="line2d_37">
      <g>
       <use style="stroke:#000000;stroke-width:0.6;" x="307.331452" xlink:href="#m34644180aa" y="307.584"/>
      </g>
     </g>
    </g>
    <g id="xtick_38">
     <g id="line2d_38">
      <g>
       <use style="stroke:#000000;stroke-width:0.6;" x="313.650687" xlink:href="#m34644180aa" y="307.584"/>
      </g>
     </g>
    </g>
    <g id="xtick_39">
     <g id="line2d_39">
      <g>
       <use style="stroke:#000000;stroke-width:0.6;" x="318.813878" xlink:href="#m34644180aa" y="307.584"/>
      </g>
     </g>
    </g>
    <g id="xtick_40">
     <g id="line2d_40">
      <g>
       <use style="stroke:#000000;stroke-width:0.6;" x="323.179294" xlink:href="#m34644180aa" y="307.584"/>
      </g>
     </g>
    </g>
    <g id="xtick_41">
     <g id="line2d_41">
      <g>
       <use style="stroke:#000000;stroke-width:0.6;" x="326.960789" xlink:href="#m34644180aa" y="307.584"/>
      </g>
     </g>
    </g>
    <g id="xtick_42">
     <g id="line2d_42">
      <g>
       <use style="stroke:#000000;stroke-width:0.6;" x="330.296304" xlink:href="#m34644180aa" y="307.584"/>
      </g>
     </g>
    </g>
    <g id="xtick_43">
     <g id="line2d_43">
      <g>
       <use style="stroke:#000000;stroke-width:0.6;" x="352.909362" xlink:href="#m34644180aa" y="307.584"/>
      </g>
     </g>
    </g>
    <g id="xtick_44">
     <g id="line2d_44">
      <g>
       <use style="stroke:#000000;stroke-width:0.6;" x="364.391789" xlink:href="#m34644180aa" y="307.584"/>
      </g>
     </g>
    </g>
    <g id="xtick_45">
     <g id="line2d_45">
      <g>
       <use style="stroke:#000000;stroke-width:0.6;" x="372.5387" xlink:href="#m34644180aa" y="307.584"/>
      </g>
     </g>
    </g>
    <g id="xtick_46">
     <g id="line2d_46">
      <g>
       <use style="stroke:#000000;stroke-width:0.6;" x="378.857935" xlink:href="#m34644180aa" y="307.584"/>
      </g>
     </g>
    </g>
    <g id="xtick_47">
     <g id="line2d_47">
      <g>
       <use style="stroke:#000000;stroke-width:0.6;" x="384.021126" xlink:href="#m34644180aa" y="307.584"/>
      </g>
     </g>
    </g>
    <g id="xtick_48">
     <g id="line2d_48">
      <g>
       <use style="stroke:#000000;stroke-width:0.6;" x="388.386542" xlink:href="#m34644180aa" y="307.584"/>
      </g>
     </g>
    </g>
    <g id="xtick_49">
     <g id="line2d_49">
      <g>
       <use style="stroke:#000000;stroke-width:0.6;" x="392.168037" xlink:href="#m34644180aa" y="307.584"/>
      </g>
     </g>
    </g>
    <g id="xtick_50">
     <g id="line2d_50">
      <g>
       <use style="stroke:#000000;stroke-width:0.6;" x="395.503553" xlink:href="#m34644180aa" y="307.584"/>
      </g>
     </g>
    </g>
    <g id="text_7">
     <!-- Number of elements -->
     <defs>
      <path d="M 9.8125 72.90625 
L 23.09375 72.90625 
L 55.421875 11.921875 
L 55.421875 72.90625 
L 64.984375 72.90625 
L 64.984375 0 
L 51.703125 0 
L 19.390625 60.984375 
L 19.390625 0 
L 9.8125 0 
z
" id="DejaVuSans-78"/>
      <path d="M 8.5 21.578125 
L 8.5 54.6875 
L 17.484375 54.6875 
L 17.484375 21.921875 
Q 17.484375 14.15625 20.5 10.265625 
Q 23.53125 6.390625 29.59375 6.390625 
Q 36.859375 6.390625 41.078125 11.03125 
Q 45.3125 15.671875 45.3125 23.6875 
L 45.3125 54.6875 
L 54.296875 54.6875 
L 54.296875 0 
L 45.3125 0 
L 45.3125 8.40625 
Q 42.046875 3.421875 37.71875 1 
Q 33.40625 -1.421875 27.6875 -1.421875 
Q 18.265625 -1.421875 13.375 4.4375 
Q 8.5 10.296875 8.5 21.578125 
z
M 31.109375 56 
z
" id="DejaVuSans-117"/>
      <path d="M 52 44.1875 
Q 55.375 50.25 60.0625 53.125 
Q 64.75 56 71.09375 56 
Q 79.640625 56 84.28125 50.015625 
Q 88.921875 44.046875 88.921875 33.015625 
L 88.921875 0 
L 79.890625 0 
L 79.890625 32.71875 
Q 79.890625 40.578125 77.09375 44.375 
Q 74.3125 48.1875 68.609375 48.1875 
Q 61.625 48.1875 57.5625 43.546875 
Q 53.515625 38.921875 53.515625 30.90625 
L 53.515625 0 
L 44.484375 0 
L 44.484375 32.71875 
Q 44.484375 40.625 41.703125 44.40625 
Q 38.921875 48.1875 33.109375 48.1875 
Q 26.21875 48.1875 22.15625 43.53125 
Q 18.109375 38.875 18.109375 30.90625 
L 18.109375 0 
L 9.078125 0 
L 9.078125 54.6875 
L 18.109375 54.6875 
L 18.109375 46.1875 
Q 21.1875 51.21875 25.484375 53.609375 
Q 29.78125 56 35.6875 56 
Q 41.65625 56 45.828125 52.96875 
Q 50 49.953125 52 44.1875 
z
" id="DejaVuSans-109"/>
      <path d="M 48.6875 27.296875 
Q 48.6875 37.203125 44.609375 42.84375 
Q 40.53125 48.484375 33.40625 48.484375 
Q 26.265625 48.484375 22.1875 42.84375 
Q 18.109375 37.203125 18.109375 27.296875 
Q 18.109375 17.390625 22.1875 11.75 
Q 26.265625 6.109375 33.40625 6.109375 
Q 40.53125 6.109375 44.609375 11.75 
Q 48.6875 17.390625 48.6875 27.296875 
z
M 18.109375 46.390625 
Q 20.953125 51.265625 25.265625 53.625 
Q 29.59375 56 35.59375 56 
Q 45.5625 56 51.78125 48.09375 
Q 58.015625 40.1875 58.015625 27.296875 
Q 58.015625 14.40625 51.78125 6.484375 
Q 45.5625 -1.421875 35.59375 -1.421875 
Q 29.59375 -1.421875 25.265625 0.953125 
Q 20.953125 3.328125 18.109375 8.203125 
L 18.109375 0 
L 9.078125 0 
L 9.078125 75.984375 
L 18.109375 75.984375 
z
" id="DejaVuSans-98"/>
      <path d="M 56.203125 29.59375 
L 56.203125 25.203125 
L 14.890625 25.203125 
Q 15.484375 15.921875 20.484375 11.0625 
Q 25.484375 6.203125 34.421875 6.203125 
Q 39.59375 6.203125 44.453125 7.46875 
Q 49.3125 8.734375 54.109375 11.28125 
L 54.109375 2.78125 
Q 49.265625 0.734375 44.1875 -0.34375 
Q 39.109375 -1.421875 33.890625 -1.421875 
Q 20.796875 -1.421875 13.15625 6.1875 
Q 5.515625 13.8125 5.515625 26.8125 
Q 5.515625 40.234375 12.765625 48.109375 
Q 20.015625 56 32.328125 56 
Q 43.359375 56 49.78125 48.890625 
Q 56.203125 41.796875 56.203125 29.59375 
z
M 47.21875 32.234375 
Q 47.125 39.59375 43.09375 43.984375 
Q 39.0625 48.390625 32.421875 48.390625 
Q 24.90625 48.390625 20.390625 44.140625 
Q 15.875 39.890625 15.1875 32.171875 
z
" id="DejaVuSans-101"/>
      <path d="M 41.109375 46.296875 
Q 39.59375 47.171875 37.8125 47.578125 
Q 36.03125 48 33.890625 48 
Q 26.265625 48 22.1875 43.046875 
Q 18.109375 38.09375 18.109375 28.8125 
L 18.109375 0 
L 9.078125 0 
L 9.078125 54.6875 
L 18.109375 54.6875 
L 18.109375 46.1875 
Q 20.953125 51.171875 25.484375 53.578125 
Q 30.03125 56 36.53125 56 
Q 37.453125 56 38.578125 55.875 
Q 39.703125 55.765625 41.0625 55.515625 
z
" id="DejaVuSans-114"/>
      <path id="DejaVuSans-32"/>
      <path d="M 30.609375 48.390625 
Q 23.390625 48.390625 19.1875 42.75 
Q 14.984375 37.109375 14.984375 27.296875 
Q 14.984375 17.484375 19.15625 11.84375 
Q 23.34375 6.203125 30.609375 6.203125 
Q 37.796875 6.203125 41.984375 11.859375 
Q 46.1875 17.53125 46.1875 27.296875 
Q 46.1875 37.015625 41.984375 42.703125 
Q 37.796875 48.390625 30.609375 48.390625 
z
M 30.609375 56 
Q 42.328125 56 49.015625 48.375 
Q 55.71875 40.765625 55.71875 27.296875 
Q 55.71875 13.875 49.015625 6.21875 
Q 42.328125 -1.421875 30.609375 -1.421875 
Q 18.84375 -1.421875 12.171875 6.21875 
Q 5.515625 13.875 5.515625 27.296875 
Q 5.515625 40.765625 12.171875 48.375 
Q 18.84375 56 30.609375 56 
z
" id="DejaVuSans-111"/>
      <path d="M 37.109375 75.984375 
L 37.109375 68.5 
L 28.515625 68.5 
Q 23.6875 68.5 21.796875 66.546875 
Q 19.921875 64.59375 19.921875 59.515625 
L 19.921875 54.6875 
L 34.71875 54.6875 
L 34.71875 47.703125 
L 19.921875 47.703125 
L 19.921875 0 
L 10.890625 0 
L 10.890625 47.703125 
L 2.296875 47.703125 
L 2.296875 54.6875 
L 10.890625 54.6875 
L 10.890625 58.5 
Q 10.890625 67.625 15.140625 71.796875 
Q 19.390625 75.984375 28.609375 75.984375 
z
" id="DejaVuSans-102"/>
      <path d="M 9.421875 75.984375 
L 18.40625 75.984375 
L 18.40625 0 
L 9.421875 0 
z
" id="DejaVuSans-108"/>
      <path d="M 54.890625 33.015625 
L 54.890625 0 
L 45.90625 0 
L 45.90625 32.71875 
Q 45.90625 40.484375 42.875 44.328125 
Q 39.84375 48.1875 33.796875 48.1875 
Q 26.515625 48.1875 22.3125 43.546875 
Q 18.109375 38.921875 18.109375 30.90625 
L 18.109375 0 
L 9.078125 0 
L 9.078125 54.6875 
L 18.109375 54.6875 
L 18.109375 46.1875 
Q 21.34375 51.125 25.703125 53.5625 
Q 30.078125 56 35.796875 56 
Q 45.21875 56 50.046875 50.171875 
Q 54.890625 44.34375 54.890625 33.015625 
z
" id="DejaVuSans-110"/>
      <path d="M 18.3125 70.21875 
L 18.3125 54.6875 
L 36.8125 54.6875 
L 36.8125 47.703125 
L 18.3125 47.703125 
L 18.3125 18.015625 
Q 18.3125 11.328125 20.140625 9.421875 
Q 21.96875 7.515625 27.59375 7.515625 
L 36.8125 7.515625 
L 36.8125 0 
L 27.59375 0 
Q 17.1875 0 13.234375 3.875 
Q 9.28125 7.765625 9.28125 18.015625 
L 9.28125 47.703125 
L 2.6875 47.703125 
L 2.6875 54.6875 
L 9.28125 54.6875 
L 9.28125 70.21875 
z
" id="DejaVuSans-116"/>
      <path d="M 44.28125 53.078125 
L 44.28125 44.578125 
Q 40.484375 46.53125 36.375 47.5 
Q 32.28125 48.484375 27.875 48.484375 
Q 21.1875 48.484375 17.84375 46.4375 
Q 14.5 44.390625 14.5 40.28125 
Q 14.5 37.15625 16.890625 35.375 
Q 19.28125 33.59375 26.515625 31.984375 
L 29.59375 31.296875 
Q 39.15625 29.25 43.1875 25.515625 
Q 47.21875 21.78125 47.21875 15.09375 
Q 47.21875 7.46875 41.1875 3.015625 
Q 35.15625 -1.421875 24.609375 -1.421875 
Q 20.21875 -1.421875 15.453125 -0.5625 
Q 10.6875 0.296875 5.421875 2 
L 5.421875 11.28125 
Q 10.40625 8.6875 15.234375 7.390625 
Q 20.0625 6.109375 24.8125 6.109375 
Q 31.15625 6.109375 34.5625 8.28125 
Q 37.984375 10.453125 37.984375 14.40625 
Q 37.984375 18.0625 35.515625 20.015625 
Q 33.0625 21.96875 24.703125 23.78125 
L 21.578125 24.515625 
Q 13.234375 26.265625 9.515625 29.90625 
Q 5.8125 33.546875 5.8125 39.890625 
Q 5.8125 47.609375 11.28125 51.796875 
Q 16.75 56 26.8125 56 
Q 31.78125 56 36.171875 55.265625 
Q 40.578125 54.546875 44.28125 53.078125 
z
" id="DejaVuSans-115"/>
     </defs>
     <g transform="translate(184.85375 335.860562)scale(0.1 -0.1)">
      <use xlink:href="#DejaVuSans-78"/>
      <use x="74.804688" xlink:href="#DejaVuSans-117"/>
      <use x="138.183594" xlink:href="#DejaVuSans-109"/>
      <use x="235.595703" xlink:href="#DejaVuSans-98"/>
      <use x="299.072266" xlink:href="#DejaVuSans-101"/>
      <use x="360.595703" xlink:href="#DejaVuSans-114"/>
      <use x="401.708984" xlink:href="#DejaVuSans-32"/>
      <use x="433.496094" xlink:href="#DejaVuSans-111"/>
      <use x="494.677734" xlink:href="#DejaVuSans-102"/>
      <use x="529.882812" xlink:href="#DejaVuSans-32"/>
      <use x="561.669922" xlink:href="#DejaVuSans-101"/>
      <use x="623.193359" xlink:href="#DejaVuSans-108"/>
      <use x="650.976562" xlink:href="#DejaVuSans-101"/>
      <use x="712.5" xlink:href="#DejaVuSans-109"/>
      <use x="809.912109" xlink:href="#DejaVuSans-101"/>
      <use x="871.435547" xlink:href="#DejaVuSans-110"/>
      <use x="934.814453" xlink:href="#DejaVuSans-116"/>
      <use x="974.023438" xlink:href="#DejaVuSans-115"/>
     </g>
    </g>
   </g>
   <g id="matplotlib.axis_2">
    <g id="ytick_1">
     <g id="line2d_51">
      <defs>
       <path d="M 0 0 
L -3.5 0 
" id="m83990ab929" style="stroke:#000000;stroke-width:0.8;"/>
      </defs>
      <g>
       <use style="stroke:#000000;stroke-width:0.8;" x="57.6" xlink:href="#m83990ab929" y="280.072773"/>
      </g>
     </g>
     <g id="text_8">
      <!-- $\mathdefault{10^{-3}}$ -->
      <defs>
       <path d="M 10.59375 35.5 
L 73.1875 35.5 
L 73.1875 27.203125 
L 10.59375 27.203125 
z
" id="DejaVuSans-8722"/>
      </defs>
      <g transform="translate(27.1 283.871992)scale(0.1 -0.1)">
       <use transform="translate(0 0.765625)" xlink:href="#DejaVuSans-49"/>
       <use transform="translate(63.623047 0.765625)" xlink:href="#DejaVuSans-48"/>
       <use transform="translate(128.203125 39.046875)scale(0.7)" xlink:href="#DejaVuSans-8722"/>
       <use transform="translate(186.855469 39.046875)scale(0.7)" xlink:href="#DejaVuSans-51"/>
      </g>
     </g>
    </g>
    <g id="ytick_2">
     <g id="line2d_52">
      <g>
       <use style="stroke:#000000;stroke-width:0.8;" x="57.6" xlink:href="#m83990ab929" y="228.864499"/>
      </g>
     </g>
     <g id="text_9">
      <!-- $\mathdefault{10^{-2}}$ -->
      <g transform="translate(27.1 232.663718)scale(0.1 -0.1)">
       <use transform="translate(0 0.765625)" xlink:href="#DejaVuSans-49"/>
       <use transform="translate(63.623047 0.765625)" xlink:href="#DejaVuSans-48"/>
       <use transform="translate(128.203125 39.046875)scale(0.7)" xlink:href="#DejaVuSans-8722"/>
       <use transform="translate(186.855469 39.046875)scale(0.7)" xlink:href="#DejaVuSans-50"/>
      </g>
     </g>
    </g>
    <g id="ytick_3">
     <g id="line2d_53">
      <g>
       <use style="stroke:#000000;stroke-width:0.8;" x="57.6" xlink:href="#m83990ab929" y="177.656225"/>
      </g>
     </g>
     <g id="text_10">
      <!-- $\mathdefault{10^{-1}}$ -->
      <g transform="translate(27.1 181.455444)scale(0.1 -0.1)">
       <use transform="translate(0 0.684375)" xlink:href="#DejaVuSans-49"/>
       <use transform="translate(63.623047 0.684375)" xlink:href="#DejaVuSans-48"/>
       <use transform="translate(128.203125 38.965625)scale(0.7)" xlink:href="#DejaVuSans-8722"/>
       <use transform="translate(186.855469 38.965625)scale(0.7)" xlink:href="#DejaVuSans-49"/>
      </g>
     </g>
    </g>
    <g id="ytick_4">
     <g id="line2d_54">
      <g>
       <use style="stroke:#000000;stroke-width:0.8;" x="57.6" xlink:href="#m83990ab929" y="126.447951"/>
      </g>
     </g>
     <g id="text_11">
      <!-- $\mathdefault{10^{0}}$ -->
      <g transform="translate(33 130.24717)scale(0.1 -0.1)">
       <use transform="translate(0 0.765625)" xlink:href="#DejaVuSans-49"/>
       <use transform="translate(63.623047 0.765625)" xlink:href="#DejaVuSans-48"/>
       <use transform="translate(128.203125 39.046875)scale(0.7)" xlink:href="#DejaVuSans-48"/>
      </g>
     </g>
    </g>
    <g id="ytick_5">
     <g id="line2d_55">
      <g>
       <use style="stroke:#000000;stroke-width:0.8;" x="57.6" xlink:href="#m83990ab929" y="75.239677"/>
      </g>
     </g>
     <g id="text_12">
      <!-- $\mathdefault{10^{1}}$ -->
      <g transform="translate(33 79.038895)scale(0.1 -0.1)">
       <use transform="translate(0 0.684375)" xlink:href="#DejaVuSans-49"/>
       <use transform="translate(63.623047 0.684375)" xlink:href="#DejaVuSans-48"/>
       <use transform="translate(128.203125 38.965625)scale(0.7)" xlink:href="#DejaVuSans-49"/>
      </g>
     </g>
    </g>
    <g id="ytick_6">
     <g id="line2d_56">
      <defs>
       <path d="M 0 0 
L -2 0 
" id="m994489634d" style="stroke:#000000;stroke-width:0.6;"/>
      </defs>
      <g>
       <use style="stroke:#000000;stroke-width:0.6;" x="57.6" xlink:href="#m994489634d" y="306.848492"/>
      </g>
     </g>
    </g>
    <g id="ytick_7">
     <g id="line2d_57">
      <g>
       <use style="stroke:#000000;stroke-width:0.6;" x="57.6" xlink:href="#m994489634d" y="300.450595"/>
      </g>
     </g>
    </g>
    <g id="ytick_8">
     <g id="line2d_58">
      <g>
       <use style="stroke:#000000;stroke-width:0.6;" x="57.6" xlink:href="#m994489634d" y="295.488"/>
      </g>
     </g>
    </g>
    <g id="ytick_9">
     <g id="line2d_59">
      <g>
       <use style="stroke:#000000;stroke-width:0.6;" x="57.6" xlink:href="#m994489634d" y="291.433265"/>
      </g>
     </g>
    </g>
    <g id="ytick_10">
     <g id="line2d_60">
      <g>
       <use style="stroke:#000000;stroke-width:0.6;" x="57.6" xlink:href="#m994489634d" y="288.005035"/>
      </g>
     </g>
    </g>
    <g id="ytick_11">
     <g id="line2d_61">
      <g>
       <use style="stroke:#000000;stroke-width:0.6;" x="57.6" xlink:href="#m994489634d" y="285.035368"/>
      </g>
     </g>
    </g>
    <g id="ytick_12">
     <g id="line2d_62">
      <g>
       <use style="stroke:#000000;stroke-width:0.6;" x="57.6" xlink:href="#m994489634d" y="282.415936"/>
      </g>
     </g>
    </g>
    <g id="ytick_13">
     <g id="line2d_63">
      <g>
       <use style="stroke:#000000;stroke-width:0.6;" x="57.6" xlink:href="#m994489634d" y="264.657547"/>
      </g>
     </g>
    </g>
    <g id="ytick_14">
     <g id="line2d_64">
      <g>
       <use style="stroke:#000000;stroke-width:0.6;" x="57.6" xlink:href="#m994489634d" y="255.640217"/>
      </g>
     </g>
    </g>
    <g id="ytick_15">
     <g id="line2d_65">
      <g>
       <use style="stroke:#000000;stroke-width:0.6;" x="57.6" xlink:href="#m994489634d" y="249.24232"/>
      </g>
     </g>
    </g>
    <g id="ytick_16">
     <g id="line2d_66">
      <g>
       <use style="stroke:#000000;stroke-width:0.6;" x="57.6" xlink:href="#m994489634d" y="244.279726"/>
      </g>
     </g>
    </g>
    <g id="ytick_17">
     <g id="line2d_67">
      <g>
       <use style="stroke:#000000;stroke-width:0.6;" x="57.6" xlink:href="#m994489634d" y="240.224991"/>
      </g>
     </g>
    </g>
    <g id="ytick_18">
     <g id="line2d_68">
      <g>
       <use style="stroke:#000000;stroke-width:0.6;" x="57.6" xlink:href="#m994489634d" y="236.796761"/>
      </g>
     </g>
    </g>
    <g id="ytick_19">
     <g id="line2d_69">
      <g>
       <use style="stroke:#000000;stroke-width:0.6;" x="57.6" xlink:href="#m994489634d" y="233.827094"/>
      </g>
     </g>
    </g>
    <g id="ytick_20">
     <g id="line2d_70">
      <g>
       <use style="stroke:#000000;stroke-width:0.6;" x="57.6" xlink:href="#m994489634d" y="231.207661"/>
      </g>
     </g>
    </g>
    <g id="ytick_21">
     <g id="line2d_71">
      <g>
       <use style="stroke:#000000;stroke-width:0.6;" x="57.6" xlink:href="#m994489634d" y="213.449273"/>
      </g>
     </g>
    </g>
    <g id="ytick_22">
     <g id="line2d_72">
      <g>
       <use style="stroke:#000000;stroke-width:0.6;" x="57.6" xlink:href="#m994489634d" y="204.431943"/>
      </g>
     </g>
    </g>
    <g id="ytick_23">
     <g id="line2d_73">
      <g>
       <use style="stroke:#000000;stroke-width:0.6;" x="57.6" xlink:href="#m994489634d" y="198.034046"/>
      </g>
     </g>
    </g>
    <g id="ytick_24">
     <g id="line2d_74">
      <g>
       <use style="stroke:#000000;stroke-width:0.6;" x="57.6" xlink:href="#m994489634d" y="193.071452"/>
      </g>
     </g>
    </g>
    <g id="ytick_25">
     <g id="line2d_75">
      <g>
       <use style="stroke:#000000;stroke-width:0.6;" x="57.6" xlink:href="#m994489634d" y="189.016717"/>
      </g>
     </g>
    </g>
    <g id="ytick_26">
     <g id="line2d_76">
      <g>
       <use style="stroke:#000000;stroke-width:0.6;" x="57.6" xlink:href="#m994489634d" y="185.588487"/>
      </g>
     </g>
    </g>
    <g id="ytick_27">
     <g id="line2d_77">
      <g>
       <use style="stroke:#000000;stroke-width:0.6;" x="57.6" xlink:href="#m994489634d" y="182.61882"/>
      </g>
     </g>
    </g>
    <g id="ytick_28">
     <g id="line2d_78">
      <g>
       <use style="stroke:#000000;stroke-width:0.6;" x="57.6" xlink:href="#m994489634d" y="179.999387"/>
      </g>
     </g>
    </g>
    <g id="ytick_29">
     <g id="line2d_79">
      <g>
       <use style="stroke:#000000;stroke-width:0.6;" x="57.6" xlink:href="#m994489634d" y="162.240998"/>
      </g>
     </g>
    </g>
    <g id="ytick_30">
     <g id="line2d_80">
      <g>
       <use style="stroke:#000000;stroke-width:0.6;" x="57.6" xlink:href="#m994489634d" y="153.223669"/>
      </g>
     </g>
    </g>
    <g id="ytick_31">
     <g id="line2d_81">
      <g>
       <use style="stroke:#000000;stroke-width:0.6;" x="57.6" xlink:href="#m994489634d" y="146.825772"/>
      </g>
     </g>
    </g>
    <g id="ytick_32">
     <g id="line2d_82">
      <g>
       <use style="stroke:#000000;stroke-width:0.6;" x="57.6" xlink:href="#m994489634d" y="141.863177"/>
      </g>
     </g>
    </g>
    <g id="ytick_33">
     <g id="line2d_83">
      <g>
       <use style="stroke:#000000;stroke-width:0.6;" x="57.6" xlink:href="#m994489634d" y="137.808442"/>
      </g>
     </g>
    </g>
    <g id="ytick_34">
     <g id="line2d_84">
      <g>
       <use style="stroke:#000000;stroke-width:0.6;" x="57.6" xlink:href="#m994489634d" y="134.380213"/>
      </g>
     </g>
    </g>
    <g id="ytick_35">
     <g id="line2d_85">
      <g>
       <use style="stroke:#000000;stroke-width:0.6;" x="57.6" xlink:href="#m994489634d" y="131.410545"/>
      </g>
     </g>
    </g>
    <g id="ytick_36">
     <g id="line2d_86">
      <g>
       <use style="stroke:#000000;stroke-width:0.6;" x="57.6" xlink:href="#m994489634d" y="128.791113"/>
      </g>
     </g>
    </g>
    <g id="ytick_37">
     <g id="line2d_87">
      <g>
       <use style="stroke:#000000;stroke-width:0.6;" x="57.6" xlink:href="#m994489634d" y="111.032724"/>
      </g>
     </g>
    </g>
    <g id="ytick_38">
     <g id="line2d_88">
      <g>
       <use style="stroke:#000000;stroke-width:0.6;" x="57.6" xlink:href="#m994489634d" y="102.015395"/>
      </g>
     </g>
    </g>
    <g id="ytick_39">
     <g id="line2d_89">
      <g>
       <use style="stroke:#000000;stroke-width:0.6;" x="57.6" xlink:href="#m994489634d" y="95.617498"/>
      </g>
     </g>
    </g>
    <g id="ytick_40">
     <g id="line2d_90">
      <g>
       <use style="stroke:#000000;stroke-width:0.6;" x="57.6" xlink:href="#m994489634d" y="90.654903"/>
      </g>
     </g>
    </g>
    <g id="ytick_41">
     <g id="line2d_91">
      <g>
       <use style="stroke:#000000;stroke-width:0.6;" x="57.6" xlink:href="#m994489634d" y="86.600168"/>
      </g>
     </g>
    </g>
    <g id="ytick_42">
     <g id="line2d_92">
      <g>
       <use style="stroke:#000000;stroke-width:0.6;" x="57.6" xlink:href="#m994489634d" y="83.171939"/>
      </g>
     </g>
    </g>
    <g id="ytick_43">
     <g id="line2d_93">
      <g>
       <use style="stroke:#000000;stroke-width:0.6;" x="57.6" xlink:href="#m994489634d" y="80.202271"/>
      </g>
     </g>
    </g>
    <g id="ytick_44">
     <g id="line2d_94">
      <g>
       <use style="stroke:#000000;stroke-width:0.6;" x="57.6" xlink:href="#m994489634d" y="77.582839"/>
      </g>
     </g>
    </g>
    <g id="ytick_45">
     <g id="line2d_95">
      <g>
       <use style="stroke:#000000;stroke-width:0.6;" x="57.6" xlink:href="#m994489634d" y="59.82445"/>
      </g>
     </g>
    </g>
    <g id="ytick_46">
     <g id="line2d_96">
      <g>
       <use style="stroke:#000000;stroke-width:0.6;" x="57.6" xlink:href="#m994489634d" y="50.80712"/>
      </g>
     </g>
    </g>
    <g id="ytick_47">
     <g id="line2d_97">
      <g>
       <use style="stroke:#000000;stroke-width:0.6;" x="57.6" xlink:href="#m994489634d" y="44.409223"/>
      </g>
     </g>
    </g>
    <g id="text_13">
     <!-- Elements / ns -->
     <defs>
      <path d="M 9.8125 72.90625 
L 55.90625 72.90625 
L 55.90625 64.59375 
L 19.671875 64.59375 
L 19.671875 43.015625 
L 54.390625 43.015625 
L 54.390625 34.71875 
L 19.671875 34.71875 
L 19.671875 8.296875 
L 56.78125 8.296875 
L 56.78125 0 
L 9.8125 0 
z
" id="DejaVuSans-69"/>
      <path d="M 25.390625 72.90625 
L 33.6875 72.90625 
L 8.296875 -9.28125 
L 0 -9.28125 
z
" id="DejaVuSans-47"/>
     </defs>
     <g transform="translate(21.020312 208.469406)rotate(-90)scale(0.1 -0.1)">
      <use xlink:href="#DejaVuSans-69"/>
      <use x="63.183594" xlink:href="#DejaVuSans-108"/>
      <use x="90.966797" xlink:href="#DejaVuSans-101"/>
      <use x="152.490234" xlink:href="#DejaVuSans-109"/>
      <use x="249.902344" xlink:href="#DejaVuSans-101"/>
      <use x="311.425781" xlink:href="#DejaVuSans-110"/>
      <use x="374.804688" xlink:href="#DejaVuSans-116"/>
      <use x="414.013672" xlink:href="#DejaVuSans-115"/>
      <use x="466.113281" xlink:href="#DejaVuSans-32"/>
      <use x="497.900391" xlink:href="#DejaVuSans-47"/>
      <use x="531.591797" xlink:href="#DejaVuSans-32"/>
      <use x="563.378906" xlink:href="#DejaVuSans-110"/>
      <use x="626.757812" xlink:href="#DejaVuSans-115"/>
     </g>
    </g>
   </g>
   <g id="line2d_98">
    <path clip-path="url(#p9cd5432a7f)" d="M 73.832727 276.018038 
L 75.660403 277.953125 
L 77.138259 276.018038 
L 78.995918 274.237931 
L 80.527056 271.055444 
L 83.744031 271.055444 
L 85.404913 267.000709 
L 87.14283 268.271882 
L 88.780231 264.657547 
L 90.32811 265.798283 
L 92.080369 262.537899 
L 93.730495 260.602812 
L 95.289741 262.537899 
L 97.006579 258.822704 
L 98.625256 258.822704 
L 100.262657 257.98338 
L 101.910782 254.204915 
L 103.562795 257.98338 
L 105.212921 252.211988 
L 106.856325 250.383056 
L 108.489005 253.520569 
L 110.107683 247.633947 
L 111.709707 247.122672 
L 113.359833 247.633947 
L 115.045222 246.134089 
L 116.635916 243.407478 
L 118.310727 244.279726 
L 119.944977 242.983856 
L 121.590109 239.139923 
L 123.239292 239.857388 
L 124.842259 238.789688 
L 126.485663 234.967829 
L 128.118343 236.481302 
L 129.774455 232.478834 
L 131.409754 231.207661 
L 133.055882 234.390148 
L 134.706008 228.643209 
L 136.324685 229.772359 
L 137.968089 232.478834 
L 139.600769 225.563717 
L 141.244408 223.724697 
L 142.89218 223.724697 
L 144.538308 223.374462 
L 146.156986 220.145691 
L 149.441177 219.552603 
L 151.092008 216.166216 
L 152.718517 215.916332 
L 154.366759 215.546692 
L 155.998515 211.7377 
L 157.639413 212.258554 
L 159.282941 210.14849 
L 160.911148 208.665309 
L 162.556807 209.026935 
L 164.189849 205.417157 
L 165.828247 206.775105 
L 167.476001 207.27489 
L 169.107851 201.648381 
L 170.747767 200.876993 
L 172.389421 200.625696 
L 174.027475 199.233384 
L 175.664876 196.89609 
L 177.303691 196.738176 
L 178.94525 196.425673 
L 180.577837 192.982671 
L 182.221389 193.027017 
L 183.857999 192.544009 
L 185.494217 189.053813 
L 187.134967 189.202822 
L 188.774475 188.649114 
L 190.412295 185.430198 
L 192.051968 185.335763 
L 193.688157 185.023844 
L 195.327493 181.192206 
L 196.964438 184.054122 
L 198.604229 179.07967 
L 200.241371 179.270159 
L 201.880064 178.796961 
L 203.520562 175.215424 
L 205.157527 176.360355 
L 206.796366 175.637896 
L 208.434072 173.142928 
L 210.072388 173.233887 
L 211.712404 171.498697 
L 213.350759 170.91626 
L 214.988226 169.967704 
L 216.626892 167.667078 
L 218.264822 166.968545 
L 219.903312 166.954796 
L 221.541637 165.134547 
L 223.180322 162.10796 
L 224.819493 162.58841 
L 226.457729 162.667614 
L 228.09596 160.171952 
L 229.734641 161.497427 
L 231.372805 157.682361 
L 233.011369 156.995545 
L 234.649846 155.386355 
L 236.287568 156.117217 
L 237.9262 154.742154 
L 239.564441 153.710821 
L 241.203174 153.253341 
L 242.84143 152.039978 
L 244.480118 151.239216 
L 246.118442 151.899843 
L 247.756651 148.589669 
L 249.395212 148.655975 
L 251.03369 147.503169 
L 252.671945 145.477512 
L 254.310047 146.173798 
L 255.948643 145.00123 
L 257.587133 144.360075 
L 259.225534 143.999734 
L 260.863579 144.092961 
L 262.502157 141.992542 
L 264.140384 141.765538 
L 265.778812 140.621924 
L 267.417307 140.479363 
L 269.05575 139.755663 
L 270.694023 136.900583 
L 272.332486 136.234576 
L 273.970905 137.616531 
L 275.609249 134.755071 
L 277.247621 134.469349 
L 278.886011 133.322394 
L 282.162678 131.399428 
L 283.801103 131.000145 
L 285.439455 131.172747 
L 287.077783 128.974727 
L 288.716253 128.52827 
L 290.354581 127.729592 
L 291.992993 126.046832 
L 293.631384 125.401041 
L 295.269713 126.103693 
L 296.908074 123.921625 
L 298.546455 124.658265 
L 300.184832 123.179785 
L 301.823251 123.423031 
L 303.461625 121.996465 
L 305.099987 122.648577 
L 306.73837 122.089506 
L 308.376721 121.883879 
L 311.653465 120.926661 
L 313.291828 120.047274 
L 316.568596 119.75567 
L 319.845361 119.199735 
L 324.760446 118.941171 
L 328.037224 118.939584 
L 331.313965 119.100423 
L 334.590699 119.19492 
L 336.229083 119.230259 
L 339.505834 119.110015 
L 341.144207 119.145219 
L 342.782586 120.555019 
L 344.420948 121.728648 
L 346.059332 121.663987 
L 347.697692 118.993598 
L 354.251194 118.795659 
L 357.527941 118.690285 
L 359.166317 118.555756 
L 364.081434 118.48724 
L 367.358178 118.448405 
L 373.911676 118.261394 
L 375.550044 119.368943 
L 377.188422 118.364751 
L 378.826795 118.207592 
L 388.657033 118.062211 
L 390.295404 119.508498 
L 391.933778 118.065261 
L 396.848899 117.984554 
L 398.487273 117.972397 
L 398.487273 117.972397 
" style="fill:none;stroke:#1f77b4;stroke-linecap:square;stroke-width:1.5;"/>
   </g>
   <g id="line2d_99">
    <path clip-path="url(#p9cd5432a7f)" d="M 73.832727 226.744851 
L 75.660403 224.809764 
L 77.138259 224.080536 
L 78.995918 222.190332 
L 80.527056 221.223246 
L 82.181199 219.995929 
L 83.744031 218.5513 
L 85.404913 217.727522 
L 88.780231 214.825349 
L 90.32811 215.063206 
L 92.080369 213.338352 
L 93.730495 211.128361 
L 95.289741 210.244557 
L 97.006579 209.118267 
L 100.262657 206.448048 
L 103.562795 204.506199 
L 106.856325 201.977861 
L 108.489005 201.067346 
L 110.107683 200.009605 
L 111.709707 198.711443 
L 113.359833 197.757776 
L 115.045222 197.376674 
L 116.635916 195.168871 
L 118.310727 193.748848 
L 119.944977 192.982671 
L 121.590109 192.414079 
L 124.842259 190.040709 
L 128.118343 187.896376 
L 129.774455 186.695805 
L 131.409754 185.684004 
L 133.055882 184.32261 
L 136.324685 182.702374 
L 137.968089 182.205691 
L 139.600769 179.729219 
L 142.89218 178.150956 
L 144.538308 176.762603 
L 147.807112 175.395502 
L 149.441177 174.164545 
L 151.092008 173.398557 
L 152.718517 173.070428 
L 154.366759 171.821383 
L 155.998515 171.617037 
L 157.639413 171.180626 
L 159.282941 168.668568 
L 160.911148 168.082514 
L 162.556807 167.161933 
L 164.189849 166.55972 
L 165.828247 165.582294 
L 167.476001 165.223378 
L 169.107851 164.596519 
L 170.747767 163.831032 
L 172.389421 162.678952 
L 174.027475 162.152218 
L 175.664876 161.909884 
L 177.303691 161.187724 
L 178.94525 159.621566 
L 180.577837 159.641343 
L 183.857999 158.768334 
L 185.494217 157.946632 
L 187.134967 157.376473 
L 188.774475 157.057114 
L 190.412295 156.091902 
L 192.051968 156.066615 
L 193.688157 154.270961 
L 196.964438 155.021699 
L 198.604229 153.786724 
L 200.241371 153.312805 
L 201.880064 153.342597 
L 205.157527 152.301581 
L 206.796366 152.195155 
L 211.712404 150.969643 
L 214.988226 150.604237 
L 216.626892 150.102549 
L 218.264822 149.974071 
L 219.903312 149.637151 
L 221.541637 149.567859 
L 223.180322 149.045723 
L 224.819493 148.935414 
L 229.734641 148.237365 
L 231.372805 148.160483 
L 234.649846 147.780012 
L 241.203174 147.331875 
L 242.84143 146.937248 
L 251.03369 146.549502 
L 254.310047 146.282046 
L 257.587133 146.163002 
L 264.140384 145.900128 
L 265.778812 145.719534 
L 267.417307 145.868152 
L 269.05575 145.613983 
L 270.694023 145.577159 
L 272.332486 146.233269 
L 273.970905 145.493216 
L 275.609249 145.493216 
L 277.247621 145.37831 
L 278.886011 145.456591 
L 280.524314 145.315884 
L 298.546455 145.124497 
L 300.184832 145.347075 
L 301.823251 145.073053 
L 311.653465 144.970519 
L 313.291828 145.181224 
L 314.930196 145.212227 
L 316.568596 145.062778 
L 318.20696 145.042243 
L 324.760446 145.446138 
L 326.39885 145.336673 
L 328.037224 146.781337 
L 329.675592 145.582416 
L 331.313965 145.561395 
L 332.952324 145.661419 
L 334.590699 145.969568 
L 336.229083 145.878805 
L 337.867456 146.670638 
L 339.505834 146.483704 
L 341.144207 145.969568 
L 347.697692 145.905462 
L 349.336079 145.953524 
L 350.974445 145.820273 
L 352.612814 146.087578 
L 355.889562 145.852181 
L 357.527941 146.114486 
L 359.166317 145.905462 
L 360.804687 146.163002 
L 362.443056 147.360333 
L 364.081434 145.873478 
L 365.719807 145.862827 
L 367.358178 145.985623 
L 372.273299 145.942834 
L 373.911676 146.271198 
L 375.550044 145.98027 
L 377.188422 145.916133 
L 378.826795 146.325493 
L 382.103537 146.2929 
L 383.74191 145.964219 
L 385.380284 146.152212 
L 387.018658 145.825588 
L 388.657033 146.163002 
L 390.295404 145.857503 
L 391.933778 145.884134 
L 393.572151 146.276621 
L 395.210525 146.352691 
L 396.848899 146.157606 
L 398.487273 146.0822 
L 398.487273 146.0822 
" style="fill:none;stroke:#ff7f0e;stroke-linecap:square;stroke-width:1.5;"/>
   </g>
   <g id="line2d_100">
    <path clip-path="url(#p9cd5432a7f)" d="M 73.832727 218.974922 
L 75.660403 217.862717 
L 77.138259 216.803494 
L 78.995918 215.063206 
L 80.527056 214.707367 
L 82.181199 212.900122 
L 83.744031 211.634977 
L 88.780231 208.397898 
L 90.32811 206.529363 
L 92.080369 205.10934 
L 93.730495 203.559695 
L 95.289741 205.033047 
L 97.006579 212.048746 
L 98.625256 204.655457 
L 100.262657 200.377208 
L 101.910782 198.941906 
L 103.562795 197.702931 
L 105.212921 196.168566 
L 106.856325 195.365247 
L 108.489005 194.259057 
L 110.107683 192.938413 
L 111.709707 192.071268 
L 113.359833 190.710505 
L 115.045222 189.61782 
L 116.635916 188.251647 
L 118.310727 188.540007 
L 119.944977 187.032263 
L 123.239292 184.900291 
L 124.842259 185.940739 
L 126.485663 182.702374 
L 128.118343 185.684004 
L 129.774455 187.032263 
L 131.409754 179.127139 
L 133.055882 177.61179 
L 134.706008 176.934172 
L 136.324685 175.435718 
L 137.968089 174.800828 
L 139.600769 173.288642 
L 142.89218 171.566242 
L 146.156986 168.713151 
L 147.807112 168.053612 
L 149.441177 167.65289 
L 152.718517 164.695637 
L 154.366759 163.452075 
L 157.639413 161.583626 
L 159.282941 160.45747 
L 160.911148 159.860061 
L 162.556807 158.409778 
L 164.189849 157.591957 
L 165.828247 156.907885 
L 167.476001 156.951672 
L 169.107851 155.094153 
L 170.747767 154.710429 
L 172.389421 153.305364 
L 174.027475 158.854109 
L 175.664876 151.47095 
L 177.303691 150.749679 
L 178.94525 150.264197 
L 180.577837 149.051868 
L 182.221389 148.613757 
L 183.857999 147.785816 
L 185.494217 146.753611 
L 187.134967 146.959611 
L 188.774475 145.910797 
L 190.412295 144.152043 
L 192.051968 143.669246 
L 193.688157 143.362622 
L 195.327493 142.52224 
L 196.964438 142.019401 
L 200.241371 140.626131 
L 201.880064 146.714852 
L 203.520562 139.442313 
L 205.157527 139.200297 
L 206.796366 138.793657 
L 208.434072 138.148325 
L 210.072388 138.348699 
L 211.712404 137.266525 
L 214.988226 136.446233 
L 216.626892 135.9839 
L 218.264822 135.773195 
L 219.903312 135.090387 
L 221.541637 134.832752 
L 223.180322 134.839238 
L 224.819493 134.50766 
L 226.457729 134.610146 
L 228.09596 133.793898 
L 229.734641 133.507965 
L 231.372805 133.486591 
L 233.011369 132.872551 
L 234.649846 133.517131 
L 236.287568 132.185597 
L 237.9262 132.085076 
L 239.564441 134.434289 
L 241.203174 131.594782 
L 242.84143 133.609005 
L 244.480118 131.14526 
L 246.118442 131.098611 
L 247.756651 130.804513 
L 249.395212 130.626682 
L 251.03369 130.618633 
L 252.671945 130.151422 
L 254.310047 129.879887 
L 255.948643 129.789246 
L 257.587133 130.349319 
L 259.225534 129.859137 
L 262.502157 129.346566 
L 264.140384 129.532288 
L 265.778812 129.996972 
L 267.417307 128.905073 
L 270.694023 128.387082 
L 273.970905 128.232321 
L 275.609249 128.109763 
L 277.247621 128.114556 
L 278.886011 127.873767 
L 280.524314 127.495243 
L 282.162678 128.186583 
L 283.801103 127.586346 
L 285.439455 128.133741 
L 287.077783 127.411479 
L 288.716253 127.588686 
L 290.354581 127.07039 
L 291.992993 127.532573 
L 293.631384 127.800381 
L 295.269713 126.901787 
L 296.908074 126.870033 
L 298.546455 127.267953 
L 303.461625 127.348862 
L 305.099987 127.748447 
L 306.73837 127.50457 
L 308.376721 129.463415 
L 310.015104 128.29023 
L 316.568596 130.56772 
L 318.20696 131.302391 
L 319.845361 131.194761 
L 321.483703 131.477364 
L 323.122072 132.128101 
L 324.760446 132.452011 
L 326.39885 132.536655 
L 328.037224 133.273975 
L 329.675592 133.790804 
L 331.313965 133.790804 
L 332.952324 135.504233 
L 334.590699 134.845726 
L 336.229083 135.123213 
L 339.505834 136.621238 
L 341.144207 137.046954 
L 342.782586 136.79763 
L 344.420948 137.73074 
L 346.059332 137.841827 
L 347.697692 137.664354 
L 349.336079 138.25774 
L 350.974445 138.462924 
L 352.612814 138.504953 
L 354.251194 138.284231 
L 355.889562 139.141186 
L 357.527941 138.828554 
L 359.166317 139.315025 
L 360.804687 139.090083 
L 362.443056 139.172692 
L 364.081434 139.735444 
L 365.719807 139.816432 
L 370.634928 140.479363 
L 372.273299 139.987475 
L 373.911676 140.201081 
L 377.188422 140.081701 
L 378.826795 140.525386 
L 382.103537 140.537954 
L 383.74191 140.642966 
L 385.380284 141.020887 
L 387.018658 140.943934 
L 388.657033 140.735789 
L 391.933778 141.119606 
L 393.572151 142.877857 
L 395.210525 144.444835 
L 396.848899 144.499852 
L 398.487273 144.424862 
L 398.487273 144.424862 
" style="fill:none;stroke:#2ca02c;stroke-linecap:square;stroke-width:1.5;"/>
   </g>
   <g id="line2d_101">
    <path clip-path="url(#p9cd5432a7f)" d="M 73.832727 295.488 
L 77.138259 295.488 
L 78.995918 291.433265 
L 82.181199 291.433265 
L 83.744031 288.005035 
L 87.14283 288.005035 
L 88.780231 285.035368 
L 90.32811 285.035368 
L 92.080369 282.415936 
L 93.730495 282.415936 
L 95.289741 280.072773 
L 97.006579 280.072773 
L 98.625256 277.953125 
L 101.910782 274.237931 
L 103.562795 272.589809 
L 105.212921 274.237931 
L 106.856325 271.055444 
L 108.489005 271.055444 
L 110.107683 267.000709 
L 111.709707 268.271882 
L 113.359833 267.000709 
L 115.045222 264.657547 
L 116.635916 263.572479 
L 118.310727 261.549315 
L 123.239292 258.822704 
L 124.842259 257.174582 
L 126.485663 257.174582 
L 128.118343 254.910989 
L 129.774455 252.856655 
L 133.055882 250.383056 
L 134.706008 248.69317 
L 136.324685 249.24232 
L 137.968089 246.134089 
L 139.600769 245.655802 
L 141.244408 244.729023 
L 142.89218 243.407478 
L 144.538308 240.978943 
L 146.156986 240.224991 
L 147.807112 239.139923 
L 149.441177 237.116759 
L 151.092008 237.770908 
L 152.718517 233.827094 
L 154.366759 233.550823 
L 155.998515 232.742026 
L 157.639413 230.961919 
L 159.282941 234.390148 
L 162.556807 231.707446 
L 164.189849 229.088013 
L 165.828247 228.643209 
L 167.476001 227.992251 
L 169.107851 226.543588 
L 170.747767 225.756268 
L 172.389421 224.080536 
L 174.027475 221.701533 
L 175.664876 221.701533 
L 177.303691 220.145691 
L 178.94525 218.273303 
L 180.577837 216.803494 
L 182.221389 216.41894 
L 185.494217 213.672787 
L 187.134967 211.634977 
L 188.774475 210.535273 
L 190.412295 209.957592 
L 192.051968 208.397898 
L 195.327493 206.045877 
L 196.964438 203.84666 
L 198.604229 203.63109 
L 200.241371 202.111032 
L 201.880064 200.876993 
L 203.520562 198.654198 
L 205.157527 198.313792 
L 206.796366 197.215323 
L 208.434072 196.477453 
L 210.072388 193.657328 
L 211.712404 193.027017 
L 213.350759 191.817583 
L 214.988226 190.43226 
L 216.626892 189.202822 
L 218.264822 186.762691 
L 219.903312 186.298661 
L 221.541637 185.62028 
L 223.180322 184.352643 
L 226.457729 181.428101 
L 228.09596 181.218293 
L 229.734641 179.055973 
L 231.372805 177.589606 
L 233.011369 176.486597 
L 234.649846 175.215424 
L 236.287568 173.472137 
L 237.9262 172.253231 
L 239.564441 181.639907 
L 241.203174 181.114127 
L 242.84143 178.773563 
L 244.480118 177.902215 
L 246.118442 166.251299 
L 247.756651 164.945381 
L 249.395212 163.866892 
L 251.03369 161.931805 
L 255.948643 158.758824 
L 257.587133 167.88099 
L 259.225534 165.960237 
L 260.863579 165.790019 
L 262.502157 163.160444 
L 264.140384 162.952813 
L 265.778812 150.564735 
L 267.417307 150.842732 
L 269.05575 148.631841 
L 270.694023 157.709554 
L 272.332486 156.269717 
L 273.970905 154.302066 
L 275.609249 153.901066 
L 277.247621 151.457252 
L 278.886011 151.573958 
L 282.162678 148.910975 
L 283.801103 146.959611 
L 285.439455 152.17393 
L 287.077783 150.683451 
L 288.716253 149.56157 
L 290.354581 148.142779 
L 291.992993 147.144964 
L 293.631384 145.767196 
L 295.269713 144.221171 
L 296.908074 148.722478 
L 298.546455 147.371726 
L 300.184832 146.494657 
L 301.823251 144.75166 
L 306.73837 140.969556 
L 308.376721 139.474249 
L 310.015104 138.436219 
L 314.930196 134.272454 
L 316.568596 138.992138 
L 318.20696 137.609182 
L 326.39885 131.343927 
L 329.675592 128.818311 
L 331.313965 129.486349 
L 332.952324 128.759012 
L 334.590699 127.231064 
L 336.229083 126.958605 
L 339.505834 124.389039 
L 341.144207 123.415268 
L 344.420948 120.666204 
L 346.059332 119.490599 
L 347.697692 121.797105 
L 349.336079 120.356277 
L 350.974445 117.087824 
L 354.251194 114.523126 
L 355.889562 115.215481 
L 357.527941 113.890839 
L 359.166317 112.18751 
L 360.804687 112.308476 
L 364.081434 109.860986 
L 365.719807 108.641799 
L 367.358178 109.357217 
L 368.996555 108.146053 
L 370.634928 108.668778 
L 372.273299 107.378172 
L 373.911676 109.598812 
L 375.550044 107.19776 
L 377.188422 105.46031 
L 380.465165 105.954784 
L 382.103537 104.682972 
L 385.380284 104.844867 
L 387.018658 103.633314 
L 390.295404 103.466518 
L 391.933778 103.261726 
L 393.572151 103.1944 
L 395.210525 101.968741 
L 396.848899 102.671403 
L 398.487273 102.346999 
L 398.487273 102.346999 
" style="fill:none;stroke:#d62728;stroke-linecap:square;stroke-width:1.5;"/>
   </g>
   <g id="line2d_102">
    <path clip-path="url(#p9cd5432a7f)" d="M 73.832727 274.237931 
L 75.660403 274.237931 
L 77.138259 276.018038 
L 78.995918 269.620141 
L 80.527056 271.055444 
L 82.181199 268.271882 
L 83.744031 268.271882 
L 85.404913 267.000709 
L 87.14283 263.572479 
L 88.780231 264.657547 
L 90.32811 261.549315 
L 92.080369 261.549315 
L 93.730495 257.98338 
L 95.289741 260.602812 
L 97.006579 256.39417 
L 98.625256 254.204915 
L 100.262657 254.910989 
L 101.910782 254.204915 
L 103.562795 250.976144 
L 105.212921 249.805375 
L 106.856325 250.383056 
L 108.489005 247.122672 
L 110.107683 246.134089 
L 113.359833 245.187585 
L 115.045222 242.160078 
L 116.635916 242.160078 
L 118.310727 239.139923 
L 119.944977 240.224991 
L 121.590109 237.116759 
L 124.842259 235.8635 
L 126.485663 232.742026 
L 128.118343 233.277943 
L 129.774455 230.005235 
L 131.409754 231.207661 
L 133.055882 227.56863 
L 134.706008 228.643209 
L 136.324685 225.563717 
L 137.968089 223.901905 
L 139.600769 223.724697 
L 141.244408 222.355682 
L 142.89218 220.601122 
L 144.538308 219.699399 
L 146.156986 219.40677 
L 147.807112 216.040923 
L 149.441177 214.94396 
L 151.092008 214.590008 
L 152.718517 214.590008 
L 154.366759 211.329625 
L 155.998515 211.028408 
L 157.639413 208.046278 
L 159.282941 208.397898 
L 160.911148 206.045877 
L 162.556807 205.417157 
L 164.189849 205.033047 
L 165.828247 201.845483 
L 167.476001 204.284172 
L 169.107851 199.233384 
L 170.747767 198.540149 
L 172.389421 198.034046 
L 174.027475 197.702931 
L 175.664876 194.494896 
L 177.303691 192.718437 
L 178.94525 193.611708 
L 180.577837 190.196503 
L 182.221389 189.277702 
L 183.857999 188.979682 
L 185.494217 189.655934 
L 187.134967 185.973041 
L 188.774475 186.135255 
L 190.412295 185.684004 
L 192.051968 181.586766 
L 193.688157 182.61882 
L 195.327493 178.890798 
L 196.964438 180.549773 
L 198.604229 178.961437 
L 200.241371 175.096177 
L 201.880064 176.783977 
L 205.157527 173.197459 
L 206.796366 170.573982 
L 208.434072 170.606354 
L 210.072388 173.49057 
L 211.712404 166.613798 
L 213.350759 166.886177 
L 214.988226 166.586742 
L 216.626892 163.735685 
L 218.264822 162.678952 
L 219.903312 162.386027 
L 221.541637 159.055546 
L 223.180322 159.045913 
L 224.819493 158.41914 
L 226.457729 155.191128 
L 228.09596 155.239774 
L 229.734641 154.623417 
L 231.372805 153.083263 
L 233.011369 149.611929 
L 234.649846 148.758837 
L 236.287568 149.224602 
L 237.9262 145.724825 
L 239.564441 144.499852 
L 241.203174 147.331875 
L 242.84143 142.230929 
L 244.480118 142.298863 
L 246.118442 141.827623 
L 247.756651 138.612298 
L 249.395212 136.610698 
L 251.03369 135.584581 
L 252.671945 135.9021 
L 254.310047 135.44083 
L 255.948643 133.896249 
L 257.587133 132.807333 
L 259.225534 133.655084 
L 260.863579 129.290897 
L 262.502157 128.469738 
L 264.140384 126.23547 
L 265.778812 126.2531 
L 267.417307 123.655233 
L 269.05575 121.599515 
L 270.694023 121.57092 
L 272.332486 122.285984 
L 273.970905 120.568674 
L 275.609249 119.803456 
L 277.247621 115.960597 
L 278.886011 120.745226 
L 280.524314 115.335248 
L 282.162678 113.728318 
L 283.801103 115.397403 
L 285.439455 113.463782 
L 287.077783 112.464469 
L 288.716253 110.931764 
L 291.992993 107.234288 
L 296.908074 103.002934 
L 298.546455 101.713513 
L 300.184832 102.401996 
L 301.823251 101.217402 
L 303.461625 97.800005 
L 305.099987 97.020206 
L 306.73837 94.820757 
L 308.376721 93.963658 
L 310.015104 92.505882 
L 311.653465 91.909233 
L 313.291828 90.200989 
L 314.930196 89.549089 
L 316.568596 108.089482 
L 318.20696 106.900287 
L 319.845361 105.884098 
L 321.483703 104.300974 
L 323.122072 103.338695 
L 324.760446 105.782002 
L 326.39885 103.711583 
L 328.037224 103.210821 
L 329.675592 101.339318 
L 331.313965 100.301076 
L 332.952324 96.172 
L 334.590699 94.916445 
L 336.229083 93.468049 
L 341.144207 89.80405 
L 344.420948 87.719845 
L 346.059332 86.739601 
L 347.697692 85.105524 
L 350.974445 82.683623 
L 354.251194 80.130387 
L 355.889562 79.498525 
L 357.527941 78.510012 
L 359.166317 77.323903 
L 362.443056 74.610175 
L 364.081434 73.793674 
L 365.719807 72.693905 
L 367.358178 71.371608 
L 370.634928 69.48092 
L 372.273299 68.200013 
L 373.911676 67.676952 
L 375.550044 66.414733 
L 377.188422 65.335848 
L 378.826795 64.700064 
L 380.465165 63.16665 
L 382.103537 65.442385 
L 383.74191 61.594728 
L 385.380284 60.990717 
L 387.018658 59.629048 
L 388.657033 58.914064 
L 391.933778 56.577318 
L 393.572151 56.173861 
L 395.210525 55.997348 
L 396.848899 54.601054 
L 398.487273 53.568 
L 398.487273 53.568 
" style="fill:none;stroke:#9467bd;stroke-linecap:square;stroke-width:1.5;"/>
   </g>
   <g id="patch_3">
    <path d="M 57.6 307.584 
L 57.6 41.472 
" style="fill:none;stroke:#000000;stroke-linecap:square;stroke-linejoin:miter;stroke-width:0.8;"/>
   </g>
   <g id="patch_4">
    <path d="M 414.72 307.584 
L 414.72 41.472 
" style="fill:none;stroke:#000000;stroke-linecap:square;stroke-linejoin:miter;stroke-width:0.8;"/>
   </g>
   <g id="patch_5">
    <path d="M 57.6 307.584 
L 414.72 307.584 
" style="fill:none;stroke:#000000;stroke-linecap:square;stroke-linejoin:miter;stroke-width:0.8;"/>
   </g>
   <g id="patch_6">
    <path d="M 57.6 41.472 
L 414.72 41.472 
" style="fill:none;stroke:#000000;stroke-linecap:square;stroke-linejoin:miter;stroke-width:0.8;"/>
   </g>
   <g id="legend_1">
    <g id="patch_7">
     <path d="M 64.6 122.862625 
L 150.495313 122.862625 
Q 152.495313 122.862625 152.495313 120.862625 
L 152.495313 48.472 
Q 152.495313 46.472 150.495313 46.472 
L 64.6 46.472 
Q 62.6 46.472 62.6 48.472 
L 62.6 120.862625 
Q 62.6 122.862625 64.6 122.862625 
z
" style="fill:#ffffff;opacity:0.8;stroke:#cccccc;stroke-linejoin:miter;"/>
    </g>
    <g id="line2d_103">
     <path d="M 66.6 54.570438 
L 86.6 54.570438 
" style="fill:none;stroke:#1f77b4;stroke-linecap:square;stroke-width:1.5;"/>
    </g>
    <g id="line2d_104"/>
    <g id="text_14">
     <!-- CuPy -->
     <defs>
      <path d="M 64.40625 67.28125 
L 64.40625 56.890625 
Q 59.421875 61.53125 53.78125 63.8125 
Q 48.140625 66.109375 41.796875 66.109375 
Q 29.296875 66.109375 22.65625 58.46875 
Q 16.015625 50.828125 16.015625 36.375 
Q 16.015625 21.96875 22.65625 14.328125 
Q 29.296875 6.6875 41.796875 6.6875 
Q 48.140625 6.6875 53.78125 8.984375 
Q 59.421875 11.28125 64.40625 15.921875 
L 64.40625 5.609375 
Q 59.234375 2.09375 53.4375 0.328125 
Q 47.65625 -1.421875 41.21875 -1.421875 
Q 24.65625 -1.421875 15.125 8.703125 
Q 5.609375 18.84375 5.609375 36.375 
Q 5.609375 53.953125 15.125 64.078125 
Q 24.65625 74.21875 41.21875 74.21875 
Q 47.75 74.21875 53.53125 72.484375 
Q 59.328125 70.75 64.40625 67.28125 
z
" id="DejaVuSans-67"/>
      <path d="M 19.671875 64.796875 
L 19.671875 37.40625 
L 32.078125 37.40625 
Q 38.96875 37.40625 42.71875 40.96875 
Q 46.484375 44.53125 46.484375 51.125 
Q 46.484375 57.671875 42.71875 61.234375 
Q 38.96875 64.796875 32.078125 64.796875 
z
M 9.8125 72.90625 
L 32.078125 72.90625 
Q 44.34375 72.90625 50.609375 67.359375 
Q 56.890625 61.8125 56.890625 51.125 
Q 56.890625 40.328125 50.609375 34.8125 
Q 44.34375 29.296875 32.078125 29.296875 
L 19.671875 29.296875 
L 19.671875 0 
L 9.8125 0 
z
" id="DejaVuSans-80"/>
      <path d="M 32.171875 -5.078125 
Q 28.375 -14.84375 24.75 -17.8125 
Q 21.140625 -20.796875 15.09375 -20.796875 
L 7.90625 -20.796875 
L 7.90625 -13.28125 
L 13.1875 -13.28125 
Q 16.890625 -13.28125 18.9375 -11.515625 
Q 21 -9.765625 23.484375 -3.21875 
L 25.09375 0.875 
L 2.984375 54.6875 
L 12.5 54.6875 
L 29.59375 11.921875 
L 46.6875 54.6875 
L 56.203125 54.6875 
z
" id="DejaVuSans-121"/>
     </defs>
     <g transform="translate(94.6 58.070438)scale(0.1 -0.1)">
      <use xlink:href="#DejaVuSans-67"/>
      <use x="69.824219" xlink:href="#DejaVuSans-117"/>
      <use x="133.203125" xlink:href="#DejaVuSans-80"/>
      <use x="193.505859" xlink:href="#DejaVuSans-121"/>
     </g>
    </g>
    <g id="line2d_105">
     <path d="M 66.6 69.248563 
L 86.6 69.248563 
" style="fill:none;stroke:#ff7f0e;stroke-linecap:square;stroke-width:1.5;"/>
    </g>
    <g id="line2d_106"/>
    <g id="text_15">
     <!-- NumExpr -->
     <defs>
      <path d="M 54.890625 54.6875 
L 35.109375 28.078125 
L 55.90625 0 
L 45.3125 0 
L 29.390625 21.484375 
L 13.484375 0 
L 2.875 0 
L 24.125 28.609375 
L 4.6875 54.6875 
L 15.28125 54.6875 
L 29.78125 35.203125 
L 44.28125 54.6875 
z
" id="DejaVuSans-120"/>
      <path d="M 18.109375 8.203125 
L 18.109375 -20.796875 
L 9.078125 -20.796875 
L 9.078125 54.6875 
L 18.109375 54.6875 
L 18.109375 46.390625 
Q 20.953125 51.265625 25.265625 53.625 
Q 29.59375 56 35.59375 56 
Q 45.5625 56 51.78125 48.09375 
Q 58.015625 40.1875 58.015625 27.296875 
Q 58.015625 14.40625 51.78125 6.484375 
Q 45.5625 -1.421875 35.59375 -1.421875 
Q 29.59375 -1.421875 25.265625 0.953125 
Q 20.953125 3.328125 18.109375 8.203125 
z
M 48.6875 27.296875 
Q 48.6875 37.203125 44.609375 42.84375 
Q 40.53125 48.484375 33.40625 48.484375 
Q 26.265625 48.484375 22.1875 42.84375 
Q 18.109375 37.203125 18.109375 27.296875 
Q 18.109375 17.390625 22.1875 11.75 
Q 26.265625 6.109375 33.40625 6.109375 
Q 40.53125 6.109375 44.609375 11.75 
Q 48.6875 17.390625 48.6875 27.296875 
z
" id="DejaVuSans-112"/>
     </defs>
     <g transform="translate(94.6 72.748563)scale(0.1 -0.1)">
      <use xlink:href="#DejaVuSans-78"/>
      <use x="74.804688" xlink:href="#DejaVuSans-117"/>
      <use x="138.183594" xlink:href="#DejaVuSans-109"/>
      <use x="235.595703" xlink:href="#DejaVuSans-69"/>
      <use x="298.779297" xlink:href="#DejaVuSans-120"/>
      <use x="357.958984" xlink:href="#DejaVuSans-112"/>
      <use x="421.435547" xlink:href="#DejaVuSans-114"/>
     </g>
    </g>
    <g id="line2d_107">
     <path d="M 66.6 83.926688 
L 86.6 83.926688 
" style="fill:none;stroke:#2ca02c;stroke-linecap:square;stroke-width:1.5;"/>
    </g>
    <g id="line2d_108"/>
    <g id="text_16">
     <!-- NumPy -->
     <g transform="translate(94.6 87.426688)scale(0.1 -0.1)">
      <use xlink:href="#DejaVuSans-78"/>
      <use x="74.804688" xlink:href="#DejaVuSans-117"/>
      <use x="138.183594" xlink:href="#DejaVuSans-109"/>
      <use x="235.595703" xlink:href="#DejaVuSans-80"/>
      <use x="295.898438" xlink:href="#DejaVuSans-121"/>
     </g>
    </g>
    <g id="line2d_109">
     <path d="M 66.6 98.604813 
L 86.6 98.604813 
" style="fill:none;stroke:#d62728;stroke-linecap:square;stroke-width:1.5;"/>
    </g>
    <g id="line2d_110"/>
    <g id="text_17">
     <!-- scikit-cuda -->
     <defs>
      <path d="M 48.78125 52.59375 
L 48.78125 44.1875 
Q 44.96875 46.296875 41.140625 47.34375 
Q 37.3125 48.390625 33.40625 48.390625 
Q 24.65625 48.390625 19.8125 42.84375 
Q 14.984375 37.3125 14.984375 27.296875 
Q 14.984375 17.28125 19.8125 11.734375 
Q 24.65625 6.203125 33.40625 6.203125 
Q 37.3125 6.203125 41.140625 7.25 
Q 44.96875 8.296875 48.78125 10.40625 
L 48.78125 2.09375 
Q 45.015625 0.34375 40.984375 -0.53125 
Q 36.96875 -1.421875 32.421875 -1.421875 
Q 20.0625 -1.421875 12.78125 6.34375 
Q 5.515625 14.109375 5.515625 27.296875 
Q 5.515625 40.671875 12.859375 48.328125 
Q 20.21875 56 33.015625 56 
Q 37.15625 56 41.109375 55.140625 
Q 45.0625 54.296875 48.78125 52.59375 
z
" id="DejaVuSans-99"/>
      <path d="M 9.421875 54.6875 
L 18.40625 54.6875 
L 18.40625 0 
L 9.421875 0 
z
M 9.421875 75.984375 
L 18.40625 75.984375 
L 18.40625 64.59375 
L 9.421875 64.59375 
z
" id="DejaVuSans-105"/>
      <path d="M 9.078125 75.984375 
L 18.109375 75.984375 
L 18.109375 31.109375 
L 44.921875 54.6875 
L 56.390625 54.6875 
L 27.390625 29.109375 
L 57.625 0 
L 45.90625 0 
L 18.109375 26.703125 
L 18.109375 0 
L 9.078125 0 
z
" id="DejaVuSans-107"/>
      <path d="M 4.890625 31.390625 
L 31.203125 31.390625 
L 31.203125 23.390625 
L 4.890625 23.390625 
z
" id="DejaVuSans-45"/>
      <path d="M 45.40625 46.390625 
L 45.40625 75.984375 
L 54.390625 75.984375 
L 54.390625 0 
L 45.40625 0 
L 45.40625 8.203125 
Q 42.578125 3.328125 38.25 0.953125 
Q 33.9375 -1.421875 27.875 -1.421875 
Q 17.96875 -1.421875 11.734375 6.484375 
Q 5.515625 14.40625 5.515625 27.296875 
Q 5.515625 40.1875 11.734375 48.09375 
Q 17.96875 56 27.875 56 
Q 33.9375 56 38.25 53.625 
Q 42.578125 51.265625 45.40625 46.390625 
z
M 14.796875 27.296875 
Q 14.796875 17.390625 18.875 11.75 
Q 22.953125 6.109375 30.078125 6.109375 
Q 37.203125 6.109375 41.296875 11.75 
Q 45.40625 17.390625 45.40625 27.296875 
Q 45.40625 37.203125 41.296875 42.84375 
Q 37.203125 48.484375 30.078125 48.484375 
Q 22.953125 48.484375 18.875 42.84375 
Q 14.796875 37.203125 14.796875 27.296875 
z
" id="DejaVuSans-100"/>
      <path d="M 34.28125 27.484375 
Q 23.390625 27.484375 19.1875 25 
Q 14.984375 22.515625 14.984375 16.5 
Q 14.984375 11.71875 18.140625 8.90625 
Q 21.296875 6.109375 26.703125 6.109375 
Q 34.1875 6.109375 38.703125 11.40625 
Q 43.21875 16.703125 43.21875 25.484375 
L 43.21875 27.484375 
z
M 52.203125 31.203125 
L 52.203125 0 
L 43.21875 0 
L 43.21875 8.296875 
Q 40.140625 3.328125 35.546875 0.953125 
Q 30.953125 -1.421875 24.3125 -1.421875 
Q 15.921875 -1.421875 10.953125 3.296875 
Q 6 8.015625 6 15.921875 
Q 6 25.140625 12.171875 29.828125 
Q 18.359375 34.515625 30.609375 34.515625 
L 43.21875 34.515625 
L 43.21875 35.40625 
Q 43.21875 41.609375 39.140625 45 
Q 35.0625 48.390625 27.6875 48.390625 
Q 23 48.390625 18.546875 47.265625 
Q 14.109375 46.140625 10.015625 43.890625 
L 10.015625 52.203125 
Q 14.9375 54.109375 19.578125 55.046875 
Q 24.21875 56 28.609375 56 
Q 40.484375 56 46.34375 49.84375 
Q 52.203125 43.703125 52.203125 31.203125 
z
" id="DejaVuSans-97"/>
     </defs>
     <g transform="translate(94.6 102.104813)scale(0.1 -0.1)">
      <use xlink:href="#DejaVuSans-115"/>
      <use x="52.099609" xlink:href="#DejaVuSans-99"/>
      <use x="107.080078" xlink:href="#DejaVuSans-105"/>
      <use x="134.863281" xlink:href="#DejaVuSans-107"/>
      <use x="192.773438" xlink:href="#DejaVuSans-105"/>
      <use x="220.556641" xlink:href="#DejaVuSans-116"/>
      <use x="259.765625" xlink:href="#DejaVuSans-45"/>
      <use x="295.849609" xlink:href="#DejaVuSans-99"/>
      <use x="350.830078" xlink:href="#DejaVuSans-117"/>
      <use x="414.208984" xlink:href="#DejaVuSans-100"/>
      <use x="477.685547" xlink:href="#DejaVuSans-97"/>
     </g>
    </g>
    <g id="line2d_111">
     <path d="M 66.6 113.282938 
L 86.6 113.282938 
" style="fill:none;stroke:#9467bd;stroke-linecap:square;stroke-width:1.5;"/>
    </g>
    <g id="line2d_112"/>
    <g id="text_18">
     <!-- VecPy -->
     <defs>
      <path d="M 28.609375 0 
L 0.78125 72.90625 
L 11.078125 72.90625 
L 34.1875 11.53125 
L 57.328125 72.90625 
L 67.578125 72.90625 
L 39.796875 0 
z
" id="DejaVuSans-86"/>
     </defs>
     <g transform="translate(94.6 116.782938)scale(0.1 -0.1)">
      <use xlink:href="#DejaVuSans-86"/>
      <use x="68.298828" xlink:href="#DejaVuSans-101"/>
      <use x="129.822266" xlink:href="#DejaVuSans-99"/>
      <use x="184.802734" xlink:href="#DejaVuSans-80"/>
      <use x="245.105469" xlink:href="#DejaVuSans-121"/>
     </g>
    </g>
   </g>
  </g>
 </g>
 <defs>
  <clipPath id="p9cd5432a7f">
   <rect height="266.112" width="357.12" x="57.6" y="41.472"/>
  </clipPath>
 </defs>
</svg>
